<mxfile host="app.diagrams.net" modified="2024-01-18T09:28:13.327Z" agent="Mozilla/5.0 (Windows NT 10.0; Win64; x64) AppleWebKit/537.36 (KHTML, like Gecko) Chrome/120.0.0.0 Safari/537.36" etag="ITMIOYUpgTj35y-Ik36O" version="22.1.21" type="github">
  <diagram name="第 1 页" id="tT7GE4RdVmyTBcglqJC3">
    <mxGraphModel dx="819" dy="426" grid="1" gridSize="10" guides="1" tooltips="1" connect="1" arrows="1" fold="1" page="1" pageScale="1" pageWidth="583" pageHeight="827" math="0" shadow="0">
      <root>
        <mxCell id="0" />
        <mxCell id="1" parent="0" />
        <mxCell id="SDstTrBbTWdrZYUDBMT0-6" style="edgeStyle=orthogonalEdgeStyle;rounded=0;orthogonalLoop=1;jettySize=auto;html=1;exitX=1;exitY=0.5;exitDx=0;exitDy=0;entryX=0;entryY=0.5;entryDx=0;entryDy=0;" parent="1" source="SDstTrBbTWdrZYUDBMT0-4" target="SDstTrBbTWdrZYUDBMT0-5" edge="1">
          <mxGeometry relative="1" as="geometry" />
        </mxCell>
        <mxCell id="SDstTrBbTWdrZYUDBMT0-4" value="client" style="rounded=0;whiteSpace=wrap;html=1;" parent="1" vertex="1">
          <mxGeometry x="60" y="220" width="70" height="50" as="geometry" />
        </mxCell>
        <mxCell id="SDstTrBbTWdrZYUDBMT0-5" value="Auth Server" style="whiteSpace=wrap;html=1;aspect=fixed;" parent="1" vertex="1">
          <mxGeometry x="320" y="160" width="60" height="60" as="geometry" />
        </mxCell>
        <mxCell id="SDstTrBbTWdrZYUDBMT0-7" value="Resource Server" style="whiteSpace=wrap;html=1;aspect=fixed;" parent="1" vertex="1">
          <mxGeometry x="260" y="310" width="80" height="80" as="geometry" />
        </mxCell>
        <mxCell id="SDstTrBbTWdrZYUDBMT0-11" value="" style="shape=image;verticalLabelPosition=bottom;labelBackgroundColor=default;verticalAlign=top;aspect=fixed;imageAspect=0;image=data:image/png,iVBORw0KGgoAAAANSUhEUgAABGIAAAIeCAYAAADwA6kfAAAgAElEQVR4Aey9CVhUV7b+fRyindt2377XdP+vdt9biWbUmJiRjJqoHdNJjElQo8aYwTi0xs6EUxtFUOM8gKgozrPiAAIiCCo4oIiIgoLiiIgyqoigUNT7ffucs6vOVEWBzCyfh6fOObWHtX97V8l+WWttAZp/iYmJmid14TYd21e0hDB9GMJynLM3PaofWk5qhWEx2U5USIG3lwBhkvHPn/zWIPW+uhnz9RAMm9nEbp02G6NwU1klaxcGTxcgLFqBNOVzJ67zYn+CaVIbvOljQhMHDFKCXrJrjzS2rliRru7Q8Tj05QvOeOOdKcacWB9dw9Sjyzw0GK3scBU8nsLYOBUlhXFnsWiBja+OJyvJmc6bguN3FVUVl+Zz3njVQ0BTHx8ky3NovroZfX7Tj+FPS1YgYAdjqBl36RVsXt5Sz3ZqD6yIno6XdOPOxK41rfTtMLsytqMf69vjbfgoFlXm4eEweehtEjz+D8/NZX1rbCpIgPfCFnqbFKzVzMy4dmgknjDqY5KAptM+w8rzRQpy7FL+XMxyQ9QtzVtGt3w+nF7jhUgK6YoWCputn8GpT+K5mQ9D0PSdd2w0nrQ3hil/wysrZiL8inoc1bZmi+IxbV4TCFM+w8ZrpUaE7DwrRPyO59HEqe+rbISv+5t13lss80eGnVbpMREgAkSACBABIkAEiAARIAI1Q0BQdnv//n0kJCQoH9WJ68Jkb7w9WUC7rUeR74zFRafg7fMwhLnuOHrHmQpm3Ly4B96rO+GJ3x6SNznN8cicLvg+7BiyzcZtmHPisdnfFR2nt0ATzWZSvQlWiAZOb1IVffIN3iTHDCoixLBezLdOI3CbYhwef8TfvPph5uFzyDfYTxZcidCwsgkIWiEGxdcRG/krXOe1Rgt5A91U3jDvvpgPg+blgTPh4Ec8O6UJmk57F9OOZ+vKcpHnue3HUaDApbrk7DTCR8GF7Ri9sBUeYiLElGfRJyAcF4sAiaFG9GANFpzF9k2d0YqNweOPeHa5vOFP9S6fEAO+6RagXiMFOBs1Gl1mymvJ8xG8uGImGKMzosCmsUnu1ypcaNYfe65unw3CjJvnAuHh1xGtp0giV/PfnkGXdStxLKdEhU26qWohBkBpNo4G98Wz8ueu6ZS2eEe0J0MSszRCjDknGpO8HoYwqTkemfkEnphlW1ecRdM5YxGtEY6qa81e2dsHLSc1Rcftsc59V7FZuR6EQdMFNJ0/BbFOfF+pxNOKfJ8YzDQ9IgJEgAgQASJABIgAESACRKDyCNQDISYP+zaYdB4EjhBJHiRN8XZwMjSOLI6q0XtEgAjUZgKl57HSl3kBtcFPR7XCnBl3r+3CyJlMFHwRM84U1sxIipKwaFELCB4dMeWUE7Jx6TWErDWhicdTGBWrHZO9IVxH0Kr/JwrG5BFjjxE9JwJEgAgQASJABIgAESACNUeg7gsxcihHqzUhuG7ffUJBmIcxfYeQTKcqKOrSJREgArWWAA998ngKI/YnIuOOzYunOD8dSQcn4A0WNjelN/xv1NwoeChU0zmjsC/H0XdQMdKivkarSU3x1KZ9yHZUVB6OufAGEvb9hJfF8MA/oe++dJ2nWM2NnHomAkSACBABIkAEiAARIAJEgBFQCTHsQWpqKpEhAkSACNRBAukIWNVKFwbIQ5Kk1z+hR1gK1FliqnuoZlw7OEzM+fMnn99wwFCMUZRZsgIpThisDj1sjue27HdKvKnu0VN/RIAIEAEiQASIABEgAkSgoRPQCTENHQiNnwgQgTpMgOccmm/CfyuS9oq5btZMx9bT2bD5ydTkOJnQMgJdN+3BdTs5ppjnTI9lfki644QrDEudzHIFeT6CZxZ9jyVxFw3zN9XkiKlvIkAEiAARIAJEgAgQASJABCQCOiEmLU19qg2BIgJEgAgQASJABIgAESACRIAIEAEiQASIABGoHAI6IaYunppUOSioFSJABIgAESACRIAIEAEiQASIABEgAkSACFQtAZUQU1ePr65aRNQ6ESACRIAIEAEiQASIABEgAkSACBABIkAEKocACTGVw5FaIQJEgAgQASJABIgAESACRIAIEAEiQASIQJkEVEIMK02hSWUyowJEgAgQASJABIgAESACRIAIEAEiQASIABGoEAGdEFOhVqgSESACRIAIEAEiQASIABEgAkSACBABIkAEiECZBEiIKRMRFSACRIAIEAEiQASIABEgAkSACBABIkAEiEDlENAJMSdPnqyclqkVIkAEiAARIAJEgAgQASJABIgAESACRIAIEAEVAZUQQ6cmqdjU2M2d+BAM6O6BJz5cgQ1n79eYHdQxEagyAsWXEDHjTYzt9RxmrTyCgirrqCobLkFayE/w6PsYxv8yH/F3qrKvCrRdeh1Bw9/Bv4KvoqQC1akKESACRKAuEihJWYaP/19zNGvZHUtTSuviEADkImJMB/yxUQs8NXoP8ix1dBgNzGxx7X0wGUeyacIa2NTTcIlAhQiQEFMhbFVb6YzffJhc3MWf3uvSq7azetP6XZzy6wo311ewIda5QRUen4WpriZM9D3iXIUaK8XH1g4LAi/XmBWV2nHeVix0NcGN/XwzDScqtfHqaiwPEZ7yGMqx7qrFutLriPilHR5q9Af8Y2kyiqqlU+qkvhKw5F7Aqm3h6LooAO29dsg/AZgYX40jLk2H70reN3+tZhuqcbjV19V5LOnUBILwKryT66pooaZ1fkknNBEECIKAV72TUTdHFYkfmkljEIQhCDWrx1iv7s4vQacmAoRXvVHXl2BuxA94tJGAZm96I+levZolGgwRIAJVQEAlxLD26dSkKqBcziYbpEeM+QpCf20rbcx7/x3byh0hx8WKShRiHtimMib+/nns8+mHqUOGIsyhvsLHVhuFmPu4tNsD80a8hUXlEYlqm0dMQQx2TvoY7sNnlkMUqq0eMWac9+uGh4QmeHL0fuQZLUPDTW1VbG5LcTxqL/ovDYJnGZv24tgoxSaf2xKITn57MD7qAq6TWw8AM0K3cTa2146LQ/DZhoNYl5iLQqP5foBnlpvJGO9r66vOCTHmy1i/ORxdfQ8i8gE4VHrV28EY9Ht5o91yDA5U9kY7aRMGdm2LP38fCsdN12Yh5gb2TfsEL/+1S7lEolrnEeP0XChXWe3yiCm6EInFw7uh7Z+biwKX0KwlHntnCBaEn8NdpdkVua5HQgxQgpQlXfCwIKD10FBkkWNMRVYE1SECDYaATohJS0trMIOngdYeAuYr6+HVpy3cf+kBD9cnMWtjcjmN42JF5QkxD25TGUMoPIZNI0xw6/91HRZiOPfaKBKVwV/5NvfQqbPeObbBFCd5weUhAc3/7odz9sSLahNiuHBQtueCsRBjEwC6BqQgxzbMBnrFedq42IQR9iwA721PwiV7815uahZc2b9HFMheXHsUB2/UllDZUpzes1scb5leOSVnMJp58Sw4UKuEmNvBg/B7oSXefLs9Ggtt4RlXyX4bkT+gGfMKGVKXhZjaLBKV48Pk9FyUo81qLMq9PJiHkf6nEjyp6pUQwyYmF7uHt0IjoRl6+2eCtJhqXKzUFRGoYwR0Qkwds5/MrRcESpC+7UuMZp4wR6KwepAJY9yW41y5xsYFgcoSYirDpjIGQEJMGYCq8e36IsSUZmFLn4cgNHkGU+PKuxsvx+bW6anhwoGzQkwA+u+9bm3dUpSPhJhofLhgB9p778GaBh+pKfP0DsdK699MSnArOw27d0eiC+PktQM9w66g2ErxQS7MCNvOwpHKnr8H6aX8dcuxVmulEHMbwYN+D4F5wsTPRPvGAtp6xlVuCI3Tm//aLHbUZtvKsWqdnotytFldRa2eW63R0zsal27zb5Yi5J2JwOLhw+D3oHl46p0Qw7SYQAxkHm+tx+AAhShV12qlfohAnSOgE2JSU1Pr3CCYwea8s9g5zw/vvT8Zj7H8Km/9hne+W4fVsTl2ElUWI+NgEIb0moq2rPzrU/BK/+WYF37ZwLU7C7vGT4Pp443Yn2tGZswu/PjVTDzzutRP9zG7cTyX/zXrNqKnzYLJZRI+WZYKo+/fq4HL8ZyLO96dk4B8Tvv6IfzcXcoLw/PDmFwWYZXDkBVx5MhLjMb0H+bh5c6TxLwyT3Sbj6ELDyPlNreJd8JA3UJiwCb0/kjNae3xm3Z+CWScQvDjN7PQ4Q1m3yS0+8DLfvuKrpy+lEOARn03DfEld3DU2wVufT/FzhR7LZTi1qktWDOuGyb0lXJ0jPriFbgPYKFNxkJM6c2TCPfuh6lfPSWFP/Vqj4mDOmC0vRwx5bCJ55oZN3EzrmpMvhk0WOzPmoeGiy88P4q9V5VnBheZmNfJRdw6tQnLf3oBY11NGNX3ZcyYvR6nb2o6Fm8tKLwUCX/3dzC+D+P0GMYN6oFFq/YiQ7tH53axfouvInbdCEwTeT6KMV/3wPJtCbhl7YLbw/Oj2HvVzoVxPSsba/v6C+38sXFP9/TC4cvaT5gF97ITsH/1aMwbITGyO24uvtibA/m5dl75fIv5bXhd1Xzp7YelAKkRXlgiz5to0+ABWO1/SD8Xsl2s37SCM9jj/Tk8xHX+GMYNHohN0el2vtOA4jhPPCk0wn8N3mUckmRgmu2R8ea29GIsPvPagVd2OpBGuYeN6HXAxRd7Xhvyc5WYAEgeMWohRrLtPoL8mRATikXnbdZar4rzcGDPXnwo5y951icIn22Mwe4M44CMgoyL2BzKwqV24nkx30kA3ljKwp8uGXjcyGMRx2VBZtJxjFkThJdED4ud6Okfh2NGn73y2CQLBS8EnAUst3B4XxT6Lw4UBZWOi0Px816lXUZCDCdhwfUj+/E6s80nCiG65NFFSI45YG27/YKd+PvaaKxPtv4vxBtSvPK5dEKIKb6L03HH4L4+FG/7SHNsfy4ctMvXkmZ9KIwCYLxWrWW4+CLOr/112GHNcb3gX5yHg2wOrOsjEJ1XRmJ27A2D3w2sPZbvQt7cNhsaiiKcxMz2jSG09YSRU0zkD81EL4QhuiQhBiIF3/Abei7YvBnUeVOU7dzFheAx6Pa3P6CRIKBZyw7ot+AIjPOOliDzqC++6vhnNBf7a4FWL36ECUEXofOb4htt5p2TG4fVIzrhL82ZPc3QskM/LDiSrfAa4PbY7NV7YbD3tHlTlDlVeF1nvDXYOFZjRLe2+LNok4AWrd7BkGWHkaEbSAnyz0Zi8aieePmvEiNBsDPuCs0FoMxvYx13WV5NJVcQtXi4dd5Em1jY0N5L+rmQ7WJr4P6V3fDs2Q5/bMR4tUCrd35C0EXNoKPc0ILNb0XytxRdQLCnglWzlujw4QQEnNMEM/H1wfq4ewHBY7rhb39oZGd9KD5qJZk46vsVOvJwqRat8OJHE/RjkNsfElqElA398fjvBDR71BXrUkqRe3AyOv+lOYRmj+L70CzFOpT6Kck8Ct+vOirWxov4aEIQtJgUVlkvk+Z1RGNBQBe/y7p2rYXogggQgQZNQCXE1NlTk3LiMLmXhzXBrU3IcJfFE+0cFyDebyGekRPiqsq7TMWAdamaX7hkIcZlPn6Z4YcXmQCjqfvsz/uQJusehXE78N7r7mjzdTBOa/eJyMD2X6bC5DIHv8UoflOukBBTgFPrjO1h9ukS/ZozEDxhhiRUaew3vT4bE/dma8QYM85tXIIOBuM1bF+L2cl7KQToUUzyjRE3mPkRv+DfdsOTSpAW9E/8yjfAulft5h8oubwViwfaEwuMk/WWxya+Mddu2NnwK1eIeRbzZ46ApyiqKMfzKCZMD0KmircF+bGzMU1XltV7FOMnbVKHL3AhZsAA+E58QRKrlGx7vYClYRlyD8aCikqYEOtq58K4nmMhxoL8OF/MszN/eubKBLpKRtK4VZyqS4gpvoKoOW+Lop+ekcFcyHaNGTkMC0fKeZOUc9HnH9iWoFXS2NQUI87zSQiN/hvDwxxtrlULRXFjZ3NblISfvXbgef8khRinqMYuS5Lx7wU7IG1s+Sbb/gZYDKfRbLTtCjGWfGzdxISYSGzJ1vR7Pw2+q5UJZBV9+uzByksaMYZv8u1s0P8eckHjScKFj90YExSBTgb1Xtp4ElbnFGZeeW2SRYMOK6MwdUOQYZ6cYQd4UBa3R+kRo2Bivoz5foxBIDwTFM8ttxC6zahtVjYEE+Nt64ULb+qQJwVXmYFWxHAYWuYTiS03FPZYc90YCDx8jjTrQ1m7yoSY0kxs2CCJYLrxO7RHbV1Zd1JYUjMMDZXSaB9xb41GdsKTqk+I6YxBw1/A73QiTjO8v0q7kbTlwbCKBdZ6zfCmd5L6j1B8o93tSww0sQ02F0rk12bvY9VlHsBRnUJMLg66v2gwZskuvfhlJPbwsWg4VZcQk3sQ7i/+Ts9UZGwwF7JdbfsMROeHue2KV60HB5+7Zm/CuxzZZ0tSNqDP/xnMNbNLK+rwPjoPwvAXDMaiWh/yp6skBUu6PGw8bq2tcvsDRo3GY6LoJI23rdtUfN9KYaMmV1NJyhJ0MWLEREpnkvHycb2/Cul8eZf15UDvEwEi0KAI1Ash5vruNXjJxR1veBxEak6RJCYU38aFQ5GYMmEHonPVc8qFkme/2oKdSTelvy6b7+JKTCiGfTgJps5+2HRZ6U3ChRjJI8Tlp2BEprB6ZuQl7sEw5snSeRm2crd58wWs+M4Tptd9sPi05q8LafsxtJs9kYbbyftz7BFTmBCET95i3jwz8N2yWKTkSpuz4ltXcGjjevy69RpvUHyVPHEmweWnUBy5xjnlIGmXPz7u7A6Tqz+O3FZUMZ/Doi8Yj8XwPXoD+WLzZhRknEWY3yqM1bSvqFmOSzkEyPUFrIqShClLTjD8vjAOT7p3ejFm9TFhVP/uWBOWgpui0FWKghuJiJjuoveIuZeEHb+0hVuvZzDNOwjn8yRlrLTgBlKCfoS7oUdM+WwqlxCjJMPFD6dzxEjCwuh//oDQ+GyUWO4h69B0SWwZ8AOishSNFxzEusEmjPriU2zcdx4F4tyVIv9CNHaIQsuz8A3lwgoAbou44X8cU+YH49KdElju3cCxJd1FEWH89GADjwEurpQ/Rwzn5lCIsdr1OCb/5ofY83fEz6vlXi4uHl6NVd7bNV5IN7Fv7udY7b8fqZlSWVjuISd+BRYwMcceay7KlOXZokAsXnL77NazIC/CTRQOR335FQJjr0pzUXobF/fOkwUmzVxwW9hc9HoeC9YfxY17QOntZIRNYSJZW0xdrdxly0aVJMPLRYDQYjB22fbVWosd3NsRYswXMWspF1nsVJfFhI7bk42FDCdCW4yEmPv5mdi/RxJA9DliShEXuksUHT4JPI3kAkl0sRRm48i+faJo8tz6E2qRpPQaVm6JxKxDl3H+Fv9uvodLCTHozcJ6fA4gUqVxqUWlLptiEXG5UBzjncsnMHyRViCqgE0q741gDA9PkcdShOSovaKHy3MbT0L6tJYhxMAWSmQL8bIg+/A+0funy6Y4W54X5sFy7JA47md9D+GgPO6KCjElxw+i3/Y4RFy4hdtyW/fz07FpCxOAtJ5OnGsVCTHKZcr5OpEjho+9w+pYHMuR5hm4h6zUZCzZFo31KsVN2Ul5ruWwJKE3/OUziUsO/RutGxmHJ5VLiFGawYWAsrwpoBY+Wvf0xiHmClKSj5MLpaSjgnYjmTQPHRsLaPbsSAQk35Y/80VIj1+Db0WhpQv8rMIKmJuHdCqOKA60xoANZ8AiXEryT2KhvJl+f1W6gdcAt80Zzxbl4AGJm+N6tyN/QCu2MW/2LEZuOIarsqNGUd4ZRMzth8l7NEIuojChM0tQm4gbPESnJB9n/QfBxNrRCgzcJKfngleQXzk3u3NYgiPuj0neS29ORtQleS6K0nHItzf+TxQdNHPBbWFz0exNTI5KE5PtFqWH4IdHmSjREmNUmaNzETzov8Q+GKevl0UjTePQorGaTbh8EpeA1j1nIIyvkZJ8XDnuj9HD/KCKZuLjlNdHT+9DojeSo/UheZs0w7MjA5DM56IoHfFrvpXmoosfrEtQ0b6YQDdnG/o+JItPT0/EkYIULHydnRz2Bhal8t/9kzCvY2NpbQQki+uVjbMoPR5rvjWJPMr2dOHt2j7relb0hAgQgYZMoF4IMZe3+eFZJsRMOYpM/h1qd1bl0KH3ViEwXV84I3gVXnCZjO+22/IUAFwYmYoBa1Kgjvjh76lFk/MbFuFJg/AkLoZ8vi5N432iNNi4TWUJ4Cb2TpkJk8tk9F11TuPBoy4p3V3GmsGeMPUPQILuWA0zTi6eB5PLPMw8VmCrXJiIGZ8xkWkxlidV0QG4/GSigeNgdRCyZCPCs61BeBLf9Gs2rqLF/D21Fwbf7I+fEqjxGAH4ezohoFw22drRe2cYeMTY6NrED3vigLUsH5sJo7//DUezFDtFSxbC3E1w05w0JXkVdcTyvfq4CUvmZvi4mqASVrig4Po4fvM9qPJ84OVHf++D01ab+AW3rSqEGAvywn/Ev11NGDdhvdqDh3fv9GsBTvi+oxfqeH0uftgVVHhBzSvnZq8eX0u938GGIwoPOLEZC24dnAgPNj5lWBu3pdfz8Ak4rwpDuhs7HZO1c8dNKtqFIQ8JaPrifCTxZ+V6tSPEWHKwdp0y2SlP4LoLC+RoJb6B/TBMu1N1sOHW2GbfoyIYg/ac05+aZD4Hz0U78PzmUwYCIQ9nMvCi0fQr3fLyWk8Tbn8gvoy8qvmeNRBFKmITFwp8wrHsPBeHZCPl92zeJwZ9qsZjm0OrECPPX4flR3BM8dUhVStFQngo2nsFY5b+w604pclAMFH1a/+mNPUoenrtgBh6ZS3GuRq0WxkeMdZ+mLeW88l6zWdi8HcvJjrG4YyOlbLRB7jmOTd6+0PWYYCSSPzQQjAMT6pOIab10CB1OE5JGIazI5Q1ngKSB88n2JCp/zN/SdhwMUmwSlixboRbY6gm/IOXbznmgMHpTnxD71hQMZqNsoWYdKz5oKkoPHy7Ux+SYtSm/Wd8w60Nl5JrcPHDrqBip2XOzV49vpZaDkWodTHxtkqQMFMKjVGFonFbtF4jAFIWvi4e+62aO9ZcyRXsHvOaHMLEBIwWeKqfQmDhXcqvXFgUXp3r3BHOfJxCawwNylCFUxmvjyNwb90IwicboF+CJQgbzsL53scq7obC22/WG/5iBe7Z1BJDQ/NEAVC3Xo64i+LoJxsMku3yz4VWoNRwYLdSuy9gbpJ+v2FQnB4RASLQwAiohBg29sTExLqH4PphjGKeLCx/Sa9lmOkfh+QbsseHbjSpWNRfH1qkDTVSh/U4I4xoOjL0fJHDknQeN5q6VuFHLe6oSnGR5L3VCFa5fKtK2W4MQ5+0HGZiwn7lxr0IJ1cskkK43pqBTycFYVdcuuwZY2v6Qa6kECCNKAALcoKGYLQ2PMl8BSHj7Hk1cEFAKcSU4Kp/P7i5GosE9oSYctnEnEmOz8JU7WZahqILTVLC4pt4p4UYo3HwUBzluDkLbWiO+l61+XdkCxcGDMUG3peRbcrB6q85N50QZi0q5wtSeEtZ33JwYSlIRvTK7zFTzgGkDgdSclI04nCMinLaS87NkA2A27ux7AsTRg2eBcMT2e9IyandlPUd2MKZqeaO21QUhG8EdlrSSlzkz8r1atvEq0+ikb0sFuxHENOSeKiQ1w58skfKiiRtYAMw7KDy+4N17mDDrbHNvhDDwmJ2ondoqkpw4eKPLoREGT5kEE5iyb2CzcER+ETOw6KqrytflvChHkSFbNKJLeo21Xdl2WObQ6sQw4UIJRfdtYEgInbs/Pyx0Ljz8ccwZk0wXpeTBivZ1gUhBqXpWCqHunVcHI5/R57GsQzuGaOeiYreSWFJAtSb3RJE/tACgkF4UvUJMUZiB9+wKgUGLo4owllETwb1vWrzzzfCRh4jXBgwFBt4X0a2OZ4B3cZaW/x2IAYyrwg7uXm0xfl9yZUo9THOqrErOfEa4m7cyROsFHXYJedmyAaALBY0+z7cQMQCcFJKBK06OcsBb56fRjV3CpNK8s8icvFwdGI5VcRxN8Ojrqt0YsvJmewkMAG9/SWRQ9GE8SUfp7Prg5dXsVevP0FQrBle/pudkP6kKK9rxdxr1wtnoQujU/ZpZK9mhJyFPsxNU5BuiQARaJAEdEJMXaVgzkzAsn9740UxoawUQtSu10qs0CXrrSYhhnusKMOTZHHmpYmHoYwi0TN3Qvjhwsq3u3DeGaGdl9fmhlHda4UYZlkBkoO34qtP5OS+rPxbM9Bv7kHjZMD6wTh4wkOAnsPScHXyB/OV1ZjnqglPcrjp5YKAcqNt9MxmDt/UqoWActpEQgxO+XW1K3bZaOuvjPkry8kiU78B2H1B+dz+teX2UWw2yqtizbGiXB+KdhyIH4pS+kuHaxKA3K6hcMJaM6rvwBbOzLC9KhNiSpESEYb2skhhuXkK/1qwCyM37UaHFbE4xbLTxEbp85KItJzfyBuFJqH4Li6cScD45SwPTCBsuVKAiogelpwzGOOrz3diFQzqvBBj420VxapFiCnGyT1hcvJjY751Qohha/b+DQQFR6C7nHCYrQ0mykyplGS9PCxJ8dd6+VvlduBAPCTow5NIiGEhI4pNtcyrrBftxlpXXrc515XQPXCUM0TasFezECOLKvaEE0Mh5wGEGBuQIlyInItecg6Ylt/uRJbCOUpiXw4vED4XRsKGkb28vFIU0V0r1gwvbxW0ZCFG0Z92vVSWEMO9jEiIsa0euiICRMBGoN4IMXxI5oJMJO7dgynfz5ZONXp9NjyilH+llYUY8QQkXqusVyeEEYMmbkZvwpsu7vho6TkxcZ0UljQdv4TxxIsGlcRHTvR3Mw7uH9tLRmzQLhdivtuNMg9iMqjO/tp56/wpBPquRo/uUmLkZ0eG46wuGbFhZeOHPGzDuklWe2yIngzK05MKT8B/JPOI+Q7yH+IV7RqFnhQiaVBUrCEAACAASURBVHl3USRYGKQ9zwjgYR4qIaa8NtVqIcaO6KCgZr3kgoCRd44DYQDgYldVeMTcxoGZ7e2HE1mN5xdcRDNh9PDx2H82T5Ewkttph4nDMfL2DV45N6VHi7LYzQAsZjmNqtEj5kFCk6QwFb13BBdJmKdMYWwUOvoexqGUI3jfOxSLz8uhSjoRg4GwCQNqLxslJOma92H15FAUMQpv4UKMeoOvqKS75PlbduDFtUdxUOXpINupG4O957rGxQflt8kWOmMLPzJuW3pahj33zsKd5a3xsoWN8dAc59rX9u3c/EniHOs3GKMOpyNX8f+CMRMH7dZgaJJq9KIImIQl28JkD59AfLlfGbKsKu3cDQ8l0W0aFX/NV/yVnjVae4UYO6KDEQm+EVZsfK3FjDba1jer0CPmxkZ82tRBXherDfyCi2gCWg/YgMQcZYw3t9MOE4dj5O0bvHJuVgFBU0Y+0ai6PGI0vQPpa/ABY6gMAxIddVjyaQFOiw98nM6uD17eHhetobryzgsxTo9B26d8X25Ryk479JgIEIH6SUAnxCQkGCSBrJNjNyM9eLWUxHfqMdjy9d5A0Nhp+lOLHI7RCWHEqH5hEub0mQTTgJ1IuieHJWkT4hrVcyY0CXLOF5eZ+Hek9rQjg0bNKfD+nOV70SYiNihb1qP8JHh/6Qnnjte235gleysWGZ7qoxRknsJcf35sLsuLwxLvvoYNR5UB/MoTgtQb7Vu7hmO0q+1EJm6N0nNCKcSU3yab18MYt+Wqo1Dt9cFtsHpDlOnxwUUEI7HDKDTJguzAb6WkriuPq3KMWPvWXnBBocJCzDPw2u6k24rcN/fuUPJXm3Ufqes+EccxeWG0Km+Nuhy/45wMbCnNxqE5BsmceVUuxHw9GXHKpcXft/fKudkTYu4nY8cvLIdPN/jHaxu2JfJV5evhthi0yZkZesTwZL3/0Rdb1Udo2bNe/dwacqTYxMslpM00Cz3KRdTOnegccgGQk/h+sicNp/fsRnvDZKi2Dff4OG3iS3X3joQYnrtDJbrIpzkpE82qW9TeObClOAfrNrDEu3ZyxOiea9uW78ttU2UKMTavFO6pJFpVmoaFK9jYIrDRmTBW1dBszBwJaVxs6bA6DmdU9YE7pw6JeVdUc6c4fvrno8rMnxbciI2STqdyyNwWguXILtEU7hG0IBph2o+gxlZ7t/dSj4pHuFdMzLK1WhL5g3QUsCMhRnga007Y3Fz5X+a1YR65ET/gUTEZq+Iv/7aumIIjhcNYwzGUbyqvuYhg1I5RaBLPwdESP+9zMncc3wg7u9G2msdtK4d3hVxX6+FgbdJ6IecZEV7FXKdOA3JgS1EsPNo1NjhS22qMk3NhNU664NzsCQ5cTGr5M/RTYUvkqwqD4+vCoE2+1ux62GjMA/j6UK+dGxs/RVNBgNZTRledP+DjdHZ98BwthuPmjSpeefvWMZctxFhz0/y8Tw5nUrTn9CXPHfQNdjr5UXG6aSpIBIhAvSCgEmLq6vHVyRtWY5TfIcRdvIlC+fcX5hkTv3GFKMR080qEIgUtJM8Ud7R5byGmBp9FJq9kd0orKMTAjJQ1i/AkC0+KjsbP3d2htcW4S+f64+MwdVmAidtO4op0rBGMT00qQpzPPPHo6id6rsCKw07kerkeg+kTtmFz9Dlck9uWPGNiMLW/p/qkKM1A7l/cjG8eexhC0/9Bj0UnoDyMSSpqJw+Moh2+6Rw7ZjWkLb7N42HsL3NxLOMeLPeykRTwg+JIZ7UQw/O9uPX9BFsOZ+AeO0EnYROWDrUdC2wTAipiky0PiFuf97A+KgP3UIr81DBs+Okp6zHQtj4UAxTD15gd7JQi24lOyhLSNRcYnBViAOu4e72AuUvDradF6duWn3BBodxCDCCJXUZeKHZ7E9/g82vMRqprG0d7zFq8E0lXHZ2axD2gTBj36yqcvVMClBbgxomd2Dj+Ffn4aPX6sFrIva3kU4qusbrO/OPcDEQTqfo9pKz7VOybnXa1y+jUJG0i34oKMbiPIxMeExMpDi7r2CTzWfiKJ9zckRLQFt9F0gHppCFDYUMWGD7cFQv3RUGYlshElVIcDQlBhxUxmOO/A0abcFZGDGvyMvJCUQM2FGKK7yIjNdEwNInlqtm+RTq6+tVVhxByQR6LulnFHT9RaAc6bU/CVea1IYc+TVwhH1ms2/zLQoTuuaJZ5WW5baoMIUY+1cd/lxwapD6Oms2BdLrUDrywdB9WJGZbTzVSmm587aQQc/kYerO8M95h8D0n5VS5m5eG3bsj0UXOF6MWYnjCZ7Yu4nCCnXglrsH91vJ6UUxpYTmEmNLrWLqaeesEYkDYeVyST9dStsavS47HYFDICRxUnPwkrpGEw6IQYzu9itewveZGjEGHPzaC0OIl/LrfKPmr/TwwvBW+EX562glrMn++qW325lwcvyUeNYSz/sPwxO+4F416E8zbwqXl6NqEn4xzyXrqi/V96wUXGIza4RtttacHz3PDxvpTQCJUziHWdhUXfCPs7EZbUTXKjeXOMfJCURQyuCxbiAGkk3cECK17YkaYbRzGpyZdwvKuLExKwKszjoNNBYrycCZiLvo9zo9cVnOymuX0XFhrSBecm1VA0LyPdGz49D8kPj29EW10apI2kW85hZjzq7/CxxM24tj5TMUaKkF+1hkE/yIfd/70NCi0Q8Dq+cVONdqAY5fl05zKOjXJ6fVh805q8dJPCEjM0SRS13DScSxbiLGNoQVe+ilA4wGlad/eLfcYciKpr70m6DkRIAL1m0C9EGLO+M2HNtmu9b7LUqw7qzmJwpyB4AkzRFHCWk6ZK0UXtuScMGK0VMwpoej91iR0/noBXlLmi9EU5kdwG9oj2maQv6WMcagTDgPIP41F3062z0obtsTDmZRsrNeT0HlGnMLTSDmguzg+pYOczE2A8PhviFe+za75yUia035Uxfgmt29vhKRK71huRmHNYKXHjHQ9+vtpiN4yWB/GYrmJo95vWAURa+LWPu9hw55VWKg8vrqCNsGSiwOz2LHCGrt6PY+5UwbaOSJbhGA92lhXV7WxL78QA5QgLeif4rHJurZFOzWCBGddASHGkrsby9nR0Nrxu9rpQ1fOVlfv6eF4HNryhfHzpOO8tX30ao+pI9g60NhkXXA2wUQ7DnUffC5sNmvLa4/IZp5R/gpRTlW+1zOYvlR9ShXPK6NK4CvbycUrtU3WQaA4zhNPCgIe/myTfNyx7T3VFfcS0CVt1W7i5Vqy94uYS0VxxDP3VGHPn/dPMvRaKk2Px9cGyVu1G21JiDHOL8La77I5QXeSTVk5X7Sb/5y4aMnbQjfuYPRYvvPBPWLYV1sZeWjUNlVQiNHZL3NbEIJ/HbimOUKc5T1Jg6+chFacQ019+54ezgkxyiS32vZfXB6K93WnJgH21kWHpfvw41q9dxL3utG2b7vXHpHNV7wFF/bvMcxfox234zUYAs8EpfcOb5+92jbpYq4Qo40zPxlJcwKRshVrTg/lxjZ9Az79Dy66KF5bD8DA99mpP0YCCmvVtkmX8pfY6qo9HsovxAC5iPjhUelIY0PvHo0gwTfCTm+0bVRKjrjjMdHzx2a/NB5NH1xgMLRHqqsLMylJwRL5+GwtI3avLX9+eVc8bNR+s2fxnCOPmHLPhXasinsNw5KUZfjHf7JjpxVl+HWzR/G95pQqq6eUwRrlQqByffBnhu2zfgxOX2KzZ/PYMrBLMwbrutc+Zw3xedXamxshH7dt0D6zS1merz/rMyeEmLLGYLA+bKtWuuJHbH+x3cmkxdoG6J4IEIF6T0AlxLDR1sXQJHPeRYT7rcanPaeirSwUPNFtDnpPCsPRTDt/2TbnIG7bFnz7+XQpl4xVYDDKu1JxIQaQQ5Jc3PHMvyJx2eZxrFpcFRJiWAvmW0gM2qoYxyS0+8ALQxceNk6mm38ZezSsrOKPVohBMTKORGLKD/Pwcmd2KpU7TK9PwSv9l2Pe7guaY7xVw0FZHjE8BMj4SGTeVgHifNjmWRmeBJRc3Q//iW9irKsJo/q6YJ63P07f5EdFG2y0i6/iyIpv4NHXBLdeT8F9rDvCT960JlLlHhkPYpOl4AzCZ32MCawP18cwfuRQbI1Oxx35RCXeBx+Z9dVyF2lR8+Az4gVxPNZN+gMLMayHElw/thZrxnWT7VKKBxpODyDEABYUXoqEv7u2Hzt9aEUSxb2xwFCKW6e2qMYx6ovXMMPTC4cvK5JRiFBLcO3APPgM6yB5wPRqD4/x7giPz0ZOkIFQZ50I5uBxE2cC3HSnLaltKr8Qw7qwFF7CkXWKk5x6tcekn4Zi6/5Lijw2sjEV9ohhY8jAhk8fgtDkGUx1GGNVhOSYwxi0IggviZvyQHReuR8rTt/Sb+LFAchHWHvtwCsBKbYyCoFGDFdS8lRc37mcCHftaToaLxOjTfCzPkHovjYay+Nv2P2Lp6NTkHSiB4qReuQA+vMTkxbsxMcbYxBytUgKr9LYZM1xo3uuGJzBZblskkUxrShg0Kwi545SsApEJ79w/Bh2Cgk5DsK/7mciYk8U+i/dqRMl7PftpBDD1njuBSzZHGo9MekV3z0YH3UB14uk46P1c2FBZtIxjFwu27MgCP12nMCxm8ZeSBUXYhhJtt4P6MauG3dxHuIOKD8XO8DW4GfiGtH8QUczQWV5xPCwJONjmnljSZjXkYW4qMOTcuN88VXHP6O5uPFtiTeGLMPRbIucP8aeEMOGfQHBY7qh7Z/5KTfSplW50QYqIsQwe3Nx2t8DPV/+K/6gE0o0IgnfCJdno82RoASZR33x1SvafjR98A07FyEMXrXCithFSSaOrh6Bbm1lvkIztHzsHQxZdlh9lLdYOBdxvl+hI+fZohXeGbIMhzPuy3Ohsck6hvLOhR1xgY3JgGFJ5lGsHqGY5xat8OJHExBwzkA45JysooTNSC66qNZHUTri/Wfhy65PovUfuODTAq0efxf9pm/Eiev2PxdFF4Lh2fNl/JXXs2dXRddH7mn4e/TEy3/9g14UVI6Pt2995pwQw8jknvaHh3IMinVluJ44ztzdGN6qEYTWY3BA+2sKL0OvRIAINHgCOiEmK8vxeT4NnhgBIAJEgAjUYgLFSV5weUhAk2emli/fTS0eE5lGBIgAESACRKBuEOAeY60xVOuRVDcGQFYSASJQTQR0Qkw19UvdEAEiQASIQJUQKETCHBc8JDTBk6P3I69K+qBGiQARIAJEgAgQATWBEmSGDEerRgJaDw1VHeutLkd3RIAIEAFAJ8QkJycTFyJABIgAEajLBEqvI2hQKwiNfo/XpsaQGFOX55JsJwJEgAgQgTpBgOfGafamN5w6jKtOjIqMJAJEoKoIqISYunpqUlXBoXaJABEgAnWWABNjBr+FURFZzh1hXmcHSoYTASJABIgAEah5AiUpS/B+17mwm9e75k0kC4gAEahFBEiIqUWTQaYQASJABIgAESACRIAIEAEiQASIABEgAvWbAAkx9Xt+aXREgAgQASJABIgAESACRIAIEAEiQASIQC0ioBJimF2UI6YWzQ6ZQgSIABEgAkSACBABIkAEiAARIAJEgAjUKwI6IaZejY4GQwSIABEgAkSACBABIkAEiAARIAJEgAgQgVpEQCfEZGVl1SLzyBQiQASIABEgAkSACBABIkAEiAARIAJEgAjUHwI6ISYhIaH+jI5GQgSIABEgAkSACBABIkAEiAARIAJEgAgQgVpEQCXE0PHVtWhmyBQiQASIABEgAkSACBABIkAEiAARIAJEoN4RICGm3k0pDYgIEAEiQASIABEgAkSACBABIkAEiAARqK0EVEIMM5JCk2rrVJFdRKAGCOTHYmaPvvA7lQ9LDXT/IF3mHwtC3+4eeOLDVdhy/v6DNEV1iQARIAJEgAgQASJABIgAESAClUZAJ8QUFBRUWuPUUB0hkB2BlYNMcPtpCS44ZXIODs99DW6uPRB41qkKVKguEsg/AZ/3W6Jx0+fwa3Q2zHVsDKcWz4XJxV386b/xeh2znswlAkSACBABIkAEiAARIAJEoL4S0Akx9XWg9Xlc9xJ9MKO3CW6uJowdvx5XyjvYShNiuEAj2cLsUf7M3HCuvJbZLX/n1HosH9UZU+eFI9tuKQB8bCpb2mDcN+9i9szlOH692FHtBvxeNsJG/C8aC4+gz4aLqFl/kqsInemLbt39sD7d+SkhjxjnWVFJIkAEiAARIAJEgAgQASJABKqPgE6ISUxMrL7eqadKIFCE5NU9MKrvO5j1wwtwGzAUEVfL2SwXKx7YI6b6hJic/ePg7mqC++yKCDE2gWjU4LE4mFHXfD3KOb8VKH4tYCD+p7GAp8cfws0aj0lKgXdv5tnii3XlEGIqMGyqQgSIABEgAkSACBABIkAEiAARqHICKiGGTk2qct6V38G9U9j+UxvRE+bE7hH41fU5LAoppxJTaUKM8fC4aFKZHjG8TaeFmJ+W2sKuzHeRdWoH1v7UDm6ubTB7c6qx4Q316d3D+PXxxhAe+RZBWTWuwgAgIaYqlmJR6kZ83WUcIrJKqqJ5apMIEAEiQASIABEgAkSACBABOwRIiLEDpq48lsKS2mDm+mSYMwLhO9CE8Z7bcM3eAIpvIH6zG+YMex6jxXCdthg/6BWMY6FNhh4xJciKXSmGAY3vI3mSjP7SBRP7t3E6RwwXTdRCzHns/MUEt0HjEJNjz1jg0sZP4Ob6KpbvzQJvRxnuZHSt6scqMimEGLm77MhRmOhqwrSVCbinNcF8C+d2T8a8we0winHq8xw8R/2M4GPGuVJKspNxePNEeI98BeN6MU4s/Kk7FvqF4IJB2iVpXB8jMBUoTA3FZo+/Q+Tbqx08xnhi3zmDSihBZqwfFn8vz12vdpg48jtsCj+Lu1r7kS3l8fl2NA5lmZEbtwrL3N6QbOvzHKZO8UNCtrEn0KX1PfAHoSm6LkktOyTJnIXYLZvx9WdT0VbMx+KJjv1XYHbwWdws1Rh1KhBdXdzxzuwE5F0/gSVjveHSeRJMLh5o32cV1p64DVsVLr5IOV54rhfda8/NOHBT0c+1Axj5nrZO2Z40+edisNBqjzvavjsLvT1DceCKdmXcQNDY32TvnDs4HeSPL3tOxmMuUp0B82NwsUhhj/XyPtKjgzHy61no8AazzwPtP/DCsMUxOJdvG7W1eJVfmHFxy5f4v4cENGrZAz4n8qq8R+qACBABIkAEiAARIAJEgAgQAYkACTF1eiXIYUm9PkZgCttUpyFswtP2w5PuJiJoXHtV3haVkKETYu4iZVN/jFPlV7GF9TibrJcLKCqBBJk4OPsVuA0Yhki74Sa5ODL/Dbi5SoIFb0dls4Ftqn4cCDHXQ5kH0VPw2nFJvQrM13Fo3luSAKNtv9cbWBmZoUlcK4se2rLy/bgJ63FZo3lIQszL8Jr3C2b0VzKVrkf9cwqOKQUGFCB5Yz87c9EOczec1Igx3KYu8PMZiomiOKTux8gu4BLW9/gDhKbdsfxiGZ4S+clYPuI3UYTQCSQuHnh3ZhxylBqDLMS88cNafPUBE2A0gknXpViXwoWP6hJizLiyeyO6d9LYwm1T2cSWCRdi5uG7MV54mpezvnrgHz5JUMtoZiSv88Wzrxv3UXOJhC3IPz4XnX4vQGjyOIYHX0UZM67+nNAdESACRIAIEAEiQASIABEgAhUioBJiWAupqRSmUSGSNVFJDktyGzEHiYXMADMub/8SYw3Dk27huG9XjHJtg/Fj5iHm0m2IaWqLbyMjbgUWDNR7xNw+Mg1Te5sw6sve2BJ9EbfFCiXIT49F0MTnH9AjpginV3a3iizG+GQx4eufEX1DXYKLMhUKTSq+jbTDS+HzTRsY5YjJDP8BE1zbYOIEX8RdvSuJLsU5OBc5E3OYaDJkEmJVIkk2jvh+h2Xrw5F89ba8mS1BbpI//Ia0gVuvngg8q1ZiJCFGEkbG/TgOu2OvotAMlNyIxqafnoaba2esP3LbOuh7p3wwo5cJ4350R+SpbKkP811kHFuLJayPvv0Rcl7ZBxdiWB9sLAtwKJnVM+N2sj+WslOy+g7Abo0GheuBGPiIAOHdJXCsw5iRvGaRKES0dV2PgKQcFDLR5X424reul4WNuZgZq5AkZCFGFGDemo0R608ho7AUJQWXsHXsdFHQeXvGcdyyjppfcFGmbM8WXkN65aKJg3rZRzH+YyYKTUU/v3hczWcMzSi4dAxewySRqd3P+5BuFZR4m5Ko0mFYEGIyilBqvotz21fhFSa29NuBE0oXJXMyvD+fBNM7vvA7dgP5otphRsG1FIQuXYl/b9csbvUgyr4rTsKcFwUIgqOf/8ToaOOm7l3djV/aPQSh0e/x2pQDoEglY070lAgQASJABIgAESACRIAIVBYBnRBTWQ1TO1VPgJ+WNHV5PHg0RGnqcszpbRCexD1DBrsjVhuFwN9TecTwxLtvYs1BbQX+nnPHV3PRROWpAuBqwFcYK4cdibSubIJ3XxNs45HDl76fiyQ+QBkrb9NpIUbnrfI4Jo6biyPXtKcmXZG8iobPwEmFhiB1a8b59R/rRBL7M83LS6FVynKSENMGHrODka4xQXpPWScf8YvfgduAwdijda1hB0OJIVZazx4uxLTD3HXHcUup0fCwJdnTSGkXTs1G+8YCWv8rwkAQUZS8exIzXJm4sBTrUrVnKplxYctSPOviDpWwwoWYroux5LgyDAnAhQgMfMdAxBC7rDoh5vI2P72dfJj5JzD1s0kwve6LdZe5EmMTYjqMDEeKcl2aT2OuqztM76zADuVp2XcTMLUne+6Llcnc44d3UgmvDyjEMAss+fFY/FErCEITtBmwHsnKcVWCidQEESACRIAIEAEiQASIABEgAjYCOiEmLS3N9i5d1WICcliSayesi7F5TsB8DkGj2ujCk+6d8sI0VxMmGp0yZCTE3DuJrf8ywe3bUTiYqcVQOUJMXvSv8BC9d6TYJClUyIRRP3hJwktRAvxHSkdya1flgwsxkqfI+F+mIUZ5ahJnoRNulGE9SpFEZnP3Io6s/wVzhvLcO47L68UWLWPlvSxIObTJBLXQxYUYKaxL2ZrD6xPT8IQg4OmJR3DHUcGUUHz2ljvafh9hnI+ICyvDwmGNPONCjPKZtQ9ZbOm+Frt155FXlRBzC3unzIDJZQ6mxORbLbFdFCJm9iyYXGbB4wD/jHEhRvmM17BnZyFO+PlIYUxvzYCrZzB2H8+QPWN43VrwWnoDB91d8JDQCA+3+xeCr1KgUi2YFTKBCBABIkAEiAARIAJEoB4S0AkxCQkJ9XCY9XBIPCxp6GTE8T2iOMwinFn5Ptw04Um58nHPM9af1cPg4oPSI8bombVm5QgxuLgKc3pxAeE6oqa/gCmThmB6nw+w9WQRINswaV4kcq19SxflFmKUpyahBPmXYxA2v4eYc0WVK4WP26HooRFi7iZi5zh2ApNSfFFea8pDnYRYMzSD21ooxMiiisrjRWk5T5qrFF2cEWIMj6i2J3AoOzS65qKJvdCkst4HTi2eWwlCDLNNndhXCs+agS/mH6qhZL0GvEpv4NCUTvg9CTEGcOgRESACRIAIEAEiQASIABGoPAIqIYaOr648sFXdEg9Lsr/5V4cn3TwwAR6uJrjPjdCJGsgMx/JvNTlicvdj9WDpVKPDOg+FLByc/arTOWL46URqjw0WUxOBlYNMEMOLxOvOWB99GNt+fBzTVyagSA5V0tUDrCcoOR2apBJi5NkxJyPgJ+b1w04Wkp9xIcaovJ1JlXLKmDBq8I8IO3ldzPXCi9rzfLH3nNdTv8pCjNJOdQGDuwfziCkzNCkpCO+/XokeMTysR3sKkjiyqhJisrBr/LRq8IhRTs993Ew9hR2LV+HD7h5iwuIOP0bgvDa6S1mlrOtKCE1CUSo29qXQpLJQ0/tEgAgQASJABIgAESACRKAyCJAQUxkUq70NMy5ucjU+1UfplTFwBPbxc6wvrcJclnj35yVIVeYLYScEzX9bakvpEYOLCB7DEs3yE5n4IM3I3PdveLLjrl2dyRHDk/I+h0Uh1iAVuTFJYBg7fj1SYn/DlGFTcPy2VF4MTzqzHLOUOWS4CQohZuLMUHANRfG27dKRsCKHPqmEGC7O6JLf2prUXkmiigkz1p5Rn6ZkvoUTS7tZj99W1iufECOfMOX6lkG+HmWryusKCjE8Wa/LHJx2lCckLxbjP2R5T5Zjqy2TrWyALZFvd58zttOcHHjE5B/2xztM2PlnOK7wdCzW4XAhZhFWXtK9aS2lvyjb4yVljQ+ecHFHt/mJmpOOmFAoJ/JV5XzhbZYnNElvmfgk/xTmfuEpH4Vtp4wzjx9QiKFkvc5ApjJEgAgQASJABIgAESACRKDyCKiEGNbsyZMnK691aqkCBAqQsOhDtHpIQPPHB2FLqsFu2E4eGFtnPHSoI3x3y0oMD2Vy7YgFm44jp9iMwvTDCHR/xSboqIQYnoPGhF8nLkdidjFKC9NxfMO3mCiKMEZCzCVE+P6G8CPyCUvsVJ9D86SThgyFDVlg+N4d2+d1gueCaDFB7L2T8zGtV3esWvovuLt+iO3JSuVIHqUc1uTW/1Nstp7oZCNgvTIUYtjJTyew18cgNAlFOLP6I5HJ6O++Q+AhflqUtUXdxeUtvcXyY928cSK7GDDfRdaZPdju+QZGi8LYg4YmAVavmy97Ym1IAjLvGjBRWVZBIQYXsKp7CwjCu1ji8NikXERMmSmedNThm60INjo1SZvIlwsxffyx//JN6ZQl811c2h+I/n9nJxdNh1tYNvRSC/dc8cC7nlFIyioyKKMavHzDRRN7oUlASXIoerOjq1+fiWHrEgxPTVKHX/E2yyHEXDuEqRO2Y8uBVGSIpzIx85hnzGF4fO6pT+5rNJQqeWZBfvxifNSKjq+uErzUKBEgAkSACBABIkAEiAARsENAJ8TYoLozJgAAIABJREFUKUePq4tAdjiG/812DG3XFdo0tQA/GYl5klyxYxfPCfPr1J2QDnAx49ru7zFB6TEjXrfD3PU7sc1NE5oEoPRqIJZ8pcx1Il2PG7ME+1Z/auARcwFBrB2jPjactHlGWG3m3jKsjkKs4J4qrJ0BwxCpdaRh9c0XETbROC+LKpSJCzE6myQ7R309GKFnNMcjlZXzRRO2dC95FeazY611fbSD54g31CdDyWMvn0cMG+91HJr3lk000/alC1uqqBADXFrfA38QBLw44yTEU9Gt86W+KLlyAL98LIXXiDlPXKQjncXr16fhu00XrKd5iTW5EKMsZ732wLsz45CjV2HEqtmRG/AGOxraWl6+1oQyZQSvwgvaMqp7rYByB8eWLsSzRm27uOOJz/0Rna00qiJCzAGMfM/AdtEuD7w7O97xCVVq7JV0Z8bFLV/i/x4S0KhlD/ic0J6MVkndUDNEgAgQASJABIgAESACRIAI6AiQEKNDUtMPyvKI4WFJT2H+9ov2jb0egqVMRFGGJ+EuLoZPwdxvHoebaxuMG/YNNoWn4C5kAUXlESM1XZgahPVjXhE9O0b174wFS0NwvgC4tMlIiClBVuxKLBvVGeP7MGGiLcYP7Yd1u85ojk+2mS0dYa3J0wKFQCOGK9nKK69KbyVj36L+mPwlG49NCClTiOnVDhP/6Ypl6yNw4aYdzxJHpyBphBjAjNy45Vj8vXxiUq928PjlZwQdyUCmmCRZITLJAyi3EMPqmXOQFDwdC0e+gnG9bOMVx16JQgzyD2Bsm8YQHvkWQVkWJXLddUluCnbMWYpu3SeL3jGmt37Du9+tx7q4XOjO3DESYl6fgle/WAHv8Eu4o9Q7dD3dR3p0IL7rMw1PK0WTBxZiWEes7WCM/HoWOrzBBBMPtP/AC8MWxxgk0q2AEMPaj4mA58i5eKkz8/xhHjjOjlsHotIeFJ5cBtcu4xCRpZupSuuDGiICRIAIEAEiQASIABEgAkRAT0AnxNCpSXpI9IQINDQC1wIG4n8aC3jk2yCUocU4j4YLMcqTlJyvTSWJABEgAkSACBABIkAEiAARIAL1goBKiKFTk+rFnNIgiMCDEzBfwdYB/4PGwiPos+EiHuRQH6sxJMRYUdAFESACRIAIEAEiQASIABEgAg2XAAkxDXfuaeREwDGB/FhMe/VhCE3bYEjA5QcXY0iIccyb3iUCRIAIEAEiQASIABEgAkSgQRBQCTFsxBSa1CDmnQZJBJwjwMSY9wZg7bm7cJwtxonmSIhxAhIVIQJEgAgQASJABIgAESACRKC+E9AJMWlp+lN66jsEGh8RIAJEgAgQASJABIgAESACRIAIEAEiQASqg4BOiKmOTqkPIkAEiAARIAJEgAgQASJABIgAESACRIAINEQCOiEmNTW1IXKgMRMBIkAEiAARIAJEgAgQASJABIgAESACRKDKCaiEGDo1qcp5UwdEgAgQASJABIgAESACRIAIEAEiQASIQAMmQEJMA558GjoRIAJEgAgQASJABIgAESACRIAIEAEiUL0ESIipXt7UGxEgAkSACBABIkAEiAARIAJEgAgQASLQgAmohBjGITExsQHjoKETASJABIgAESACRIAIEAEiQASIABEgAkSg6gjohJiq64paJgJEgAgQASJABIgAESACRIAIEAEiQASIQMMmoBNiCgoKGjaRWjJ6c/ZRLPnuTZhaNIEgCOi6Iq2WWEZmEAEiQASIABEgAkSACBABIkAEiAARIAIVJaATYhISEiraFtWrLAJ5URj9pCTAMBGGhJjKAkvtEAEiQASIABEgAkSACBABIkAEiAARqFkCKiGGjq+u2cngvWeHD8ffBAFNnxqBbWfyUMLfoFciQASIABEgAkSACBABIkAEiAARIAJEoE4TICGmFk5f2uZe+JPwFwwKyaqF1pFJRIAIEAEiQASIABEgAkSACBABIkAEiEBFCaiEGNYIhSZVFGXl1UvxfgmC0AZuUTcrr1FqiQgQASJABIgAESACRIAIEAEiQASIABGocQI6IYaS9db4nICEmJqfA7KACBABIkAEiAARIAJEgAgQASJABIhAVRDQCTFV0Qm1WT4CJMSUjxeVJgJEgAgQASJABIgAESACRIAIEAEiUFcI6ISYxMTEumJ7PbSzGLcv7cGElx6G0KI3/DPq4RBpSESACBABIkAEiAARIAJEgAgQASJABBowAZUQQ6cm1dxKkLxgpKOqm/9vd7iHXkRRzZlDPRMBIkAEiAARIAJEgAgQASJABIgAESACVUCAhJgqgFqRJpVCTNM/voKfg0iIqQhHqkMEiAARIAJEgAgQASJABIgAESACRKA2EyAhpjbNjvkubiSsxVemJhD+9AV23KhNxpEtRIAIEAEiQASIABEgAkSACBABIkAEiMCDElAJMayx5OTkB22T6j8QATOS5nSEIDyBsQdvPVBLVJkIEAEiQASIABEgAkSACBABIkAEiAARqF0EdEJM7TKvYVpDpyY1zHmnURMBIkAEiAARIAJEgAgQASJABIhA/SegE2KysrLq/6hr+QhJiKnlE0TmEQEiQASIABEgAkSACBABIkAEiAARqCABnRCTkJBQwaaoWmURICGmskhSO0SACBABIkAEiAARIAJEgAgQASJABGoXAZUQQ8dX147JISGmdswDWUEEiAARIAJEgAgQASJABIgAESACRKCyCZAQU9lEK6G9zF2D0Upogd7+GZXQGjVBBIgAESACRIAIEAEiQASIABEgAkSACNQWAiohhhlFoUk1PzWFcZPxjCCg6VMjsO1MHkpq3iSygAgQASJABIgAESACRIAIEAEiQASIABGoBAI6IaYS2qQmHpRAYRIWdW0BQRCsP11XpD1oq1SfCBABIkAEiAARIAJEgAgQASJABIgAEahhAiTE1PAE2OvefPM0to3+O57474dEMYaEGHuk6DkRIAJEgAgQASJABIgAESACRIAIEIG6Q0AnxJw8ebLuWE+WEgEiQASIABEgAkSACBABIkAEiAARIAJEoA4RUAkxdGpSHZo5MpUIEAEiQASIABEgAkSACBABIkAEiAARqHMESIipc1NGBhMBIkAEiAARIAJEgAgQASJABIgAESACdZWASohhg6BTk+rqVJLdRIAIEAEiQASIABEgAkSACBABIkAEiEBtJ6ATYtLS6HSe2j5pZF/DJmCxmGExFze8n1IzAEvDnnwaPREgAkSgkglYLKWwlFbg/5TSEvpOruS5oOaIABEgAkSg4RDQCTENZ+i1d6Rms5k8k2rv9NSYZZbSEpjv30HJvdsN+qfUfL/G5oA6JgJEgAjUFwJMgDEX333g/09KS4rqCxIaBxEgAkSACBCBaiOgE2LII6ba2NvtiIQYu2ga7Bul5mKU3Mt/4F+Y64uIQ2JMg/0o0MCJABGoBAKWUjPM9wsq7f8UEmMqYVKoCSJABIgAEWhQBHRCDOWIqfn5JyGm5uegtllQGX+1rC8ijDSOfHKJr22LVGuPORehAaF4eUEgPg1JRa72fbonAkSgagmU3kDI950xYmcaWBCR8l+p+V6liTD8/xbmYUP/iEDtIVCMM74f4IPfjiGn9hhFlhABIkAErARUQgwdX23lUuMX58+fr3EbGqoBpWFrYXKZhI9XXqwdCJj7+H3yhuG/7PNX9hdd+ldzBE7v2Y32XiHwSLhjbETOGYzx3YH2XjvQfulB7LtlXIyeEgEiUAUESjOxd1R7NBN+j7/7noY2eMhcXHneMNbvZHNxFQyEmiQCFSWQg7Dhf4UgNEenRcmg1VlRjlSPCBCBqiJAQkxVkaV26yyB2ijE8F906dWWH4clLK7N/24ci0InJkLY+ekWeK5Oe4mUKcTUB48YSy62f9EMgiBAaPRXuB9xtOLu4lzYAgx55zG0bCaIdZr/uS26DV+MyAvabTBvpxi3zgRgwkcvolULqY7Q/M9o220EVh/NVHkxlIQOkexgthj9NP8Re3mz7LUkFEOMylmfNcePqgrKyuW7NuclYt+yEZg1pANGu5rg5toG4779AItWhuBsrtYXo3xtS6Wv4OCiAZj69VfYdcVx/bNrusNNtIHZIf983hGTfhwK/4izyK80p42bOLXlJ8wa8j7WHsxzbFS1v1uKiyu6o5nQGG1/3gsj66oi3xjzslH/s6Aw+yLW7QjHB4sC5O/CQLy9IhKzYq4ir45o6QUXT2Li2l34cNtpZKgHWEN3hTi/ZyGGdnkMj8jfNc0eeQxdhi3EnvOFNWRT9XSbETEZPV5qjW6LzjnXYfEZ+LzNvsP/hhHh5BfjHDQqRQSIQHURUAkxrNOTJ09WV9/UjwMCzDuJ/tUMgdomxLBTkkiAsQkwnAVLXlyb/zV4IaY2T46Ttllyt+OLZo3wl7ffwtNCY7Sfaef/R0sWQoe2NhZIBAFNOi2FzsfRkoUj099FC6swohFYNMJK7RRizMg6NBuzBjxmEz24+CG/enhH4aaTvO0XS8L2kUxU+RwhFRFirDY9C2//ZJ13iP1+Hb2TgajpL8LN9U2sqWVCjPnMArzeTMBD7/rirJ2vyarIOabO3XUfF2IP4OMF9sToUCy64Ihv7Xkv7+RB/N1rB97aWhuEGO7lofm+4N8jry+CkxJF7QFcDkvO+bwmfs++7qwQw9rOCcF3jwgQmvfDdtJiykGbihIBIlDVBHRCTFV3SO07R4By9TjHqSpKkRCjFz24+FGbXuuKEDNgf3ZVLNMab7NMj5gat/BBDbAgd/sXaMY8YQ7HwbOtgMbtZ0IvxcjlBAGNTL3he+gK8vnmtzAHiWELMGzEao0QY0Hmlt5oxjZPjUzoPTcSZ/Jkr5ni27iRGIYZfacjys4QSpO98Io9gceoTmkyvF4RIDTphKU6RciognPPCk/5Yk4/yQNmwujfsP9Uhjx2M+5mpyJu61gsXBJdA0KMWhwpvnUBR1YPwIReJrgN9URcpYTJ1VIhxpKDrX2bQWj8BDxj+ULUz2dVCzFF54/hc28mwgTik+3xOHj1LsQ/L5XeR27GRWwNisaaWhL9q6ejflKbhJhbAQOl742/fYaFB68gnzuGFuYiac9CDBu2goQY9fSJdznb+orc/nf8YQpRMuBDj4gAEagZAiTE1Ax3h73WyWS994B5rwFCY2D8IePhRbkBggB8F6J43wJkJQCz/wk8+xfpfaEp8NibgNcBQOe5XAC4PwP8V18g3QKc3gR0ewpoKgBN/wR8OhO4rquk6M+JS2MhxoKsI9vR8013mN6ahfF79KlH756Nxq+DpuMZF3eYXDzQ8eOFcNtwCqptuOU61g1j73tiZPBtA2ssOLFwjpijpu+Ga+L75faIybmMvcHxiEjKqp2eNEVZSNx7AtsC4+WfE4g8k622teA6ju/h70uvoSduqMrUNyHGJmzkI/N0HEatCsLzLKxpwU584n8ccbftxVSU4FpiHEatCcFr4sYnAK8uDcf4/ReRafBZMOdehn9wJD7koQKs/c0xCEi9A+MeSpF3IQmzNoaik4/01+0OC4PxrlhfnyNGGof6r+D2w7BuIXRbENp7hWNNRhGSj8ZgiF8gOnjtQIeFIfgm5AxStdEO7FNhvo246AP4ym+nxEgX/qW3y+DD5vgRD0tq8SMiS8yI82wLoXF76J1iShA+grm+N0EnZ1WOon34uSX7i/bvMXCbOgTJsVHSu7VDiElDhGcHMQxp8oJ9yDZePIbDKb4Wje2e72J8H0nEkcKYwnFZFVXBvWDk8CKrV4vmfrA7YhWxN1JoklqIEY0wJ2DrCBPcvnbDQeuX8jkEj3kSbq4vY/le60OFzXdx0q8bRrk+A5/ANJSCiy8aG3S2GXnumHEzaSvWjHoNY5kg5PoEfv1nb6zYFo+bdtgxToHTP4XngLaix9Ho/q9iuud8HDiXb+ezCpTET8VTgoA/fhNkGJLEB1elQkxpDvw3BYqhSB8EpzofglRagJMxMfjXip14QfxMB+C1ZZH47cAl/XfZ9Xh8JXuppN++gg07wvGu6H3D6uyFb9It/e8PAEoLrmN32F585rtT/J5p770T763eD79TeZJQJAPi4ou90FL+/OPwdI7U+lqSd0kVjtXBJwg9Nh5G4PkCQ5usFcu8sCDyBylUslweIazdwvPY+UsXtJZDIKVQppU45shDhNVx74GXWreQvP2aPYLnergjSBf+ZEHYcCYqj0A4c0CJXYGhXVpL3n6szoCFxv0U30DMwi/w3CNy+GeL1niphzt2XebqkgSEe8EYhmRyTyChEUawzu3+O4WZ7ZiN72HlVbuF5DdyEPbDY2gm/AHdllBumbJo0ftEgAhUnIBOiCFPjIrDrKyadVKIAXBphSSItB0P3NXCuA24mQDhL0BIluLNbOBTQRZgtK+NgX/uVpRll7IQI/wVGDNM6o+JO8qfN30MBBxNM45ujYSY+4nBkgjjMgNjdCKMBVlha/GKKMAwkUX94+IRoxBjLMjbuRKPu7jjybEHoPvDrCURM3sysWcVgmR//nILMZnnEbg+BjuOZ6qEiwfyZslLw6Hwk9ibVAltFmXi2M4jWLfnPC5cuYa0Kxm4nntTbWtRHnLS2XvXkHb2LAI2xGBTTIaqTP0UYnbiyy0R6CIKKmoxw2XzKVzRbtjMudgTtBsv64QIVlcvRtw5H49hi9Xt8g1Fe+9d8Ii/rdnglSI9NtrQHqmevo+KCTG78M8tYQbjCMDHuy5CLVnewu7twdImynDcxmN39Jk3ek8KSxLQ4sdIMVeLOXo0WhqGJ5Ui2esVcaPycNclSLHvhGDtpih0iPjX2cYd5yPJ+tT5i1ohxKSuwtzPTXDrNwjhadqFaX8sBfELMVv0otGLGeN/XYNzVjGmkoWYwqPYOMwEt+9n49T///8I/5cePBjjXU2YODtcf7IKr/P1KFm8qagQY8a1sJ/hLgow2nG3gZGQZT67Bl72Qr7GrIF++89GVIL4qU9BEP6IoaHsZDn7/6pSiCnNiMfX7Dts0V5sv27fBtU7965jm7/9z/W725KQphSWZSHm1dX7MGwZzz+j+G7z2YM1lzXr8u4lLFhlUJZ9jyzejxCFFldRIaY0MxE/L7bTx4rYCn3elZy4KNG80yIkq/UKZTH1dU4Yhv/VTijT30bAKHVK8Zk1+NReHV34kyzECC9h8L8/xV+t4oitz+YfrYVK/7DmbrGVsQotzTthkWJwfMzW9w3aF8oUYgCpnUb4aG0Zi/LKcnTlffzBza5nohoy3REBIkAEyk9AJcTQqUnlB1hVNeqiIGbJAgb+J9C4LXBIo8TcjgJMAqATaXKA4f8AVh8AcuRfji33gLjFwCOC7PmihMyFGCa+NAa6egKJmdJJxpdCgWcEoJkLcEZZp5zXWiGm+NpBuP2DiStGIgyAvCgMf9Mdj37oh6UHrkHaRxTj1ukYeH7lAZPLNHgcUPzGdP8YJnRzh+n1FdihSZ5gObYNb7m444Xpx63us7VCiMm+iJANMfA/el0lhlRI3JGFmI3RV3HnnhNhUDmXELqxMoWYa9jev6XdfB78l72eG9jCqvg/niPG2dAkpYDRwS8a2y/cQQlKkHU6Fl8wTxSfSGzTmMT7aL8wDB4HLyH9Htt4lKIgOx1h4dHwOqk40ch8HevWs79SB6D79lM4lXtfFF3u56VhW4As5iw7jMOKTao5LR7fsr4XhGLi4avI5O3fvIGQHcGGYo+K2KVj+NRrB8r2iJE2UC5rj+Jg1n2wpJ+pMVGSALQ8Bsesm3PAfOEYXL13oMOSvVh5Og+FbMglt5Fw6AA+9dmBl9YfR/IDp9ji4UYPYeBOWQaSvViMwpMsmdvxhfyX5t+9MASrDl1zkIekFElzXoBgKOqo6Nm9qQ1CTGb4j5jgasJYz224YddSzRuFsdg84jG4DfgE63efxk1RtDLj7pXD2OnpovA80dQDF2WMPE3UZfUeMWbczYjHnnnvY6yrQY6YnAisHGSC21c/IUrz+So8Nh2TXU2Y4nsUik+S3CEXZQy8b9QmAWnbsHCACaMHDUFQbAaKRH2gGNmng7D+p2fg5toFG2OVwokZyWv+IfKYtz4W1+VYN3NBBpIjFmHJXH9I/pKajsxnseB1AcLvvkGwsjlNMXZblUJM7okD6OK1A69uPIlLBn3rH1lw9fA+uDBPuCX7sP5sHgqY6GK+g9NHD6PfQvb9EIwJ8YpByUKMJAgH48eoK8gsZl8FaVi5Yaf4PTdgv3rDzcWVt7acxOmb9yTvFHMhrpw5hbnbDmO3QohR2mitV2aOGAsu7d+DDl4B6BV6DlfkeSu9dxtnTsRh/NZ4nFY2XJHrnAAMlL9rmj83CCsPpsu/c9hr7BYCBkrJaj9beBDp8ndpcX4K9ox/WxSE/zw62vr7htTKOfi8Jgkkf/tsFvak5EvvF+fjctwm/KILf+JCjL5OYeo69GX5WRp9BKX+cWpmO/E0o+d+DEIKj68qvIq4lQNFIafReyvVwo08PC7KlNsjiNU/Mx8vsRDSfts14r6WHXnEaInQPREgAlVDgISYquH6wK3W1WS9wd8ahyeJYUmNgd+OO4nmDjD+CUB4HIhXVuFCzO+AKYc0ni/8PW0dZX0nrlVCTOZhmwizO1PzywprzIL0jb4wvTYbM2IVYovcjyVxJ7ozYWX2CUXPtvCjLzcrtzAWRM/4DabX5sJbkYiChJi6LcRYPU403htagYYLMR38DiIyV/mX3DwEb2XhO6GYk6w4fcd8HavWMmElBBN1niyK5SZfFqYcQU/v/4+9dwGvqjj3/3dLlOP/4fjnaT2eg7XSaqnH1lpP0ba06s/q0R5b7WlFPVp7bP1LrcfaU20tWqslwXARQe4gRIJcFBC5X8NF5A4hQLgFCBA0XEJCQggEkLDD9/+btda71sysWWuvHXaSnfD6PLhX9p41885nZt6Z9a533gkwVMQr8OEU8fAie7jUY/vihfjW4Fn43cqjmqcMYMsrp/eXiSQMMd97byN2yNuQ4gcwPNdvgCLj038tKVNOFQIOYdRY8cAmtjkZZEnmK9qWdMkTIDsMcAYLnhaxN0zbk4CzJXPwfGfHhV8s9i//Jp54aymK3YAxJMA5LHhaPLBk4BeT5PFPvyf+TAdDDJ1OpATj3TEcfbRtOvLvx1f9HVld/w2jFx7y9Sccmo1RTwQZdpI1xOheJx3x4q9+inHzdhpOTfK2Hw2fK3ecaqwf0gUvPvwgZhote9ENMSVTH8ZLXe/Dh1sli6LTzPGtg9Cra0f0zimQPElPofDt/4MXu96AgZP9R08H9pC6PPzPpTG0uWkAtgYmsn9oTENM6ceLrW1Jd88qDt0e5YpYdxg542fim0PzMGK3bkU9j7J8+wQ6JViua4iZi+7rK5UtP2QI0ssvz1+O28R2pqmad40riPkiuiHmHHYszrOMQA/l7TcY78z5J/tt3Sfz8OdbPF0Ta3cDfvXmYs+gIWd4eDx+Govh6z03GNYvRRjUOYbYP/0Na6R76lb8BVcIj5AuQyJ63ZAhpi3uGLJNMwzRb13gxdddjVeuiOFzD03xe6GhDvO6+Q03JN4FGWLO5+FZUa9bhmAnZcifTIAJMIFmJKAYYoQcLdEToxn5cdEaAaPni7Mt6dJbga2ya7Fz74mdwBtPANe0V7cYWduNdKNKiowtmtjKn64hJmcVRloeLW/gJaMRRtxWj4V/V7ci6VuTxN9fzVLPvT1fNBf3f68HvvK7PLiHgNRvRNa/a98JU4/h1KQzFaUoWLsLqzcdQNVpzavE3ZpUhvLde7BapBP/CkpRUWunPVt5ABvX7kLBngp8pnmlnPi0BGvX7kVJVTUq9+y1712xBZMmrMX4OTu8/NbuwpZPqhQPmfLdxcrva3ceQZ2W/7lm94hRmrvR/iCDQbKGGN1AA1AcFc3oUbYV/yPeFL+bj236s4uhVns/XozvDJ6J3yw3BwX4ZPVS6420V34lPpwsjDNmw0ZqDTFa3Sz5zYaVQI+YVStwv4gRoXnQGFAk/Iq2JWX8YpLi7WFvKQo5PQl1OL4zD0Of/oF7hHXsH76Gx9/fJRmNLl5DDBlv3GOlNaON9b1x200KDDGirP+6HTlzdvu8leLbh6PvQx3xcuYHOEg20OrlGPdb7Tul50Q1xFA6g3FIqr9ssBLFeIGQO6HHiy9hxpICHPQZ9RSBgLPz0C0mTkt6B4kOJFIMMdUHsZnmCedz8/5KRbfb3o/VzpyyGxv3HcVZTbfTqUlJG2KObsVzw2bgW2M3mD1GjhWhu9hSKW/tIUOM/J2DI9BwcmIPejvbmDqPXoLey3dha4XjGaOhlP8MzE9O5Fx/VlqIZywPnpm47d2PMXxtCfYmajdDPom/qsOJXYsx/Hc/dI+wjl16LR6ZoMY0OZ/3bELvT4rtQmVu6tUJYqvPY9PVTaH0u//TZGzxp3K/KR6G79PWn8BP2XDj3ulsL4qhQR4x2IRenbxYNl6ufMUEmAATaB4CPkNMRYUcwKN5hOJSgb17U3i0RVMCPQ3066xuTyLjzE8n+gU5vhb4dobBAENxX5rREPOjbiOsuC9f+eUMbPK/yHQq0zBDDM4fwNhuPdDx+yMx/hM7q7MfT8K3DUF8TYaY2v07MXncWuRM340DjnHF3SbkGGLeW1iEZUt3YOWGYqzfsAPTPtiMpYWHUPNZDc5WHcDymWsxPq8E5adkQ04FdiwpwIRZu7Dv2HFU7duH9eL+1VsxeeJaTJhXZP9t5VmM7QeOOYv14ziyew+WLN2O1c5v69duw9RZ25G/6whOywv2i8wQ4xk2/P1f/oY8YvzpAwwxjrfJj2bukmIQyTmq14kMJ2Q48sp3DCGjV2GZL5hRqj1iohtiEK/EzKnCQ0iKB+Fez8bTy8sgO9aoFKL8RduS/B4r56s+wMOxoNOTtLxPFSOv73/iKvGg8bkOeHYhBfiOY0V3sTWuDbqM2KXdFO3PdPCIKZ31JF7p2hGvvTHvqtKKAAAgAElEQVTP3P8c7xjZwNB0hhh1u5C9pWcgBv36q3jx4R9jSoG0xUUgj+/EnL98XYl3c+zjv6JHYBBfcRMZWNSy/C1I6ZIzxIh8anfOxqTXbneC+4r7O6HHX/tieVCw3oYYYk4ewe51WzB1zg6szy92/239xGSIqcLe5QXIGbcWH+aX+Yz4ZIg5vOYjK97TDz/YHhDLRqPkGFUUjxc5yYk9eH10Cgwx4tWJEtjX1iGdRy/FSC1Yr1x8MoYYcd+ZgzsxdMoCfNeN9TUTt41bhekXHKxXlkq6Pr0Xi9+k2Cz/hKfne8b25A0xZFS5BUMiu43QPWbjiSSpfdlshhjHA8gJKuyTi79gAkyACTQxAZ8hponL5+IMBFpqsF6qyo6BtmGl+0r7G2tb0j8CE/XN4ueA3P+w0/7by8Be+WEvyPMl6HsqPAWfrkfM2GJse2eoFVi305PzsMO/88jziPn+UIzenUzhFLQ3Ez8bK87wPIuPe/VGx3snY4VWjskQc6a8FPmrd2FlQSmqFENKDc45hpix07di5dbDThyWcmxdtAG5U3dgd7UwvBzH4fxNGDNpKwqPeIFy6yr2YfbEDVi49QhOycaTBDFizh47iJWz8jF9wyHvvpOHkD87Hzkzd+OgbCxqdkNMeseI8Qwh1J8CDDEHNuHXwgNkwsZIcRh2Ls2zYhdE94g5jHfenYFvDlmMiWqoBavfb120QNvKRPJKn5G3JiVhiKnciVdGzcDt4z9CtzHOqUlDZuGe8SswoahG8jyR5EjmkrYlBb6pjQVuT/IXU4/9OXdZb6Q975rzODj2P+zvfjoh2oOqlnE6GGIofsqLz/bFZs2uYYkbaIhJZLjQKmv9maxHjLmMwwt/j1e7dsRbU10/RLcwO2jvtRg4tQT1qMKat76PwLpZd5GBxVyWm7FrsEkc38a7R70Sx28Xzh+C0S98B92FF82vnsSCPQY3OMcQk9TWpCP7MPu9dZheECX+VzXKdxVj5epdKAjxiKkV2yCFcXTUCizR4qCpNXP+Ki/EUyLuU2N7xEiFW3FbtmzBW67BZC5eyjcLm6whhoo5V1uJgg0b8Or4ufYpUMMWYbSp3eiGC/wszb3H0iufu38CSGWTISYZD5LVr1xhecSEn0IkC9swQ8znohfgFsZbk1wUfMEEmEArIOAzxOzcGdkE3gqqn55VaOmGmHP7gf/IAL7cHTjlbEu6shvg87Uio0p7YEqp2hb15cAzXwqJEaN7yqi3X9BfniFGGEgqsW6wbYz57h8XG4wx57Ft9CDluOnIhTtBe7/yxDzssq4zcfdI/xtykyHG9X6RjSV07RhiJq88iFr67rManNi5HRPGFWDFftvwUndoL2ZN2YDZBYeddMdRubkQuVN2oPi47CVTg3MJDDEn9xRh4rgNWLjhE+zc+anz7xPkL96Ad8ZtxZZjUn5siDF2kaQ9Yk7sQbZ4SzxsMXL3GR7KtFKqt6zCPYNnoPOkQuiHicAN5CvHoanBounmgLwnd2+wAwgrMWW0AsWfjWCIsbdYLULuAdpDYij3Qr46swBPX2o4yUMxzHweNw+Kdt7RuQVPWw9Hbe4YDfJzrN+fg7ssT5mv4Pml5CkTXeh0MMSAAu+aAuCKqhgMMWQIMQe/Das/GWIewpyS8Hb3B+v18iUvHpMhBk7Q3u5/HY/SChHA91r0f2+ncqSxl5O4IkPM9/Hu8rA2jKNo7L9b8V7sI7DVXJL76yS2jH0ALwUYk0DBets+BCX8mKEQd2tSxX7kTc3HtBX7LL2973CVb8tR6HwjzTHkEYNTJXhzjPA2mYXHFn2SOFbK6U8wUMSDGroIY/fr7esF8lVivjRka5KBg4jzVrHZ1o1BHjlkiIns4eMr5yx2LFtseQmZjrv2JW/gF2R0icmnGlGA2oDgt6aiDo//qaWz/unp+YYYLqY7kjTE1Nlb6GL/1N334smUu/wdGWJuie6u491OLJ6eb4iX4yXjKybABJhAUxFQDDF8alJTYQ8vp6UbYnAemPmEvT1p0cf2SUb/k2eo8ykg+1u2R8xDE2CdklBfC2yaAfzHVc52Jd3gQsYb/XtD9g39SjXEiFwqsfDvfa1jqdWjqO0Szm+eiTvFkdW3vYnfjt2I/TWaS0ugIE5w3u/1wSu9x+Fr0jYl+ZaGGmJ8x1d/sguTxm3A0mKK61KJnR9twJhpO1FyogbnTldg87z1mLzKcJpRAkPM8a1bkTNuA6blbcOCRfq/YuyTDTvNboiR6TbetX+rT3hZSRticBYFCxdYxziLE4RGbz7knWpkOjXpeDGyc8TD0Wz819ztxlOT9BOHxEkmXYTxZuwaLCo7i3rpdCJ7a5DJk0WqZyMYYmxOs/Hfi/Zgb3kVyq3jVaQyQy7PVyzA89e3Q+xzl6PL66tgenxOFAeGjCDu0dP1O5Hz+M+RNXUjSipOeB45dTU4sm0m/nCjOLFEM9ycP4ZFz11lPeyIGDK/fHs1So45gZjravDJhkl47f6+gcemkgyycSek2kD9Tgy+NYZYmzswmqxBYTd8th0jfvxFXBr7B3zt8fcDjuSO45NZ3ayjn198+N8wYOhUFJZS/etQs64vsrt2hLw1iU4PstKPnINd5af9QXuNcpVjVb9b8GLXa/H6gOmh95kMMfHaSpSsHBq8Nckq0wnO2/UujB7yFF6LcCx38Xs/xV+6dsTfXh6GDW7d/RU4XdAfvcTR1f91O0ZOWZM41gsOY9Xbf8bkWSuw+xAxBYRnzKoRP8ZLXW+AGliYyjyH/MxrEYv9A55McGySa4j5rAqfbtyBBYu2Yta09Xh/6T7s2XcAnxyu9G09SmSQcQ0xOIfiFXbMKaFvHpq5BRvKTtlGrfqzKN+/G2Onf4zx4l2H9d8Z5C+wdVnn3JX40HRqkh7ItwGGmAOrV+JPi7ZhfekJ+1Qm4dv3WQ22rVluGakVQw+JJj4dj51vDluINzeW43jgFF+LlXnLrdgzW6i+4oSq2kqsyFuEWwbPhH6Sk1dMJfL+/K9oF4vhH2/NxApvd5GXBMUY8/gD6DFlI/aVOycZiV/rTqB8+2z88Saha2L4Zn85VPNW9PuGMCxfimsfGY5Vn0r3STkrl8dn4gnLGN0WNz0/BRvpnoSnJkXcmgQ6yUnU9UXMEaffKQIE/3F+6R+tk55iV/8aU5K4T+RoewxFOL4adGqSYDYhYsDiYJn5FybABJhAEAE2xASRaebvy8rIsbSZBWlg8RUzgf/388Dtt6nxYvTs8rOBDIoHI31+/gvAtzqmg0eMI/HZ3U7g3h7wG2POuluYTIF6O4ZsW3KNOCKg74vLIe/OIlapMsR8tq8I70/YjA2HPe+U6uIiTJlYgOUl1Th7dB9mT96CwjJvq5K78E5giKkp2obc8VtQWHncEODRK8/K7yIzxJhjmfiPdE7eEAPg1KcYNV6cnGSKl6IbSepxcMMK3OvGLVDv+dbIpZhQonnWnCrBAOvNtpY2ZxWmLhcnmehlUIBdNb0in7KVKmDbldX5KS81WHBV4Sr8OKgOw+fiF1PWIe+AVg8rv3rsGf4D2/ghvFHaPo+PaJC5n87JSJ/7Enqo8bXdFK5R4/M3w3KKISOH4jGjetRcdvcovzHjs+0Y/iPp5BP9fk0+8qyh49V9n1p6nFuAp/U8lb/b4nk/AKue5xb93n7YEenDjDfxcmwY/QBeloLO6oF4FUMM4jiU9yf0EEYJ4z3B23yOrfg7epru+20P5B/zmic8Ds2NeHPMChzVnS6c212DSVjsG68oxHe/i4GPmeqib0M6iW3jHwzhpKcnbxtT3h3R/ZmeSp0lkXBuUy9cH4vh0p+9Zz7i2knsGWJIP1ejfOsOzJpbiOnT1mPiwr04fJJ+i/bpGWKEheMEPp67wN6SY9RPCzBCiihcf6wYfXJnBuiy2fjvxZpnTQMMMRREWNFHJFvYtqH6Kkz/QAQu9+s11cOlFstnzzOmE/d+a9RyLAg4Ihv73sbt7vj8HMy7drxjpX3j37m37R0jfIaDuqJhuD3Ey8+0baky71nrGGljObLHjdWfkvSIEfdU5uHZL6l6Ui4rcNtS3Wq8YrwviBmNDscg1fbXmJUoBvH5pfijyyuK4YbK4E8mwASYQHIE2BCTHC9OHZWAsyVJnHx06yDtmGk5j7PA0j7A9c6JSRntgQf+CmypAib/Io0MMUJm9yjrnri3f4EWoLIOJcvm4k9P9cO3f6idohRiiHGD9hqC9BImkyGmrrYSlUfKUXG0CmfOaItk99Skcs8ocqoKpfmFmDBjJ/ZZMWLonjLkz16HSSs+xYGCLRi/4gDOSK7mriGmyjlCetVB4++nDxZj+oS1mLPxCE7qpzjp+bEhxlqo//usYsUjo0GGGNFJzh3DqqXL8ViOEy9l8Ez84J1F+NvHJSj3nVJWj2P7tuPNSQtwxzD7oeLmEfPxq+mbsL7Kl9jqgvGqfRg9eR5uEcaPoXPx2PTNKKiph+3x0/SGmHjVHrw5VhifZuIHo+fh3tFzbNmkhyRxBPhyg1UzoUeMsy3pc1/qgSA7jDgpbXOff1W8XE6VbsCkvo/hzq91sN5oiweKz/3jVfj63f+N/lO3ovwcjWb98xSKZ/bFY3d+1T1l6XP/+CXc8vMsTN1a7nnXiGZ2tjjJDyvKdQoNMYjkEUN1qcPh/El47+8/Ro9fXWcbWB7+Bv7+7MMYOeJd5O87oXm9xFGxcQre+/s9eO2xr2oGmWBDDFCHw2uGY/hznaXgtR3xYgRDzEtPdMEbPd/Eks0VClOqgftJQXtDg/S6qUWUX1Rv/xDjX7oNf3tENprohhVxz0mULBuB0X/W04r7/OnrDq1D3ogn0es3N1heN8Ib6K//308wYuxC7DsRYEkSxdQfwZSu4pj1TuiZH9jx4DfE0JxQg6OFWzBu/CasP+R9Z88Fx3H6WAUqjpSj6rjfYK8YYixMcVTsLESvSQtx53DHyDJkNu4d9zHeLjiMY5rKqa8tw8K8j/Dg27MtT79vOmlzTIF0G2CIqa8tx/KPVuBX78x2DUQ3jZiHxz4swIrgQWrVRMg2f94S/GSEaixSDTFCHX+KGQukOgiPwpEL8My8bdhaE9JuwgsjoUcMcPpAASb3+yXu6nSVq2ti7a5Cp7t+iX5TtuBIgLdO3SfLMPx3d+GrV9heM7LuMBliRKVP752NHg90xlXtHINJu6vQ+YEemLNX919pgCFGFFC5DZN7PIDOV/kN0oGGGOEAdGQthj8uyWUZocINMZXzullHcn/5b2sibUuSDVFBfKyOwf9jAkyACVwAAcUQI/LhGDEXQDOFt1ZVmZzmU1gAZ5UeBBzjzlcenoUtARKZDDGhpyZVlGDu+2sxbd0h1ByrtP4d/7QYs6bkY/6WCs844xhIygo2I3f8WuRM2IDle4M8Wg5j/ez1yJ22E3udPEXeJ2ud9LVl2DAvH+9OKETBIbtMKrumplo9wvoiMcQENCd/fSEE3Fg28/D3TTXaA349asuK8KqImzN4AQbtvrCzky5ETL63ZRKIH5iDnKe+iu4vjkJxC+4+8aKh6HJpDJ/v1BNBthgyxJytPYYTkk4Xenv3igKMn1mE3XJsL2u+iHZqUstsfZa61RIg75urf49Fxi1fhppTHJsYe8QY6PBXTIAJpIiAzxCTonw5mwskUFhYeIE58O3pTeA0KreuwF8fzkLH772Bv30U7CtrMsSc2r8LH0xch9yZhuOrP6vAlrx85IrfpX8LtpuOI62x3uAt+WAt3p23D0d17xX572OfYumHap5zCyXDzplybJznLzd3yX6ckPNhQ0x6d810lq6yCC+9LU5ymo9X1pTioBQf5uzJSmzJX4NHhKfPsKWYVp7OFWHZ0opAvBZHNk/Fu/97A158+E5MXC3tdUorQaMKcwZbB3XBpbHP47o/fQRTbcgQc2zHNrwnzRPWnDF9pxrXy9XfVdi3ciNyJ67H9A3Bx1dHlZLTMYFGJ1BXhtndxClQV+P3Ea0wp6u2Y/Yfb7K3Z7a9HxMONLqUXAATYAIXKQGfIaa29v9GQ+X/mpVAiw/W26z00rzw+jX4swjs6/7riQdH7jDGhnFrcr7e58Vy7sxxfHaqGmdOHVe9TZwF81nrN/G79+8zfQsTLa6PfYolH6zH7M3SVib6Tfk8Dj1fPU/9d6v805qXTaoMMfEAH2wXHF+0PgJVmD11jr1tQdqKpMZumI1uHx+KHPyx9THiGkUmUDYPo38jbym6EQPf25z4lJ/IBTRjwvojmPdbERD6/8GtPdf4jDHxsyftecWaS8R8ov6rU3S/t0Wp7rSTzjCf1MdbsBtRMzYVF91YBCqR9+yXEIu1xR0jdkbYkqTF4Ln0Wjwf0XjTWDXgfJkAE2jdBHyGGPbEaP4GZ0NM87dBo0ngGmKycPMjo9B37v7ED4znzyN+9oTfGBOwUHbjukT6vQz5c/LxXt4+HKFtRpHu8xbmyZVXg3OpMsSc1wIMNFqjccZpReDcMaxbuQb/kzsX35eC9lqxbj5ch+m7asLjgKRVZViYZiXgGmI64dU//A5Tl+xGWPiVZpW1IYULY8zvuuBPi9R4QyKreN2plM8p5+vZON6QZuJ7GotAHYqG3Y1/H7It8TrLEsE2xFx6xVdx1zPDsdgXC6ex5OR8mQATuFgJKIYYPr46fboBG8TSpy3SQZJUL5pri3di6oyNmDqjAFOX7sPBqmM429gGGMrfMcSMmVSADywZNmPJDmmLk0hXW4aCPCHfRkydvgHvjl+LyWsPSw8OJ9KhWVgGJsAEmECLJCC8V5I2opMOD/jE+bBgtC0SEwvNBJgAE2ACTKDRCLAhptHQcsZMIHUEztefCz3lItkF9dnqchw4cNj6d7iiqumMMNYCvhrVZXbZJEP5Me0EjjPHUHVYTXO48pjz4HAC53lbUuo6F+fEBJjAxUfgfD3iZ2tTZoypP8fbki6+TsQ1ZgJMgAkwgQshoBhiREbsiXEhOPleJtB4BM7Xx+Hu6w94I5msQablpWcjTOP1MM6ZCTCBi4qAMMakYIuS/9jqi4oiV5YJMAEmwASYQIMI+AwxHKy3QRxTflNRUVHK8+QMWwmB8/UQRpmL7h/HhGklHZirwQSYQHoRON+w+YR1cno1I0vDBJgAE2ACLYqAzxDToqRvpcJysN5W2rBcLSbABJgAE2ACTIAJMAEmwASYABO46An4DDHbtm276KE0NwA2xDR3C3D5TIAJMAEmwASYABNgAkyACTABJsAEGoeAYojhU5MaB3JDcuVYPQ2hxvcwASbABJgAE2ACTIAJMAEmwASYABNIbwJsiEnT9qmqqkpTyVgsJsAEmAATYAJMgAkwASbABJgAE2ACTKChBNgQ01ByfB8TYAJMgAkwASbABJgAE2ACTIAJMAEmwASSJKAYYsS9e/bsSTILTt4YBMrKyhojW86TCTABJsAEmAATYAJMgAkwASbABJgAE2hGAj5DTDPKwkU7BDhYL3cFJsAEmAATYAJMgAkwASbABJgAE2ACrZOAzxBTWlraOmvagmrFhpgW1FgsKhNgAkyACTABJsAEmAATYAJMgAkwgSQI+AwxfFpPEvQaKSkbYhoJLGfLBJgAE2ACTIAJMAEmwASYABNgAkygmQkohhg+vrqZW0Mqfu/evdJffMkEmAATYAJMgAkwASbABJgAE2ACTIAJtAYCbIhpDa3IdWACTIAJMAEmwASYABNgAkyACTABJsAEWgQBxRAjJOatSS2i3VhIJsAEmAATYAJMgAkwASbABJgAE2ACTKAFEvAZYlpgHVqlyGwQa5XNypViAkyACTABJsAEmAATYAJMgAkwgYucABti0rADcLDeNGwUFokJMAEmwASYABNgAkyACTABJsAEmEAKCPgMMVu2bElBtpzFhRBgQ8yF0ON7mQATYAJMgAkwASbABJgAE2ACTIAJpC8BxRDDpyalT0Px1qT0aQuWhAkwASbABJgAE2ACTIAJMAEmwASYQKoIsCEmVSRTnM/JkydTnCNnxwSYABNgAkyACTABJsAEmAATYAJMgAk0NwHFECOEYU+M5m4SLp8JMAEmwASYABNgAkyACTABJsAEmAATaK0EfIaY0tLS1lrXFlUvbocW1VwsLBNgAkyACTABJsAEmAATYAJMgAkwgUgEfIaYSHdxokYlwMF6GxUvZ84EmAATYAJMgAkwASbABJgAE2ACTKDZCPgMMXv27Gk2YbhgmwAbYrgnMAEmwASYABNgAkyACTABJsAEmAATaJ0EFEMMn5qUHo3Mhpj0aAeWggkwASbABJgAE2ACTIAJMAEmwASYQKoJsCEm1URTlB/HiEkRSM6GCTABJsAEmAATYAJMgAkwASbABJhAGhFgQ0waNQaLwgSYABNgAkyACTABJsAEmAATYAJMgAm0bgKKIUZUddu2ba27xi2kdidPnmwhkrKYTIAJMAEmwASYABNgAkyACTABJsAEmEBUAj5DTNQbOV3jEigsLGzcAjh3JsAEmAATYAJMgAkwASbABJgAE2ACTKDJCfgMMbW1tU0uBBeoEuBgvSoP/osJMAEmwASYABNgAkyACTABJsAEmEBrIeAzxLAnRvM3LRtimr8NWAImwASYABNgAkyACTABJsAEmAATYAKNQUAxxPDx1Y2BuGF5skGsYdz4LibABJgAE2ACTIAJMAEmwASYABNgAulMgA0xado6wijG/zEBJsAEmAATYAJMgAkwASbABJgAE2ACrYuAYogRVWNPjNbVwFwbJsAEmAATYAJMgAkwASbABJgAE2ACTCB9CPgMMRUVFekj3UUsyd69ey/i2nPVmQATYAJMgAkwASbABJgAE2ACTIAJtE4CPkNM66xmy6oVB+tNn/aqLRqBn/a9BG3feBzv7eftYunTMukgSRyHVj+PG7MvxeWDe2Dl8XSQKT1l4HGUnu3CUjUOgdqiYej6zlAUHK9vnAI412YnkN46rRaFc7viobkFqG71XZDn4aiDIb37bNRacDom0LoI+AwxO3fubF01bIG1SX9DzDEse78jYlm3Y9ieaMaJY/kvoGNmBm6fuxPR7kiPhts1pzNimTHr3915pekhVCQpdmHI4Bhib76I5ReRgaB89W/RITOGayctR3UkToDcxtTW0e4vx/zxHZz+cS1e3BC1xIiCtaJkMuPgcSTztMecaI/g9K0IUKqqsmcIOifZ/81FJ98WNPZoDFmfI3LRkrSmmUVy39buzsWDfdogY8Cfsbj8XHI3N0tqauuLTYc5c2Tm3cg9mDz4aDot+Xwv/I5abM97EP+SlYHrJy1GWfzCc0zvHKj/ijnjYuvDybVM+vbZ5OrBqZlAayKgGGL41KT0aNq0N8Qcno7HesfQfsxUHIz0tuUgpud+EbFej2Lq4Ug3JGyImh1j8fSwTug8JfoDd8JMDQla7huENDTEVMzHb/t6D9j2A1sGLn/jRtw1cRSWf3oCF9o76GEwmiHFbnB5cUIPkdHuv7jexBFbYqR/hjGLNo7kBbXXT5rXEEMPa548sUzRZ2/FY9NnYFu6eTwkNMQ4utgyLt+E7O21Bq0nvkq+LYz9I8AQY0zrGLyVftVMhuSDa3vg/oFX4WfJGt+rl6N7/zaI9XoAuXvPGNiauWZkX40bRzyHUQUlOHGhSpBKrdmMsePvQKdBLyUwxpNMTfEQW4ejO2cgK+dmXJXdxjZi97wCN4x4DmO3HkXTmq1obDfMEBNNp1FjNN3nsQ3d8fWsGNqPysUuQxe057ugtm7KvmBgErnPyvem0TxsXONIc0cz6TOila59luRrkZ8N6rNJ1rTuKLYsz0LXgVehXZbdn9r2vgF3TRyLDZVNqzVdyQ8vQo9RN+Oq0WPT52VLZJlIz0ljMzMGm+korDxoUJxuxVN/wYaY1DNNSY5lZWUpySf1mcRRvPBuXJb5DfTYciJS9vF9Obj79Ri+8eF6RLsjcba0kA97+EucS2tO0VIMMZIi7HkTXtlw9IKMMRfcLxI+yLbmPhNeN2KrPChLD8+pHotUXvoZYrw+mzHgL1hWmaon53D+kX5N1H8dI/q1Q29Hx6wYvjenKJKHYtJtQQ8kLdQQQ8bZ5PpeORZO7Ig2mdfihfVBesy8APTGVFvc9MHHOJqKLkVtkPDhj2QKejiP1PMSJ6o/itUz7sQXnAcJr87OeEooZ+IikktxYYaY5MpqotQVC/FsvzaIvfkClgbopbQ2xETus03EM9liSH5pXlT6eZP38WQrwOmTJkBt3khtG69cjb7Dv4A2AX0q1euuyPV31hqxgDk+cj6pTBhZJprzvLWcMk4DX6SkUlgvr5j85os9YjwwfBVA4Mwm9BnYBhnDhmFnpD1Gp7FpxrfRJoltTAElK1/Tg0GzKSFFmnT8I40NMbLirj+Fqk9WYNCof7EnmguczC64XyR6kE3Hpm4imYhtcg+nDReuqcszS2oYR3U12F8wCPf3EW/0M3BP3v4LMh6ay23gtwn678Hlj+GLmTche9MKvD4ghtiQQSiKoMeTbgtanMpjPaxKkRdQYZmk7reGGGJOb++DbwtPhFBPUVoAyl4YcZw6tg8r5tyPf7GMFCkyiFAbJNSpJFOKyjU2QxyffvQIvigeJrKuwSNzl2FX5Rl73NTV4OCuPPR/740mjrPV2gwxzlorsz0eXXYwUCexIcbYQVPzJY25qHovNaVyLs1JgNo8oZ5tgJD1n2LKmC9anoMZ/R7B0PxdqDhjW+nrThzE9rX98YeZKyNvw2+ABMG3pNmcbQkaWSaa86R5uP4UjhRNxQuD21m8m/LZUjHEiIpwjJjgfteUv1RVVTVlcZHLsmO9tMODS0sDJ3ols+pleKFfDO1yJqE06C1fXRlWz++GO/p/AZdYC7XLcfXgx9BvTbHipk0PA4rl0mAl1h8U7YWHPeBq981BVs6N9lu5rMtx3ds9sOBTzQ2NFKuStzRglQoCkB5+KivXY9S4LuhgLajb4opBv7WRtqQAACAASURBVMGYHdVGVrWfLkH/MZKLtlJeDBdmaTY8QAq5a3dj0rvirW0GrswZ63ddFm0x51Hc2PsSW/lnX41bc/thkc7ok7G45/UYYn2fQV6lDgSAY7CLZT+ISYechieupkVK7Tq81l9Ypzvh5U0U1IaUpekBwbyIpj7SacoqVB5ZjcFjnLbObIsvm9paF11qy8CIL6Ts5faKMgnXV2PHCtm9VPQPfz/XRUqXv4mtPr4C5aP2ljklEY8hcnlR+2ygoGE/BIwjxLF91s3BE7Zo64+7465+7WwDo7P9YlyALqirLELe/Oet7TC267Gz/WnmIpRo6omkjR/fgVnTuuLmvk4ZWZfj6jdsHWpeRDjbkqy+ehoF025ALPN7GFSc2BITuS1IOGp701inNPInjakI6euUcR3MqbZoCO7Mjpm3CdXm4/W3hCHN814h40v4/GLSRaIiDtusLhhk2g/i1pV0mmk+qcW6qV+3+pTQX6QFxa2R+wdxV8ac4a2fwplkEnWrQNmmwXj0LbsfZWRfh/s+XBDYB91qJbpw1gGxzA54csXB6FuQ6o9i00evoqsjTyzT1pnZy7dpQWjtcSr6/cHd7+LRfpcg1vNr+N3y/Thdthh/H94Bl2Tq3kbO2M66D+MPqOM1I/tGPJG3WSsDgJGvqS0dINJ8kszaAA3RaY63W8bQQdgeoDOEVA02xNSWYMncbvgh6TSxfhr+HEZtLIW5uDqUbRqJbsM6OV5QNFYXoviktBg0Mk3UZ711lzJeQ+ZhWYdZ68DRnextHkHrQKsJ4zi6fSJeGEl18Mul6FqqizK+QgZHUv2jBisnX2cZ/4NiLdqGds37nGRSdEJIn6VtqRbLOI4WjkK3oR1tVj2vwHfeHYPNhi258cpNmDK1q7t2jIm0udmYscu//k2uLRz9NCIX+8sW429Dv4A2WVfiRzPXorp2O97NFe0YsJ5NYh5OSiYjU3/fuLA1PGA/b4l19pOYdTj6FqRk2sLTB5V2Ww8RujIGq/30tqZ5WulL/norY4K6fxI6rfFlojnPPw7KVj6Jfxb1M47hWpSsH+KNB7FN/c078dz8lSg1K0GI57wh436Ijs5WXDGn3jlR3f6kbE0iXvzZ/AQKCwubXwhdgvpi5Iy4LPjhW08P2sbUAc+sPer71fqifi/GjQ5yu1MHCSlKZeI1KAT9QdEe1B3xi0ndcItYmGv3ZAzKRv5JSTyjklVlkVK7hpgrR/wK9wu3YC1/U2yc07tG4G6DLMq9RkWglBzyh+EBsv4Q5k0QRpiA/eO1hRgy3LYGK3KI+vhc9SjWhLltT297HTdkxtBhQh7clieuxnqVYc67/6wF2yNlaXr4ceqnPdhTH+k84WUrYKZej4RbSaSFUUoNMbXbkZvjeP3o/UOrQ0ijNutPxFYfX4FCUXsr9Q0ZR1pGkcpLqs9qBUT60zCOrPs8Q8xN0zdCibQijTO9/8Wyrsdf8vVtK9TP/bpJ3G/ysIiXzcMzJl3jsDYuhGhbkhPIumZjd1yXGW17UqS2kHlS2xvHupzQuaYFXoL0rnFF6VM2N39MjFoUzrkT7Xz6rhb50260jNHXT17mbgOy5wlzG3jtaNJFAOghOKGnKLW1eRzQIlBtP7rHLJvSP4i7gY9XB32RSfn/K/5rwk8crxy5rAzcPD3/grYVU/+J7kkrXhqE6cwMyG0H2OO0Y+6f8YSI0UP1H/Iieo+lgOqiTnJcJGds9/sF/jTuFqufuPdZ97fHA3m7VCODka+5La2e7fTrZNYGaKBOsx/CEx+I4D3kmGY46gtqP4+XLcZfnTfFKiPB1MAJcexd/LPAbWjKHGJkKvc/51rXDaQzqK3FZwRDzDffeQI/MKy9fOtAESlrzbPWFk5/nT35lLFKddFlNai8hvQP8rozjyNak2lhA0gmmVPomoP6QGc8M0UEffbqShwUnWO937MDlNPvyqdhziN9EK0tHHmG/QHdR0rr0z6PInPy7bjMrVc7PLzssEc6yXk4KZmMTP2czA/znojhV9QOice0nA8Fi1fagBgZ2sLWB1fi38feb+zrSlubxhzlLX0qY0IIl6ROa3yZiK1fd9Mc3O6dqZB6E1B/CIunmOYJu9396484Dq37q/GZ02ob6ZnKZ4ipqKiQ25Svm4FAugbrtSeBJBZltI1JN3RITOPFQ/DdrBjajRyGDUdO2G/KhItYcR6GjPtfTD4kJZYuSWn6BryUhi7lBXb7YX/BlG1lEN59dUc+wmuDL9MWZ3QXfQYPWEpBHjHW4Mq6Hr//uAjH4uIt5noMsAwb2gRBbxwy2+O2qbNRVC0s3XGcOrTS2aKjLoLccpK60B4g66tRMNv0UEKZem7NnkxA/PQBrFvwS0tB615NZK2/ctw8qFqD3rYHLAhMixR6Y5p1D3Jd1ylib+Lh1E9bUFC/EG2R0edHeG2l3hYJtpI4E02UfmWT0zgTTuXzNLbOsRcMtntpsdU/gDrUlK7B+Pf+FNjPlWwC/yBOhoWANDkqi9/AvIJ/ILYNy4dk9E98QSUmLi/5PhtUVvD3/vaNnz6CwmUv2BOswQOCHoiuGTMa64/Q9oujKFr1mv0A8FYPrJcNvyjHog+64rn5y1BEOhAiqOkE/FoYW5QxAaB+L8a+LRakbXHT+zOww9niET9dhX2r/oCvBJyaZMt1JZ5a5YxWGnMRticlbguNIC1UTWNdS2r9SQu8sPTkZdfrNrzqjGtbb67D6FxhYDZ4arqu3d7DIgUzNT14kWg0Z0Tt60fXPourIxm1wsaBcxqhb7tbkv2DKkFtEPJwaiclmZwF5bBXMbfkBOrrT6Fk+dP24nxgNjaeooyT/fSMllFjEol23bvoPss4kjHg95i2u8KasyGCVtLYU+LU0XwQg2Vsr9iH93La2waZrC7ov+M4tloebBm4b/EBpwLePWIsfS03xx6vcr1D2RG3EJ1G/Vro4Uhrg4bqtKNYNPHqSB5udt82zakCC9VJ/v0Ylk/+uv0CZ+RbWHXIXqeJtcFK2k4ne76KbOqLMGRIG8Sy78WwrYdxwjq5KY5T5TuQN/dJ/O9H1AZaX4rcZ7X7HENcFEOM/RB0D97aLNaBcZz6ZAaetozaspFOqoPYSrdgPcqsLSFCLzvbF7J/gtwSzZuQ5A/TY7LoyfYPehlq2uofyRhM7RvSZ90+IPRBBq4ZMxTL9h3DOcRRXTwRj4sDF7IfxtQjTkXc+SgD10+c5s5HdZVbMHWS8+CqzXk0n0RrC5KZXghWup6D5GF30PFikD0Jk52Hk5NJakRq81BdIaWPelm/HQMGiTaI5rVqZduAtqC5zlozC127R7R1HY5uGWB7lMptLctOfTdhX09epzW+TNSnpHGgbDnvgG6rypSdDLRuiPW6B29tPGDrtPpTOLCRtqlr6w8K3J/ZHvfMXoUDJ/XnPG+niM8Qk5aeGHLjXwTX6WmIcRaJ+oQb0h5RtjGR50S7kaNQFODaZSqClGaUB2Z7UJuPcgxflIiSDQNWF4gUksHaTNZV9a25swDs+yzytB1oydRLF0P9W36AlN8M52C77BZMN9WsRPc3Y7jy3VnwH2zleKvoCpkejPTvnbx8b21owpIVt2N0e9OJEaNY31328qKQBKZFtKRIRWs5x1eLxftsbTuV29d0SzdlKT6dtozSr+zbZM5yRtI1PfBm34tRxUl0cimL8Evqo01jiLEWT5KBx/7b1Eay1CSj2l5yCv2a2jLwYbghfVYvJOHf1M8MbHt+DU8t26O+MUcJxo68DLHB/bDV19T0QKot+ANloPQqW9d4bdruGdh/nbelfZ7CPNdFjdok8UIvYVvodTCNdT2N/DfpUFk3yL8DsD14rsRvVhxWFkhWsiNz8GSfGHxvsYSJm7yHxBuowrwEpxrZhdJCMLDvabLtntcFbTIlI5f2u/cnMZfHgfOAOtOJERP5dEFz/3DLojZI+IBAMglPSW1+oIcBXce7hUS5oPz1FxIh97pzi+FhF168GU9P0zilBTSVGQOl8fdhuqc97plToG1DKsWUd4QhJ2ysUhlyW2p1on4ddW3QYJ22GyOGtkFMGd+aLM6f1LfNepz0nKRznAd8s5HD8y5TYmWdKbBjUCU750Xus3rdEs/D1P5+714aR1r/JFmGDcce7QhwYujTD3SPb350uOr6Ldn+AaBk0T24LNPvJUGGB6UddEzumiqkz7pp2uOBBduV8ACm9TB56bR7Oxe+Xa6uIVzqT9I6LVpb0DjLQJc52635lvi7ZfrmveTn4aT7B7GlNk+oZ+mGiJ+UbxK6tyFtQSz93uLkpR6gA6nv6n1ar14DdFqjy+T2cdJ30qfY9jZjpespa1eHvM3UfkxVrd36Om7MiiFjZC72O7su7fHozT+U1vqkrdHOSzbFEMPBehVUzfpHUVFRs5bvK9yZjJWtJr5E8hdOxw2KIUJJz2zHiBG2u2HbN+7Ac3PnY5PzxoWSmD5JadIiy5SGvrMHtXkAUZrgT5oEQiauEIVklpPy9HvEDHhbBObSFgTBwoX8QguTFzBpyTPWW03fIlu+m+oQtICwvtcZxFE057u+N9H2A5NmHRZl0cQSUEbbga/gY+WkB+JkajtaRKsymXk7FaXywzwAfBO6DMl0TZxfDDwilgxAfs8hU37p+x2xNS/gTW0k14XaUm0vOYV+TeX5FruUsEF9lm6O+kn9TJqoRf994xGM3624tdgZUh8L6OOBRisn/oIbJ0u5X2Vb+tFDaJ8Zg5FLUP919LduqCDGiTwVKJ2xTBNK4pBokUb3UluGpKfFmbn/BTzoOPmrWwza4+eL94SeFkVlRa1v9DmGxoHWn6i9g06OS6J/EFJX3yZ8QCCZ1H5m50P9P/q4dct3Lyj/JOY1JwZZxtvjYfSdODgFD/WSt1g5cvb7I5YeEwVTmZ6R0d+Hw+tmt2mYcY3KCGET0q9JHmUNQ+mpPxg/TeU5dUnY1hQjJqD/ueV5fYG2MMreBm7TAqD5TakHTmP7vLvt7V49v4w7Jg7B/O3OW2T5Zv2a9EaEeqi3Jq6/kbeTiXG8k1ePzyNmCp4bGOBJTfK7HDXOun6j9ta/l4wVKtegbZDOejvhi9IIfdYdO6Z+plIXf5FhyPM0U9OY5qvk2oJkvhOjPrWfcn1j0+HoskrUDlb7eH1cSJycTFIdqayk+6yUh+mS8k3CENOQtjD2fUse4q5yckUN6btuGnFB6YLGhPW92tcaXSa3j2vj8/XOeDX/iD+GmWNMivV/GatqlNrZf5Dh2e0DFM9Jjnkp30e7Bmy2bIiR2fB1AAGK9aJtNQlILb5O6sjq2t2YM+0/0ckJZiQW2m3f+DF6rFKD9crFhSlNOZ24tgd1gDLRE/v+JmWkKgolGSmaJCbT2m1v4JaemhJwFFXGgJexQo7UqBQW9Q9nYdK3C+4eKAxdHfHM6kN+BUPZUR2SUJbiVmpnb9uS4zllMsDRxCKXIQKMDv45Xlq8AUe1t07eYtrUduZFdGi/oPJdZUmVlz4dDu6ELv1kvoy+ALxzQYn/Tb4507T8lthGfThVKxFhHKk3uAujwPIa2Ge1YhL8qbVv3VFsXGDvm8/o8zAm7A9wTZf7uO9a689h+6ete9X0ofosoP/ab2cMD8L0QBtmnJQWqYFtoVOksWbQiXpS629qy5D0tDhriCEG9fswftQ/2ltVBvbCpgTbbKisqPUNbROlwjQOZN1vBzH9+ZQJ2FBpCMiYZP9wi6M2CNN3VmKSSe1ndj5mPeuWEemCFqUxRNaBAf3YLY7q5vYXbZy6C21v3vbrr/C6Je4DxM0rw5WPLkL6NcmjzDWU3qcz5P5iKk+vPwng/wzvq1Qnry+QnIFjIbCtarF7ZRb+s78TTFzUqeeX8eMP56rBemURqV0T9ln5JnGduP5UD4W3k425reM4sPwJO3CnoT3a54zHHk39u8ZPt1/qcmp/U3sb0gfL66yx5O1JkV+UUvua+hDJFiUNpU28vqZ6yP2HvovWFn55fH1Y74PUjwzt5s0fXh8XtUlOJq/+bpsn3WelPEyX9PCf6RmgTMnk73xc5B+lOsptYe774kbirnJyswzpu24acUHpQttC7Y+NLpNbN6dcsR119Uv2dvOeN+HvG7X4WdSfDOPUrquuf4idWi+Zi9xWiiFGJOKtSTIqvrYIOFsrfFtNAvEYJorAtNIPYo/etpl4yz11KPjNZZjSlHK0LuUOr/+W+O/EA8pVNIZBapbTeVuU/S38dLQXTbtt7+/gsZnaiQKJBQxI4SmGZXucwJ4G92j3Zn0ic39IdOG8iaE4Fk5f+caH6/3BHRMqM70sYm+aCJz6BcSIMU3wcLYvhAZQS5qDx3l5gPGM3igaZdKr3KC/iZO8WPdfy5NvQ4qhvtywfEjG4IlJlylheUm3lV5ClL9N7Ut10YJRi+yS7uMAubAqsTAc0Uy6y94GI8e68OoR3zUAN/tixJBbrb9PeItSz3PAy827StgWXlL7KlkOtFgz6FDK2sSCfgv/pK0sGbjyzWvQLjMD109ZEXrkp11WgNeRoTA7fZj3BN1EfSf6OEi2f1BJbl9M+IBAMkXXs24ZES/sN7XenviEt+0bgS7C1TtZjxi3rlQnj7O/D5vnEFs22q5iYkLS+8ugX9zPkH5N8ijzQoN1mlOXyFuTgupFdfJ+p/hHyXnEuATEmV+oKS3AzNnd0KWvfRqj0YghbiG94bajnE/YtUlPq+mNvJ0k5vFejoUTO6JN3zvx8Cg6fdE5JSXP9OJIkj9EjylSJds/nJtpTUGejLaOMB+coJSnP4CqPzp/UR/wxo4xmfNl2HwkkqTOI8aTxzcX6OOG+lHUdpCMFMp4dOpo7h/Oj1RW0n3WuT/ww9leZYp9FnBPQ9oiuG7UDzxdoBQb0ndN6UxclXTSH40uk3EcSLEc9aD7lYvw7BsxRPeIoZhdDfCIkTjwZTMTSCeDmK3k2+PRZQejvdF3rPNqvI/kgNZuH4AfiOORAxQpTaod318KLcyKryCf0valCPuClJE3CfhShygkklNRQo6lO4rsvrIif6EuTGr3TbIDf/a6Db036qe2AK6RQguqFqU4OxaQHQS3Mv8FdJTf1MgZ0IQV0KZyUrq2205/wInj0Cp7u1UssiGGHsZiUOP1UEnOpz6haz/7/1Q5+38HQEd9v/kClipbr4ypG/Al9dGwB+3oD5VBAlBfThtDDBnWGtBng+ro/97cvqd3DsHtQj/pruBuTA3p2HZ/pso3tOjweQvUV2PVB+I4Y3UhRA9Gik4ROUqeE8pvNO5C30j5Yw7IQibd9lRm1LEeokNJDoq3ZTTyUiLDJ520ZHkaHnG2woYZpV0vyugeHNQmobrFko3Gash8otUh2f7h3k5t4G7XcX/RLkgmtZ/ZiZz+r+lZLYOEf5LnpPnUMMPt9DZYH19WUi+Qr8dbH6dUJ4+zvw+H1I328IduC/CX4atJSL8meZSx2mCdRgv/gHgOkmDh6yGqk9QXaP4y6lkK5GvwtpPKdC9rN2HAULGtx2sX9zdxEbnPKnc1jkeMU2+fXtaLlv8m+VOg94z9g8qiGEqWJ6NjaDe2D91An9S+AfytZFHSUH4UuyvAyOoGj1X7ZVjdSN956wy/PL4+rK/bGjAPJyeTV/+G91kpD+Ml7URwApBHWDuSgc7zUJcyDmgLP2+6h7hLuoB+Ep+k24aPQol0Gr2cxLpugE5rdJmMhhhJ/yiB4EUtyChm3hVCgXzlrd/08sG4XqFAvs784vOI8UHkL5qcQFoF66Uo7ZGUvEBFysPcYXWY5Wuz8Mz0SVhRTJH1xQuUGuxf9xo6v24Ovmjl4bwxUyJY65k7f/uUdkA689ekjEImLlJIhsnXqNydydp6A76rFIfKj9knQpgFaOC3+sIUoAcSf4A0UQS9Nc/AlcNfw2w6pSJK6bRofuspdH+nA4yTgMgn2UWKu/9YBJF8G4XidClxasbS36KTe6Si2i7E+8p3xmKTcwJNolNulCrqE7ryo+kPP2d/KmIbg3Vq11baK5+qU5P8JTbGN8TWWyAlU0qEcaRll7g84tqAPos4Dq1+Hjdmt7FO1+pjMk5a8gS1L9UnBnWipRMCYmjb/3HkbKa21ion/Wm/xbJPjtss+rgTwLp/zjW4xDKeaAshx9Ady/4uXlt3AGfqpZM8HGOL/HBHHOntqVS0dUnBf8M8HimPyG2f7FgP0aGuvFRvEUxv6mz3dA73d9MFPfhlXY+XC2x3Y08PPoqp/sjkVi5kWDF5KZmKQcQtXp67t6q3jHk6XybdP9zMnACuyqkN7o/SBfVlrZ9ZKUKMFdbvUceR410g+mfPr+HxhWvxSTWdKFaD/Zsn4dUJb2Cl61VID/hCZ77qzUfyqUnKqTX6OKU6eZz9fZjq9k28kv8Jjjmn4tSUrnBOL4yhw/h5KAt8yPCXIUG1L0P6Nckjj9ULmYfJ8yBonJNs4eshqpPUF9wHOHGCzmisNZ2apHsDVCxC1oRsTCoowmHrtBBRupjvFtsnVQYauKL2WaoNfertT997n2be9u/GBz+n7dqLk6I+PYRDR51TPb0s/Vcp1Hth8rrrbPHSa+NM/LZvghdMrqTUvt64cH9yL6KkcRMD9FDpnAJKp/jJpya5QXWd28Lq5m8Lvzy+PuxbtyU/Dycnk1R/NKDP1h/C/PdvRLsssXbpg5VBRpaKhXjWOtGL1hOkp4C6E/uxZumreGbmSs+7swFt4edNdSPuki6gn8QneYlYp8HtQIWlP+UEdJ38Oq3xZaK66ePA84pRn2M84784+XQ0reuUU5NUTvH9Y3FftjgtT5y6ttZ4ahLpfp8hZsuWLUSPP5uJQDoZYujI6tvn7gwNbuiiciz1YYt6N63kDui5yEtv9aXFs3yPde0uDqT0zkOI/rDgU9q+zNQvSCEbZTI9GCW72AqRXRyjecWAu/Dcos3aKQ6qjIn/Mi1MJE8S6Qx7yss9XcThqNeflAal9z69SS8WdnJIsosUYdYjZabJlDHgF3h8mDjVQlWk4W3nHWHryU6LcX8/cuuvGdhoknB/12TTZRJlhbNV6+DJll5XxFYfX0FSUvpgTurE5RrqfDy9ttH7YDjXgIj1lsC0eLLz1vP16mQaR/avdEJBTI+HJHmmGOuu9afTu0bgbjFh++rdHl8f2BGXaR4xAJ1Uot0jvDw+Go+n+sr1pgWH+kbSq598TOvtGEZBD2is+mTyylSZUTne77766A9rshAhOtRLJukvo1xaf6o/hHkTxLHW+lakWmya9QNclikMvLnY5TvdCtLDhV4frQxXOFpsJnoBQZyij/nk+wcJ5S0efW2h9EGSyVQ30o9B8kYdR7bH1rCRX7COQfbJI9pT6x/xsvn4Q397K4svfdaVeDBvl3RimT5OqU6e3KSPPP1FddPb2P7bf4qIF0fCJ4/bHzWGIf2a5FHHUaK5Qh7b1M7OJxkqE7w0C18PETe1HrVFw3Bv7zYGHSUMazfhlQ2al22o/tDHo1yPqH2WYpOY285uH6/tRQlBvMVvNKd7fSNMB4iHKxHb7jH0W1si9UHpZZPbHzT5tD7uehUo49HmESavSGF7mWXg+mE/QIcgL2Sp3pH7bJC3gC2W4f/CGPsH6eWYWueMPg9i7F5VyYbVzd8W1Ce99vT1YZ8hRvUQNdZdY56cTDKG6H3WvYteJFv9RB1rbhrnInTs+bYhJ98Wft4kAXEPks8zlut8L1SnNb5MVDevT1GtQXpUH1O1hQiev9ripg8+1k5aqkXh3HvxBfelsTou5MNJFEMMn5rkNkWzX6TH1iSnsxrdg82IbGVmODHHnByoK0P+0lfRdeBVaOd02Izsq3Frbj8sLDkRuhUqfnwHpk2+B516q4s1ZTJ1J9kgZeIXjBSyrly8v7W8kl5s1WL3ksfRITMGUdfr+ndCR60Osczg+Dh+iU3f6AtTSuMdZZ3R7wlMKVEnyHjlJkyZ2hU395UC7DmLCl25Uo7i03U91x9K5US0ONMmQDmJ/zqOo4VD8ehbX7C9A6wTGMZh8/EyzB/fwWeIiVduxey5z+P+QR09BdjzCtww4jmM3XrUEKw4fDFutbkmL00SXn9QFazJEGMxOr4Ds6ZJbGkxtyY4KLWfR/N9Q+NCH19BElH6YE7aOKL+EbSI9S067JIb1mejvskPGkeibHr4boef5BWrhuqwU260/iTebip9POtyXDfc7q+HrePYNU6i6PqjWD/3YSfAeVt8edhzGLejGvUOQ3esEtOB2dgYGKCWDKnS9iS6L3Jb0MJGHwvS3/pDiNxxQnSonMxitX0KXs25GVdJwd3tPiZz8ow2pgdqkKdMpnckqloOUHdkNQaP0cuRy1DvoCMsw7fkEifDAlDNTvqrAf2D7q6vxo6Pu+Oe/o7+pPZU+iDJZKob6ccgeaOOI0cgIc+KPnhiWCdXP9vzfTY+3OHXz2KOV3RmoC7XxynVyZOb9JGnv2pRUjABPcfegRvc+c4OnBwUq43yiKzTQvo15eWOVWozMZ82aB4mA234NnLfQ6xUruex5e8LYjyMHHeHu94KX6fVoWzLJHWcRp3vIvVZz3gS3BZe24sqhvGmOd3rG7aOXfFhZ8tg27b3V9Cp/3V+naO/LEykN3Ud2MD+YTcZzT8B24KcdqV6B3PS29o/dpQuYvwjjuriWciS9HLb3jfgroljjQHISSZT3/e3hV8eXx92OPryS2IeTk4mDULEPuveFdUjxrnB0oMznoB3qqKjp6Z/iM2+AO/JtYWfN0lJ3PX+Qb8LJ7cyrJ7zqO95wdcOSeq0xpeJ6qbqCLtmtB4yGL1Ffed389ohoU6rQ9mmkejmznfm+YUNMVKfSqfLqqpEkU8aX1p6uI58ZDVtYwp7GG98sdO+BHc/4chRKFLtINbWm4K591nH07bPnYEjaV8bISA99EgPci1CbhaSCTABJpAqArT9JvxBOFWlcT5MwEeAtjL0Ct5257uHvzAQ8Lwcrn1/vF0ysQAAIABJREFUqfamG4ifPoD5733F8hD6zsxCnDbkwF8xASbABKIQUAwx4ob08MSIIjqnaVwCjlUwqwsGGX23/aXTNqYuc7ar7pr+pBf1N2TttfYeH5Diw9SfQtUnazA6V7jTR93z27wo5fgrqTl2u3nrw6UzASbABBpKwN0qZ9j62dA8+T4mEJ0AvRQJ2XYXPbOLOCW9Mc/A9ROnYZsTb84CUleDg7vm4rWh7RDLjBik+CImyVVnAkwgnIDPELNnz57wO/jXJiFQVlbWJOVwIU1P4PSO/rg1YN8guY8a3embXtTAEsmNk+QVQZOH7TgZmJ5/YAJMgAlcDAQoGLBp6+fFUH+uY3MToO3HGbhm7BTs0b1um1u8FlL+wRW/QYcE67TAGFMtpI4sJhNgAs1PwGeIaX6RWIJ0CtbLrdEYBOKoLlmMIePkvekUAO7neGnhcpScDDyqoTEESjpP1xDT8wp8J0I8n6QL4BuYABNgAi2UgDDGPPBODranuR5voXhZ7IQEhDHmATy8YDtOpPdSImFNmi8Bxbn5jhrDz4pT1A19P96Mo/Hmk45LZgJMoHUQ8BliSktLW0fNWnAt2BDTghuPRWcCTIAJMAEmwASYABNgAkyACTABJhBCwGeI4RgxIbSa6Cc2xDQRaC6GCTABJsAEmAATYAJMgAkwASbABJhAExNQDDF8fHUT0w8pbu/evSG/8k9MgAkwASbABJgAE2ACTIAJMAEmwASYQEskwIaYlthqLDMTYAJMgAkwASbABJgAE2ACTIAJMAEm0CIJKIYYUYMtW7a0yIq0NqGFdxL/xwSYABNgAkyACTABJsAEmAATYAJMgAm0LgI+Q0zrql7LrQ3H6mm5bceSMwEmwASYABNgAkyACTABJsAEmAATCCLAhpggMs34PQfrbUb4XDQTYAJMgAkwASbABJgAE2ACTIAJMIFGJOAzxLAnRiPSjpg1G2IiguJkTIAJMAEmwASYABNgAkyACTABJsAEWhgBxRDDpyalT+uxQSx92oIlYQJMgAkwASbABJgAE2ACTIAJMAEmkCoCbIhJFckU58PBelMMlLNjAkyACTABJsAEmAATYAJMgAkwASaQBgQUQ4yQhz0x0qBVWAQmwASYABNgAkyACTABJsAEmAATYAJMoFUS8BliKioqWmVFW1ql9u7d29JEZnmZABNgAkyACTABJsAEmAATYAJMgAkwgQQEfIaYBOn55yYgwMF6mwAyF8EEmAATYAJMgAkwASbABJgAE2ACTKAZCPgMMXv27GkGMbhImQAbYmQafM0EmAATYAJMgAkwASbABJgAE2ACTKD1EFAMMXxqUno0LBti0qMdWAomwASYABNgAkyACTABJsAEmAATYAKpJsCGmFQTTVF+paWlKcqJs2ECTIAJMAEmwASYABNgAkyACTABJsAE0oUAG2LSpSVYDibABJgAE2ACTIAJMAEmwASYABNgAkyg1RNQDDGittu2bWv1lW4JFTx58mRLEJNlZAJMgAkwASbABJgAE2ACTIAJMAEmwASSIOAzxCRxLydtRAKFhYWNmDtnzQSYABNgAkyACTABJsAEmAATYAJMgAk0BwGfIaa2trY55OAyJQIcrFeCwZdMgAkwASbABJgAE2ACTIAJMAEmwARaEQGfIYY9MZq/ddkQ0/xtwBIwASbABJgAE2ACTIAJMAEmwASYABNoDAKKIYaPr24MxA3Lkw1iDePGdzEBJsAEmAATYAJMgAkwASbABJgAE0hnAmyISefWYdmYABNgAkyACTABJsAEmAATYAJMgAkwgVZFQDHEiJqxJ0aral+uDBNgAkyACTABJsAEmAATYAJMgAkwASaQRgR8hhgO1pserVNUVJQegrAUTIAJMAEmwASYABNgAkyACTABJsAEmEDKCPgMMSnLmTNqMAEO1ttgdHwjE2ACTIAJMAEmwASYABNgAkyACTCBtCbgM8Rs27YtrQW+GIRjQ8zF0MpcRybABJgAE2ACTIAJMAEmwASYABO4GAkohhg+NSl9ugDH6kmftmBJmAATYAJMgAkwASbABJgAE2ACTIAJpIoAG2JSRTLF+VRVVaU4R86OCTABJsAEmAATYAJMgAkwASbABJgAE2huAmyIae4W4PKZABNgAkyACTABJsAEmAATYAJMgAkwgYuGgGKIEbXeuXPnRVP5dK4oe8Skc+uwbEyACTABJsAEmAATYAJMgAkwASbABBpGwGeIaVg2fFeqCXCMmFQT5fyYABNgAkyACTABJsAEmAATYAJMgAk0PwGfIaaioqL5pbrIJeBTky7yDsDVZwJMgAkwASbABJgAE2ACTIAJMIFWS8BniGFPjOZvazbENH8bsARMgAkwASbABJgAE2ACTIAJMAEmwAQag4BiiOHjqxsDccPyLCoqatiNfBcTYAJMgAkwASbABJgAE2ACTIAJMAEmkLYE2BCTtk3DgjEBJsAEmAATYAJMgAkwASbABJgAE2ACrY2AYogRleOtSa2tibk+TIAJMAEmwASYwEVHoP4Q5r9/I9r1vBy3frgS1ekAIB1lakIu8bL5+EP/S5DR50GM3XumCUvmopgAE0iOQByHVj+Pn7w/GyU8VJNDl6LUtUUj8NO+l6DtG4/jvf1nU5SrnU1t0TB0fWcoCo7XpzTfZDPzGWKSzYDTNw6B1mYQO5b/AjpmZuD2uTsRaShVL8ML/WLIGDYMOyPd0Djt0Fi57prTGbHMa/HihrRYGjdWNTlfJsAEmAATaC4CFfPx274xxDJjiL35IpYfT5UguzBksJOvyNv6F3E+azSZUlW34HzseTuGu/NKgxMl+GXPgjtwicPshqnrcCJBev6ZCTCB5iAQx6F1f8Ut2TG0H5WD7Sf1h/VyzB/fAbHMu5F7sDnka6Yy9wxBZ6G/RuQiqhYsX/1bdHDnCWe+iHg/6Vwxx1yI3vXTiuPQqmfQMUu0by52NaOhjQ0x/tZp9m9aX7Deg5ie+0XEej2KqYd1ZWbGfXD5Y/hiZns8uuwgot1hziddv00/Q4xpYR1D295fwXdzs/HhjqM4l64wm0WuGmzOexp39O+Ml9iYlqIWoIUNPdipn6mdhFMkckg2dZVbMGNaV9zctx3aWIuQtrhiwF14Lm8DjsZDbrzIfjq4tgfuH3gVfnYBD7cmZMbFX88r8JUhP8dLi9ej7ExrnFk0Eo3mfWKaLyIaYhpNJq3uEf+MH9+BWfI47XkFbhj1V3y4q9q39qCHggvRRWnjEVOzGWPH34FOg15KoYHOgU4Pa/LDV9bluHrwY8hevg3VxqEXR3XJYgwZdwc69b7ENu6JthjxHEYVlOCE8R5RnrO+tMq6Cdnba40tb9QHQqa37sJz85ejxPegbczm4vny8CL0GHUzrho9NvIDd2uCE98/Fvdlx5Ax4C9YVmnqfLReSSdDjEkvp3gdT2M7oiFF9Anj2It4f2N6xAC1KJxzJ9plZuD6yctw1NTMTdCpfYaYLVu2NEGxXEQYgdZmiInvy8Hdr8fwjQ/XR3v7U1+MnBGXIfZWD6w/GUaq5f7WUgwx9pvOGGJZV+LBvF1oRqNxmjU2TcIRHz7STPr0FIeYqgYY6oMX8vDTtPWN4+imvrizdxvHU0CvD/cZuT1S8XAr50fXxsWf9GDYduDzmPMpazTidSGf6TefRatNvGwenukXME6zrsdf8o8qxpjG6qvRpE1xKvJMSqmnlCMjPaxJ4430eMz40OO9nfbSyXoz5GH38HQ81juGa4febr3d/t6cIqPXdWJ98Ao+Nj5wp5h7S8mO2jDiA3NLqVYkOc9sx4gR7RDLvhejioPmCFqvhPTNSIWlMpHZEOOOqVSs4y+0X5DeSZd+VX8Ic8YJz6YO6LaqTNH3qWyZsLwUQwyfmhSGqml/az1bk05j04xvo03W7Ri2J9oeo9Pb++DbWUlsY2rapklJaem3cHUUuLIoq0PN4c2YOukWtBMLquyfILckWhumBFJaZ0KTMD9UN3Yz0QK6pRhi4gem4JHe4iEiA9eMGYpleytgO1+I8bQdebP+gDc28pZE6jeN9XBr6jd1Jw5i+9r++EU/+417xtBB2B60ziYB+TMhgfSbzxKKDNDDljVOR2P9kTPWIryusghzp/7AnvM0L97G6qsRpE19EnogUub8ZIoRBude+PE7hm0bzsPatZOWu3GJ6k7sx4o59+NfssSLnXuQWyq9fnaMKbGsa/DIgrU4cNLxv60/hSPFeRgy7n8x+ZBZNtt7+iZkb1qB1wfEEBsyCEWGZYpJH8RPV2FfwSDc38c2xsnymku7iL690AfuZkdVi91Ln8ZPPliCsiQ9UO0+lYGbp+eHvDymNWAaGmKUMZ3idfyF9gvSO+liiAFAa7aMQdnIb4aX/2yIaXZlYRbg5Mlm6A1mUS7sWyfWS7ucSZDn3eBMj2HZ+x0Ry34Qkw5JE7W44ZOxuOf1GGJ9n0FepSGHM5vQZ2Ab/711R1G09m08L9wss+0JNyP7atya2w+LTG9EHUVhTcr1R7F+fjf8sJ+9vaBt7+/gN3mbA1xrDTIFfGVeuIqJ49fWWx1zIL86lG0ajEff+oK9x9xx9e23tkT1VKlZie5visVOkPGLXHm/gR5baIe6yRDjCF+/H+/ltLceLO9bfECpkVi05s1/3tpa0E4ssDIzcPkbt+KxmYuMwc3setsTV+2+OcjKuRFfsBZml+O6t3tgga896nB0Tx7efv9+b4tHUL2ddrs7bz8OrfsbuvRug4w+P0K/zdWo3f0uHu/fDm0C3ggI9/Rpk+9CR6d/tO19A+6aOA6blSBeNPHKb+pM16aJOY7q4mnoPqIjbE7ONpVF5r5kLxptI0+8cj1GjfuhI1tbXDHoNxizw+82j/pq7FiRha4Dr1LLaOFbYUwLaLkTGrcWjHgOY7cGbaerRcn6Ieg2lNoiA5e/eSeem78SpfpDubxoqN2NOdP+E52sPiLuuQ89VmtjD47+yoyhw7hZOBh5Adh4MpUsugeXCXkm5OGoDM65tg3fMZh0dN2R1Rg8xhmjCcZ2Mn2WHmjdN3XGN+cXZuQM6zfxsjl4yoqd0gHPrNWpRNSzLksxtmchK8ebX2z9MRYbKgM2dIqx+nF33OXMKzFnC8Y407iGo5uthWstdq/MQldnDsjIvg73fbjAp2tNfMMfMpPQs269vQvzfOb9Lq6SlokW/Ma+ERzzJmqftePWxdBu5CgU6ePefUuagXvy9rtvSe06ZOC+xZ+q+jzrctw4dow2XwAg/WGsg2mecJjVlWH1nEdxo7NFJ3S9QpjFPfO74Y7+3vrguuGaHgyVR5rLEj4k1WJ73oOWUcW4VjEYYiwx67djwCBRjjq2j659FlcLRgnLpcrSp7OWsR48T6Ng2g2IZX4Pg4r9lpgwfVBb+Bq+Lsrv/zJW1VDeAJpg7Rg/fQDrlvbEE8M62WuhTLGVxLT+cMaQqOvh7Xh3zDW4JLMtvjZhOvafOYTFU/8POmTF0HagybMnok5LNOacfmzUJUn12eR1mmgVMbZHSlvXaFwsLDnhjlG39c7sw/QJnXBJZgaufDuJgKz0HNG3G+aVa88gbubigtaD2jiuP4rV021DrrEtour+Bj3vJL+OJ73sf9FF9VPHKpw+kvH2eHyqrJszcPlbT5jXpjI30kFhY53SKHpT4yzn6V6Lfj4S3dyx5KztEq6BHYeBzHZ4cGmpvy+5+dsXIsjvvb3bBIw1LXGEPxVDjEjfejwxItSekzQygTiKF96NyzJNi11z0bSNyfzQQAYEc35BDxQ0ARsX/dobL0sqUgKDn8HLOf/ixHeQFikpiF3jX7hKrrm9HkCu7zQF2ssoy0HX7fGAsm2IlEqAV9HBKXiolx4IOUSBI47ts262tlmoypoUNcmhfrYfMxUHtXnMrndH/GJSNysImt4mPos0tYWikKkcLYaQk/a297rj3mxKE8OVYzLRfdhl3jaR7Icx9YjX/8Lc09X9weH19eqiTxhS2/rqYd6bSn2284SX8aDzts7LP2aIt3QMKz+40Q0CqaTVFr1ezVvGFbFQ+54je/VKvPqWE09AZ6u8FXLS1x/C4imOh5eePtMQtI3631sP44mh7bw+RPdm3YzsrWTMlB68Ao2gBuaNLRO9bTYasElX+BcgtUVDcKc0juQ+ZQpuR+0Upc/S4k/O03+tLQAN6MK+InmM/QZU7xg6TVkFL4ZtMnrWLv3Yxldxo2WE9nQO1cX4wFJ/CPMmdDTMK8J47t8OAzLE9PsF/jTO1Hf9b25NfI2yEEDq59SvlU9Nz9I90qd/PpN+dC6TlinBQ2H7nPHQnWyj99karJx8neWO7jfE2QKf3vY6bsiMod07U3FYqUPw/OUbF6Fc9XnCKaS2EEOGG3SNaBPj2gCIly3GXwcH3CPrwVB5pP4b9pBUV4oFk+1+2H5YTywrNxgbExpi1Fgu8eIh+K4YQwH1c8j4P2hbkuN5U7OxO67LjMG0PSlUHxyZgyf7+I17dA+NZ+UzRWtH07igcvT1kJW232P487tfl/TH9/Di9P9WgqHeNH0jvEg5Sei0BGOO5PLpkqT7rLPeTEKnxfePw8+CtvsG9df6ahTMudcycGUM+D1m+170+bsUPUeYn0Hk9LQelMexx1pdOzr3JaX7EzzvOPpJlTP5dTz1P/88SfXT5mGnj3TM+RO6mXROojFMOiiozQQqSqPMQzJnuR08tsFrO60OhttJB8n63pAMwDF8JJwFLNna4mdLLjxSs88QU1oaNQ6yWUT+NjUEWkU7OJZlfTIJJuQsjvWHG+kGeoulKh+RgBbWfiNN+dq/oevEUVhWfBgnnDfUIpDmhHfFYlh942UVJSsB4So7dxmKq8/B8jhY8rg14SUerJLQhktb+ZFyiKN620D7oSdAidHk0H7Yq5i955gdOLf+FA4UjsYvxR53zYOIDFomN93Sjx5Ce5/lN0SBU8we3wN9ORZ90BXPzV+GoiMnnGC+dTi6cwJ+LWTS3Y+1t6Lth/0FU7aVWds26o58hNcGC2OJukBDxSL87Z3nMCq/CIfJXbnuKLYsdjyHRuZiPxl7pHazFsRV6/Baf2dx2fdJzDp8EHPe/WfEMjvh5U306OVMdpZLtBfAU3ZPN8c2CpikDG0NZ7GY0e8RjN5i1xcQb6Dn4jXr4V72TLIzkBeA4r6h+cU4FgeE98fEXLGftR0eXkaPB9LE9eYfMO+TY95WmNI1mDT1mQvfCiOxpcWY/zPBRGliE+E7YuFfKHhB4K59bx72VdtbC1BXg/2bJ+HVCW9gJTWzU86xDd3xdWvBfw/e2njA1gdiHG0k93TNIKHUuz3umb3GCvIaP12CGePth2l50RvfNQA3iwk6wD3eVN3GlkksHCwvQ5NB3H37p3kZ0ve9bsOrK4usvgfEcerQOozOFfXWOGkB+SL1WQdG8ELQRCv6d2H9RuRiegufrJ713opeiz+s2odjTgBgsQ1jzdJX8cxM/5HR5PZ+zRhvO4z15n3Va/iBMHz5YqM5utla+LXHbZOnYKO1jaYOZfmvobPwEh2YjY2nAtgEPRTLyZPRs/J9zrU6nxkS6F9FkUm/R/xNDzKmt9VJ9dndGDFUzFH3YXzAlhf3YUBiS31V6L62/R9HjqXP4zj1yQw8bcWaoTndJDx9R3OHSV/SOqY9bps6G0Vi3SFc54XXxIJfWt6yfs81yi8GeU6Fs62n/3t+PWhlSrpNNtSQiAGf8eMFGDzyC9a66fqJIUf6+to3jlPlhe42Z9+WwPpP8eHYDrZxodd38EyeNxcHiGJ9bY+lK/HUqgo7meOBbdK/YfqA1pUZ8npC6LQmWDvuXvAoHpn+IfIP0Lwt9Owy9LTWBmp/cvufZbAtx74lv0B7Sy9koMusQhzfac8/wluBfJeT12kOcacNE3spNaTPJqvT4iia811r3rl37gZ3LRg/fQQ71g7Bk+9Nduvr7y91KF3zkv3ir9dt6JlfFnrwxO55XdAmU+pT/gydb2jc0TiuQ+mKp22P9oAAv8nqfuqXV46bB6eHO2WT95e+dkx+HU99yr++ovqpfZA8Yqz1X8+v4fGF9liV10Q+Q53MkPROmCFGTh/keaSk8daCsV634S8fbXSC8Qu9syPadnDy1uvzFObpTrJaWY3uEaOVx382A4HWEqzXViL+BXsg0ijbmGjbjf52lxZhySwqnIcmn9IgRdHrAeTs0lwe6bfISsRcW3nh6r7FM5Vn3e68vevzG8wqI6uDl2/Zyifxz/qDuXuSgGbYQAnGjrzMsL3LpMDrUFO6BuPfs99+RTeokQeNpsBdQ0wGrp+02LdvV2bi1S7gipSm3N7UNlldMMg6i44m+3b4SV6xFcDPV4bj/tl55lZ1e5colsqQFuKeNAGTlJfAvbK3hnRGv526/ztAD+7yw7y4kRaNpmMT6Tdl4nS8nGJvvoCljRFwkNhaiz7pzanyNy1I3Kqn5MJYXydn26gYw7XvL40Q8Z7eMPn7pciuduvrlmeDshh36617nXltJxtlSVb5u3AIjS+TKJ/eFOsGbFqk6zrQTn8lfrPisN9N13l7rNeR6h65zzpggheC4eQS/UryKONEvsn3oNEQPVuKKe+IbZvX4oX1amBXuSjv2tG/g/thq08dkN7Udbajx7Kux5/X6Q8RJr3tlWZd+R6Ktd/D/iQdKOtZQ3qfXjWkUb5qkEzO22aj1xD18ah9NgI38kSS6k59tf3IwShQtq0CpIt0Xa7U2/qD5g6DvnTWN1e+Owv+AybL7BcJukencxhC0rqfdJtUP7+s3je1+z7Ab/tfYgXu/8ncgvDt2TS2lPnBnjfa9n8KH5T4Oj9QuxvTJ3Vxt+fErO1ew7Fsn/PiyRPFuXJ0p/LgRGz925NM+sB+kH/TiRGT2POLRKB5W9ebrvHOtJYj3hHXjva6Tj2yl/pfh/HzIJaCVCf3aHpfGQ3RaU4tqQ0TyduAPut6+UXWaWR4aId7FxT512rUMIGfcVQX5djexVnX4IklOwNO4TqKRROvDtzepmZPfU2MY8/rOWPAn7HY5CVGa+9kdD8912hjHg7zjGHDsFPZhWfSa+HreOpT/nmS6qetl6hf9LoHg7dpW+RpHWpcMzv0fH1Uper/i+Qw6EtKLL0sjjYP043yJ5VzJ0Z96n/OklOm+trnEbNnz55Ul8H5JUmgdRhinElSN5iEsLCtxX6PFvUWsr6r6eiBwuy94MRfcPcNqg+SgZNpoglIFSypv2jh+sLSifapDaaJ283RUa6GRY3slaArUpqkFSaO4UH5zionvAzjPnBxX20JlsyV9qUrMmoK3DXE+L93q2q4qP10iXqkpVyGvIgkBT98FEosPerUSVqoEfcXnSOniZHM0Xctl+HKR0o7UV0ondrn9DL0Pkhy6W3qFu+7KMfCibaHRkb2jXhk+iSscIPE+hK3qC9CWVQsxLPWm2ixP/kRZC9dgV2VjmeMXksy4upxACjdmQI72KPc3tSn5O8oPS1IJD1BsupGCrrF99kEMlll0oJO0cekS/W3auZ4Hnqf1d+UUt2j91mbRvBC0EcrqS8SyuNrv3AdSPXX61e+5lnrLaj14DgmG5MKdqEi6Ghs6k+yDvNd6zrFkcvUB6MQceqp6xj91sh6Vr+xIXo9okxyUTZnv0GU0lA/onYyfrpjNQpTfxoqQ+8DlgxOnfxvr0lC+qQ5wfBgQX3S1yfk+UO9jwxApu04VKLxk/piwn5lB+W1vLV63oSX1uvGQEPuAfX40pjxCDhd2s3Eijs3txu69KUtp23xtXEfYI9uu3E8TXVdS+Ne50HfG/tFZlvc9MHHBmN+E6wd649i00evSrHd5LY2GWI64o/rqyxeVCe3rtSmej8P7U9qGW5DUBu6ebm/qBeULrQMtc+6hpiEfc8r6vSuEbjb2irbFl8e9hyGrN7kBXX2koVexStXo5fladQWN70/xxdby/Nw1OU1ZeuN4yEr7W28wUYYyWs5lJOu+z1PIDl2if2ixPSSO3wOM63jg3Ua1U+Tidrb2C+c8qU1t4+cr4/6UmhfkBwhbUIGoCQ8kbVCrF0Vdowprb7+hCn/xmeI4RgxKWecdIatwRBDW2P8D/wBOMii6XPL9qenvL23u84DhTEug7dn0zwBx+BboCatKPwyJvrGVn4d0GXEt6zTGTpOmIdDgYE9w5Ur1cu3OCQ3XZepE7PHyMlUhh1QttvshSg+abAQh+0LtiYbv0Kz6+3/PoiX6y0UNHnJE7mv3Zw6SWn08mkhQwyNn9L9npw0OSSqC6VTF1d6OXofJLl8beoJ4L9yAkt7C9gYhFHmiYUbcDSwb/mzSbdvErGwgxl3sQIV2lztoHE5erBeX//Qa+rvL+4bTlMfMCxIyPMk5hoD9TK0v5tAJrtEQ7wuxzjjf6t2cRhiqF95D3ImHegft/4xGcfRwlHoNqSDF6PJepuf4w/WS+0dpM+MetPQL7VuFPqn0091HSPfk5SelW90rnW9akiifhVBJvkGO47Xpbh+8jLDw7Kd0pbB316KrnUfHhym+ptmuVBqK2lxT2X4+wDguuy7ZciZydc0JxgeLEinhPYP9T5bJu/hXC4p9JrqZ9Jtyo2qIeb5VXqAciWx/YfWvnWVGzHKireXgSvfmeCL7WPIwdoKvmcdeav4vR7tF3faFl2RUcBDGY13uT9YwV5zXsIEfa6wBGqCtSNttQtpb7mv6eOM6uSmoTZ1+2BDdVoS/bkBfbYhhhjRJNYBD6M7OYcRiLHeFl9+uwfmmoL1GjqVMMT0HS621qXSENMJPxpxLdpk/gN+NHdLgKdNQw0xAD3veFsSna3GyksVqqypvcPX8cE6jfSUtsal9nb7GJUtPql8VUfJKdw1lfF+JaXzB8kRkqcjU8f3l8I2UZrySfQdeaRq9U10Wwp+VwwxfHx1CoimKIuWHSPGURTGB34zIHsbU0BwWd8tjns3WV1DHigoPocIgvj7j3eobyq1xYJbjG9OJJacAAAgAElEQVQyc39J2YU7oeYXOYEbzUFb7QId5ZZwwaSLR2+8HcXiGLs8hS6nT74MeyEUgwiCNm03HdHrSDyns+9kBPGLW2/HI0WWwH9N2zYycP3EadiheDoY5PW1mz+NXr5vIeMXIuAbmhwSKW1KFzKJGEpouFxiS5U48vMjTJjqnfBz/ZQV7jGihuISf0VsQxaMsczk6pi4UDuFyUXbdK/lZp4/Aa/SQi3rerxcIB0TXbkIz75hOBmDMkuBR4x7spsWs4mK8H02hUxUqOMNR2/sbS9Cs87VxwllEfbZ0D5rlxXwVjaswAS/hctDcXPkwJ5+fZGgCO1nez/6R4tfxX+KE9oyhW58GSvkOEU0jiIvQkURFyhX0DznSp+knnXv8y6S7i8JZfLyhmPw98UVkZKIy+RkoC0IwfqbgvXSePHKMPfVwO0qmpyhb92T4eLkS6eiuQ/jvvICvqC+GHFd0ZCtSYrxj8ozxaoKEFF8TQ+iMcVoRn02zPCmbk8K1wcGASjIeSOuHcmTO9ZLilnmiGKSV+/jvjTE2NUvF6A7nL6oez76SP3/7J0JeFbF1cdfJSmf1M8P1Ir0U9O6K3xgSymiUlHcEOuuldZqFbS4Vm3VKioJBpAICGGTfd+XsO/IEsK+hC0IBIhsAQJESERMQv/fM/fec++duXPfLW82OHmePHd5Zznzm7lzZ849cyaKNlvaPk344Fq3rLuj/O74OEbsldboeMQs3D3W8l0YbGkSjdfktuNJzLhBYZtjSDY52Pa32ItcAUG5Wm2dfC5aH1j1H7kjr2//9y+VT+kjg7WLcJayetooldPvSHIEGV/SDlN2u/dLK9h9yqeClyaxIiZYJfFvYROwXmC6XXP0aVgdjc4LvT4CTCWA6VDLfJnpzPRcWn3PF+oS5G9oZ2xZKA0WRH4RdxQ+Qga5Lb1QC3dgrOE4uCbumpKu+eJnrQ1P9C4hCJKF8RMNYkQZjxlryeUlXU786DvwZnP2yH4kzuZj+YQbY6CIsWRK9HaMJd8vRzvhiNc9iPTUm7dMEncxyLP8BOmVUw4d7xl12qG+RJKW3ad9ehM27ngGWD7hQt22t+l1cwoVSfc7sS13RQytDQ/HeR4JXoKD6a0Np9rys20pcH2eI3Ka61hIuPoCHT/dgIQs+xKDKVZJTnEsB5ns7Kx+1lBgW0paH4URKb/0gz07Qekk2jZLA0FPPyKlHvlFMHlsCxDpY0H0/axHOnv7Y2UQSwNVH+6edIwb3n5MH87nbsiJUoT9rCYbtV/VBJFvhZTJCk4WAz5O7N2JRtpmaUmPdpxy9juMH3yZZ1claqtepUch1kyuZzgTlZyouwW0z+ndoZlY0O49thWrHcn3hKzwtNtw+8Zy9W0p/8CiE8ECOr+5nfVeM3S8d7kQBdXW72lsntEUF4mdqAaOxT6NkS1Fl472u8fFy74XTBEjK5mD9QdSfnRB/XsZjh1JJu+X/CLsWvCY4YjX3dbU54zi22GIiz0hLUWf5lt+AmQdo2izpVXEOBIUYsO0O4w2ZTNwfrTOonHWq7G08qQrP8f2sifhg+abXV4/NlH1/Wam9KH6/nl7cWzNu0iQ3ltuwSJ/V1Abspe3WcnZ70h1kw5qF3Ybc/InP3vSGMr52TzztFE1gHotc1Z/Na5piXfyA+i/U13DqI3hvUn1E0F/6E0kujuSRYxIYtOmTdGlxLFiSkAoxarmH5nAh680IGVBJIN+WFrhOiNnI114U5e+lrjI7e6LJmKXlOQH0HubcPpGXrSfwDXWlqPyZM01QNF0NK6US3WqvlDpq18gUa9Rt61POt+DT9MVy56gklgTveRH8c/RDVHNd4AXeQduepcP4OJ+vbHR2FVKWGLMQ9eB11gm+sokJOKvltbOFokX44GZG81dgwwv+V3xRIq1ftw9QfZ08N4yebiT74zE6rh+yECsPEi7PwWFavxI5a/ZrzuWB4lnf/UyPMyvDGtdM70c/QcXiny7h6HNqFTM3ppj79xiWMZkDcdfvgixq4qSVMVd7sK4CcmYtNm1m9GaDuZOMj4T1x3z2+D1mbOxwd5xQuwwchiZ883dzWTHmSXInt/CWApo7GC10ZWPvWuS0mapTbnbGQHyGZDYPkOoTdmymU7z5F2sykcmEtkc0NVB24x0pKZWk7bmpTDG0f4afAXumThdsUaTQtoXEbdZKybtXqSzrLMTV04Ks/qipfAh0eF6tF6sGfS6HF47z5DV9898Af9n+BrwKssi72d3YNiI1w1/BTm0a5fxjsnEcGN3M9XxLlkpWrvuUBtUyidfevsx+fcQV1Y79bzn7GgR9rN2POfE0686P+nPQsokogV3zutJONI2a/uXEssU0uw2LnZUnDhW76DeLGcAdSd8A6pv8XV+2YxHcKUYT+h2c/IIGmxiQZYecbiiz6eYrliaepISN+x3WByuGdwLi8k3WKhdk0D1LnaDWx7We8nIvzTbV1N/qijD7Z2Dvjtq72wpdhY8eWijUxcux6TU16iTR+JDW9G6l11SHKc/oNA+x3IYO1LfF/jyLcw5KHybkWNVx2mxW171OfOUifi6xq6R92kWD7LW1FkESciiaLMRW/kdwfxJbQ0fcM4OnYB49hZMbIiLPJtVWAKezUfm3CeNZzPs7autbaHdlnBSce0L73NsLqEUu7HdhPfXqM7bo+n7rcxI0dC9NT4YVCeIIjPydwUpcoV/m7miDYpdJNd0RDN7q3BlTETjnu4f4xsa24idKtfRzpN10GZ5rvxx1mYWzfzKy9mdnHnusDV3bCQ/bTTfeyvkzqE0Dw2qRLIypl2T4jrfg87r1Xr2ShfqjkcREyoC/14+BKqsr55gy4S06KwHyFfDq41k7OVubMn65Z1omlINjr8YJfyPW9G378XWnu/y15OaXesj4fOK9BEjd3B2J65TxtCXQT+LBN1E0UJBL2KxNtpv4BLNFwrHeZrMVSiTbvwqARepmvSIFTGnsXVWc2Pi7F7XbZx3vBH1Uy4qtUWMQORo/tVymNfugZC7dZXsHYoWxoROjef6cmdECLXWXA3v7Ibgl7dbDuOcXo7a9lETjy/YZewa5YlXqW5YgwhPGfTKSSE6TYw87UOkoTNXLsxEb2P7VbXOxLXGYSMNbHXPFzF3DXpNnIXInPmAs/uHpzzycy+UsGUvk1XRlgL72l5NkZDkZx0nwjq7QGjZap5tz6TAyjLkIX8pPuhaTdNHK5zshGhZiVWHHv5mQJJHL7+PA9CI+1m/NmvKVnPgCK8/jFC+tTzliXRwHVwmg4eUR4T9rMBLbd/Ttp3nSu67IpUpdL8sdqoip+tmjUfaZktwMOMt3GB9kFHbSTDHlmpY41o7+bIbresk+MTCGQc4LN356RRqQd9hur7LkMZRArvTN86l9uES3T4txNZ51gQ35QWMV3dBstqHV1ZnwuQeswXtx42+/I8Ykk1fuomfquS0hQPOZhmK5oBrXEn9gdwuXXHU0/IYO9rKQLWu43DNV/VwWaK8DC4aRYy95bvfs+rbPk5g6bgbzS3FlbhqvUbeZiPt06jOVU7mtWcJqKjLH3djysgbEJ8Yhyu+7uXZ5UytbvuaFJs+H3/scD7bKtvPoq4/iLjvp9yc5yYQdGvtSLkC8Hv/drwfLwz8ldeyPWjf7/244SzF1Ned0d8obZCeVU+/ZLdDte8XA3laHqbLRxOe0BpH4htsTOREoI+whnzBdohyogQ9Y0VMUDwV82NVdtZrPkARLMOwJjoRmapa1WJbGihfV9RaE848ew2uZ02M4nDJl83w5ry1yMudjVe+qDyKGCG304lrzBuDeddXOjKJATntdQ1KpN+Niyg6cAgnlb3wXPdLTQuYpEtwXZ83MXRzHg5lvII6noEyTZxDdYou6YQD2pnPoV4n0wImLvk6NBs1FGuPHcLsEXVioogRuQXbMcR/4FaC/J2T8UG/G5RJt1exIr7u7lmdijbanbu84elF5J+3i5E4PZuPXauU9Dtcjlv6mvVRrASvnJdFyN3Qz8VIOJlrifbLd/o6wCv5fhcWKLt2Ve90C+412ohPqYtykTHbtdNX0iW4qmcrpKzQ5BOVIkbQFW1jGjoP/QNusNqu2FVH5JO8ZKPXeXK5yCTkogFHAAFf6zhqHSXI2zoenwy8Db9MVhUl3mc44jZL2QAoOpyBnoPVfLx5UJRILGKcwVwcLulSD/eO+AKTtuXBp3UAEfWzJcjfs0DZ1c10jmi8Y/ycZAfbbc4zCY60b7bC24NWzcBUzSOSflZUQtDBuJmf3HdFLlPIybnm/SKeu0jaLD2nSa42Hqz/KPxuKUZOfgF/6PZL22Go4fB1SArmhukw1JmYePt9at8lxzZg/MSncNsXpq8hpw1rxitWJPEM9Rvu6m/C6f/P5mPbkg9wf1frHU5tRm0fJJh0NJ34PjhoILaqzvx9FTGA7bcv+WEM2WNafpec3o9Vizrghd63OH2N6C+734s2aZOw8ZjraaU+OegEiPo5Z3lSNP1TeYwdC3dPwQd9E6z2VB2X97DeRTtT0TAWihhRZxH1aa5KFu+lGc952qGqiBExImuzkfZp4h2xBmOlZ0L0543QaqrPZhIQysJWuG/CQuT69cOuojqnJfjum2dxWWIcbpuyBqecH5QzUg6pz7FLIdzxLnRSLSYi6vudLMliI6B10kvhIucqYkptUDiaH5yC+d/9qPe7VbgHSxdonlW/MZStsNK8h6i/UeYv9Ky6+z353GdsoI6jEsN4F4u2mzsDrb8IIK5HMtYUEMsgR7fSR5E9SCzfnzyKmCprieFbxKr3Q5VVxJB/hKAdhbs+aBlTeFpId0w+D58AKXfcX6DCj80hmQATYAJMgAkwgdgQsPx2JLXAiIOxSZFTYQJMIIYEyBoq6TYkb/ZXxcQwxxBJkXLHUSyGiMA/h0uArGB1Fky+aZDvx9gs+5cUMeys15d6uf9QFRVipoVKHJrM2Op1VKUjSMuYevXAVrI61YXje9ERcK/b1C3TiC5VjsUEmAATYAJMgAmEIJC3rgc+mb0Y39KOf+KdvNr0e+X2XxIiGf6ZCTCBciZAHzDjur2PxcfC9SwdeyENn3eL38XvkjW78MU+u/MsxSLsW/o31Al7cwVhvuv2hxPKaio8nKyICY9TuYequs56yx0VZ6gSUM3Gk27C2xn7qoCPELUgfM0EmAATYAJMoGoS8DWx73gfem2rDF/aqyZXlpoJlD0BskIJoGbvTkgvZ2WMp+/oeD96bwtn3UzZkzk3cnDVb/8h+DYMYwC5TuJwxcChYcULxUtSxIjAVdESI1Qh+XcmcF4RIEWMy2eLa4X1eYWCC8sEmAATYAJMoCIIlHy/DdMmP+XycXYVGkXkT6YipOY8mQATMAmIyfobaD5uQYR+ZkrPz570d7gcv+U+o/RANSkIq6c/6nxcacKKW0adBPP15xMv1G2PIubo0aOh4vDv5UAgOzu7HHLhLJgAE2ACTIAJMAEmwASYABNgAkyACTCB8iTgUcSUZ+acl55AlXXWqy8O32UCTIAJMAEmwASYABNgAkyACTABJsAELAIeRcz27dsZTgUTYEVMBVcAZ88EmAATYAJMgAkwASbABJgAE2ACTKCMCEiKGN41qYwoR5gsK2IiBMbBmQATYAJMgAkwASbABJgAE2ACTIAJVBECrIippBWVm5tbSSVjsZgAE2ACTIAJMAEmwASYABNgAkyACTCBaAmwIiZachyPCTABJsAEmAATYAJMgAkwASbABJgAE2ACERKQFDEiLvuIiZBgGQU/fvx4GaXMyTIBJsAEmAATYAJMgAkwASbABJgAE2ACFUXAo4ipKEE4X5lAZmamfIOvmAATYAJMgAkwASbABJgAE2ACTIAJMIEqT8CjiDl69GiVL1RVLwA7663qNcjyMwEmwASYABNgAkyACTABJsAEmAAT0BPwKGLYEkMPqjzvsiKmPGlzXkyACTABJsAEmAATYAJMgAkwASbABMqPgKSI4e2ryw98qJxYIRaKEP/OBJgAE2ACTIAJMAEmwASYABNgAkyg6hFgRUzVqzOWmAkwASbABJgAE2ACTIAJMAEmwASYABOoogQkRYwoA1tiVNGaZLGZABNgAkyACTABJsAEmAATYAJMgAkwgUpPwKOIKSwsrPRCnw8CZmVlnQ/F5DIyASbABJgAE2ACTIAJMAEmwASYABM4rwh4FDHnVekraWHZWW8lrRgWiwkwASbABJgAE2ACTIAJMAEmwASYQCkJeBQxW7ZsKWWSHL20BFgRU1qCHJ8JMAEmwASYABNgAkyACTABJsAEmEDlJCApYnjXpMpTSeyrp/LUBUvCBJgAE2ACTIAJMAEmwASYABNgAkwgVgRYERMrkjFO5/jx4zFOkZNjAkyACTABJsAEmAATYAJMgAkwASbABCqaACtiKroGOH8mwASYABNgAkyACTABJsAEmAATYAJM4LwhICliRKl37dp13hS+Mhc0Nze3MovHsjEBJsAEmAATYAJMgAkwASbABJgAE2ACURDwKGKiSIOjxJgAO+uNMVBOjgkwASbABJgAE2ACTIAJMAEmwASYQCUh4FHE7Nu3r5KIdv6KwYqY87fuueRMgAkwASbABJgAE2ACTIAJMAEmcG4T8ChieLeeiq9wVsRUfB2wBEyACTABJsAEmAATYAJMgAkwASbABMqCgKSI4e2rywJxdGlmZ2dHF5FjMQEmwASYABNgAkyACTABJsAEmAATYAKVlgArYipt1bBgTIAJMAEmwASYABNgAkyACTABJsAEmMC5RkBSxIjCbdq06VwrY5Usj7BO4j8mwASYABNgAkyACTABJsAEmAATYAJM4Nwi4FHEnFvFq7qlYV89VbfuWHImwASYABNgAkyACTABJsAEmAATYAJ+BFgR40emAu+zs94KhM9ZMwEmwASYABNgAkyACTABJsAEmAATKEMCHkUML00qQ9phJs2KmDBBcTAmwASYABNgAkyACTABJsAEmAATYAJVjICkiOFdkypP7fHSpMpTFywJE2ACTIAJMAEmwASYABNgAkyACTCBWBFgRUysSMY4nYKCghinyMkxASbABJgAE2ACTIAJMAEmwASYABNgAhVNQFLECGHYEqOiq4TzZwJMgAkwASbABJgAE2ACTIAJMAEmwATOVQIeRcy+ffvO1bJWqXJxPVSp6mJhmQATYAJMgAkwASbABJgAE2ACTIAJhEXAo4gJKxYHKlMC7Ky3TPFy4kyACTABJsAEmAATYAJMgAkwASbABCqMgEcRs2vXrgoThjM2CbAihlsCE2ACTIAJMAEmwASYABNgAkyACTCBc5OApIjhXZMqRyWzIqZy1ANLcZ4ROHsQs8fUw8UdLkGjSenIP8+Kz8VlAkzAIVCY1Rctv4hH9S5/wei9Pzk/8JkPgRIczHgHD4+Zjj0/+gTh20ygIgkY7/iH8Y/0PeAmWpEVwXkzASZABFgRQyQq2fFc8xFzYs27SEiMQ9OZ2xHWkDZ/Md5NCSCud29sDytCJatAFqfqETg6G698EUAgMYDAl//C0u+rXhFYYibABGJD4NsZDc2+IDGA5vPYd15wqiU4uOoj/C45gJr9B2JrwVkl+BHMHlEHgcTmGHJA+YkvmUB5ESjMRGqfixFIugnvr8mD2krLSwzOhwkwASZABFgRQyT4WIYEDmDKkMsQ6PgcJh4K79V3YGkrXJZYE88tPsAvyzKsGTXposNrMHbiU7jti4tRTSgkki7BVT1bIXnJRuSVqKHPseuILGJOYuO8V/GHrg3x4dpY2858i9SeemVQYVYqmiUHEOj4RwzJ5m9650QL3JWKhuJZc//Tc7d0C/LD6zLLAEURcjeNxScDb8Mvk6sZ8sUlX4VGQ5IxaVseissgx8qUZEQWMYfmo33/2/DLAUMRa5XNkYxXUEenDDp7ELNGJqBaYhxuGrcYeRXWToCSvUPRIjmAuG7vY/ExnSCVURFj9bPu5y4xgOqdfoXfnydtPLLnrSzfeZFJUprQJbmz0DalGr9DSwOR4zIBJhAzApIiRqS6ZcuWmCXOCUVPoKCgIPrIlSxmye6BaP55ALdOWo1T4ch2dicG9r0Ige7tsfrcwRBOySs0jD3JVwam5gTxWvwr5gqHCi1uKTOniUVZcPFRxPDXvFLWWSWNrlPE2M9gRU2yC5E5oxkutuVQFEVsMSY3JqrDvkPKSRFTgoPL2yIhSVigDMG3FamT/XEr+va9GIHkB9B/p58g1F9WJosYvSLGVogmXYEn533LS1jslk51WBbvPDuTcjkp3NoNd3weQFyvHtjq12TLRRLOhAkwgfOdgEcRc74DqSzlz8zMrCyilFKO09iQ1gDVkpqi967w1hid3toZDZIiWMZUSgk5OoAfN6DzV+Krd03cNXE6th370bJEKsLJfSswdmJbdFkfa8uPqky+LAelOkXMEcwdJb5+18QfeXJQlRuOV3ZrEn/t2KW2X6KiU3uxbMYjuDJJWKXdjyH7dFYG3qRidcfsg4Xl1V34JH0bjv5o5V90Ens3jsUnI7sgnZfuObjLWRFz+tu+aB7UAsURrazPTOvVONw2ZU2QDy3UX1ZCRYykVCzCyUMbMXHs70wlZPLDGLInvHFLWXOu+PSpDqu+IgYoxJrJ9Yz3KVtdV3zLYgmYwPlMwKOIKSwsPJ95VIqyn1POei1fLxcPHIvw5hInsHhMAgLJT2LsQWXykTMU938eQOCLtph3TFNVpExQ4xblIWvl13hHmI5LJvYpmP+d5nOI5SvEmBidzcPq2W1wZ4q5VKd6p9/ib/M2lnq5gGlubg5oSo6tRv/hdyLBkK06Lu/xNwzelu9dknU2H9uWJeGpr36Ji8UELbE6Lu92L96ct1a7bKjk9H6sWtQBL/S+AZca4YXZ9S24d9RwbPxeYbu7L5qIMNKgVMPYc6sE+Tsn44O+CbJM84MxEnGmIcm15EFwbTV1LnZKvgWCDfzoa6Y6sLfuG1+mC7EjPQlPdb8U8YkBxCVfhxaT5ngcSbp9QdDXUPek2CkyyaNYB3isBlwyRdVmVUUMff0OZR1RhNwNPfGcVV5aVpayUnFMeDIdH3wpJvh+ylFrKWHirWi/KSwbNgdRuZ65OB03n9MmX8QbS2iCP6dhtllrcn3D+OXw1zm4ZPAPFJyKRhFjRDi7Fd16iLamn/gUHc5Av+F/wA2dzDKby4ZSMHfPKW/fgSLk7ZqHr8c84ll26GkfAHbMamIsTdQ/B0GKU5SLjBnPoZ4ik7afpWREnNlt8Ieu5nMq2u11fd7E0M3K8qcgyg5avqPKG3E/6/YTZT/XrueZZBZHkscOp+8X3DLtmX8/LkoMoM7Iechzp2WdkwLM/b6kstl+asgyLsTyxJLvt2HyuHut94p/3x+NTLbo9M79og1mHVHeKXYgcUJ9p8LybB4yptxhKD2qf/UxlniWNZVlnxbk2T27F6MH1kQgMQ4tFux3laQEPxxchbGTX3DaK72Hte88q9zGe7UEeZn90aaX9a7scDl+O2yw91189gfszxyLDkOdZzvQ4XLc0vdNDFfHBUYbFP3DAWyd/xyuSQqgete/Y8p3p3Fw1We4W/SHHerj47VefyjhtQ+qN33bpvel3vdPmP2sRdd8D5vto3D3DCQNrGeOW0R/8HV7zNGN1TR9h1hKnbJiJ04Fa44iz0NT0KpTIDzL68JM9O53Kar5sHQ1ED5lAkyACUREwKOIOXcsMSLiUKkCnzuKmBLsnNscFyXWQduVumGnFzstY9IPVGmCqE9PN4gVOdBA1hk0uAYVOr81NBjv2Rb/Hnil6StFGmyX3ncNydRw5L/xZGfT/4Ikn0euE0ifUM9QKEjhDLn0EzWdgoHixvVIxhr3si8qc0RO7EhB4OJpc/JTGhRi67wnzS/9dlgnvj3ZMJoGDQJ15bMG0R7nj9b9lCfw3nDrq6aUj/fLrY6Te/LktFKSx5GXeMpH92QjRJvd8jlu8UzM5AkC+V8IvgQh2FIS1YrGslLzc559YDye7lgVHGVbnDrfh+f7C2shtV50z2kEbfbwDLzUOYArhs/CUacRyGfH5uP1LgEESrMkJaQipj6St8ofSEr2DsejnTT9hmCgk4Webw8jwczLifonf58fMgbjihQEujx8lAYluQvwUc+LZf84FF9VCpPiQ1M+kld9bul+2P2slpP7eXaVm+QheX2Okkw0+dN+TDiNdZNvQUB5X1IZzL7xBJaOuxHVQvTTth8MjUyeOo1CJqJA71z9+5pCiSP1nW6WTp/lkcmI6vwu969mm5UtA6Pp0+R+1i0tUIKt024z2qX8TrLiaLgKpY3XKojK3RBtx+vfezUHT8QBt9IgWLtKug3Jm13KcSNsAlqNfQE3Wh9bBKvG4zrhr+R4Xsj6VTLW/+CUMPz2QfKrfat67a5XkU8E/awllvkeTsATY9sYTp/VOveMWc5mY/iASzX9vpBNlccpu3NGZfP2r04Y8+zEmneQYNV59QGjwf6mVUJ8zQSYQLQEJEUMb18dLcbYxzsnFGLW1zLPC9QXFy1jUgYbrvDm7ku6L4o0EPMqaY6sbIenRvXH4p2HcMpyOFt0bBNGDjMdHd4/b6/8Bdk9GE+6Bs/OXIyd+cWAsEhZ+BfDceLFgybikEuuSE9pcC0GG3Epz6LXmp04UQKIr1SjhojdJS7GM4tdOZBMX76FWTknYK4UCL5saMec5/DslElYs5/Ci695i9Ghl5j4qMqNQqxL+62p6Em6Bo+mzUKWKHOwP2sAL+QfsCnXlilv10x8auThtag4vT0VTYVVk5srALEUY8WCt/HeN+6vjzRQUmUVQtGAWB1w0X1zsH7XuPFYf1gssypC7ppP0VDkrQxKpSJag2Bp8iQFoItgslEY80ht1juhp4mXysk1QThk7vKgn6g4+dCEqGbvTzB91wnTkarxZXUA/iwcEypWYqTwDKT2QJZieb/vm6dRM/FiPGdFb9QAACAASURBVLlon/xcONmFcUZ81AG7fC1PcsJIVgrirus43DRqstlmi/Kwerrp38TznEbSZn9ch8+7+Sg2SA7ruUwYswjH6V6kR0+bK8EPRzLt5RFePwYlyJrxe1RLvBgPzFyLQwXmc1py+jC2rUzFS6PHwf0UGeIcnY92g95E/zVZdngU5WHTghcNPyNx/YZgr3syWLgOnXtYljYpj+KL5VlG/+RfNOp/zaWN1HcYVnlz/mzk4bbyMNNx2kjN3u9j/BarDzn7Aw7vnIeuo5XlTzRBjUIRE3Y/KxWQ5FP7GCmQeRFENjm0ZfGZeAVaL1fUe9TeFN9o9K5oPm+v5RdGVazKOQCW8lf0sXNWI9daVlZ0LAszJ5rWJ7K/tshlohxNyylNWSiAfVRZFmHfslfNtufj4Lfs+zRXP6tas5GfOs97cgcGDH4WyUvWICffWr4r+tk1HXCHcKKuKg9tBZTo9+JwzeBeWLxb9M/CWmQU/iKUJcnPYOJhGxSwewCeG5yMSZtzcMKqO/EcLZ5s1p30bqJ2ZzlsPpIzGk90NPvYuF5dkXlys2lVl9QCIw5SHpG2D4pHdah7H1MY6xhJP2tFcX8QcfcHRYe/wac9L0IgUVaYlOxMxe+TAri4X2+sPXzKfueJviN1+NsYZ5dXkc11mZv+EmoLxdWMrOC7ebJFjIsanzIBJhBLAqyIiSVNTksiYE5AI5jQhbOMiZZVqF8UyUTaMxCSRJIuSr7thtsSA5AGNiIEKT06/hEDv1XM/Ok3zWRASjzEBQ2udVt90m/SJNWyUgh8+S4Wecy3Q2Sm/EyDDyl9EUYsw5r5hGHebH6Nqo6rv/7ImSAp6Zgm7Q2Rst27vIvY1p+yHs63fBrwX4wH5mSF4QQx2MCPJuHqJMm6n3QT/rkqV9nZJcjAm8rmmRTTD+oxmGxKWGqb6oDbasveLdpJzleRPLoeqqlfQZXkgZNIH3cdAp3/hmm57tm0GdCsb0WxR5M1ZXAL7MHQfhf5L//z5O13g/jIihf1K6enDfolp71PbUBjfWVZs6hKt8jarMXC1aeY8Rujx05Le2W1l5ADea381k17MuVlVb1ra0zYoz5fpMAL9zkKkjktf3KVkUKLJZO9Bl7jWOF1uBoPjifFJoWyjlZbvmLYNHg3xsvFjGG1PRNOWxkYbp9GnDR9L/WZal9O98PuZ6ViURtW+xgpkHkRRDY1NCkYVCXhyfUf4DqNlRqVodn4Tni2UwAeCwo1A2s5ZMOpm719LNW3ooyOVCYzyzzMH3UVAomu50GVxb52s3SsJeK6/RMLjugU/uXRp1E/+y8stRUx5seNEaNNa8rwPyJZbdxjiUHlrok/ztmqLJeh38JoX4Ij9Wnu9k/tjpaG0fjEViBp8oiifZjVSGmFVsRE1s+aqZuKmDjcNHYBcpUdGs3f5HxPW9akF/frjyy1i7TbXYgTi1+pFOkhsuCfmQATYALBCEiKGBHwnLDECFZi/q2cCFhfXVSFSZDcTad/XosWOQp9eZXD0UBS/tJHMQuxZ3Uq2rh8pbgnhOrg3VbEuAc8lFSMjjS4Dn8iSs5aha+Tenh2ylgsyz5qWaH4CHU2Dxu++cTlU0ae6PnlbfqW+QSPdbW2sE6MwxV9OiNdUgDRoExO081VnEts6Ytv59aYFdZKNcpDHoCZpaVJuDqI1Q2uffjoblsDM0luXTj7S6dONjWCY8HgtjIxJ146RaVVhpQn0HZgQshlCI51UPC6UOub2qD0zFiDdOmeWpxKc+3XBlzKVEnBQO0pOCen7q2Jpt1e92H8INNvRNOZ240vqOZkQFVyRQiIJlPKcof/HTwCyookO2Fy1ir8RF3d+02kZmzAfssyxg6knBR+txCpLp8y0rMqcXJHtHxiTHwMN1j+tQJJV+CetHR5u2SfMkh5KJNU0/IqjK/RJA7loemXqS07dWdGovtq26ckgx+pvah9jCZWENk8oc9mITVVtVKzFA+K5ZqIS2VoOOx1Y+v64EsUnfAye6XNq/UdoUxmmSLgY/eXzZGanmqUw18JI1KnZ1uRW3lG1HolVlL/5dunBc8jrvOTGJrtneGXHNuA8ROfcnwtSTKpbSUSRtRSSpC3dby0bbxUl+72b7U7W5FAihjb0tGbPzGS0pTKoLPsMVoiZo8Q1rqh3nmUZ/C6U59VnbKFiGiPtFuX2HK8yx/w5szZ2HDQsozRRtDcpA9cbqaaYHyLCTABJlBWBDyKGHbWW1aoI0s3KysrsgiVLDR97ZQGRMFkJFNgxSxbF4XSdtal05ImnfPRYOvMzYGCOiConIoYy2JldhuQQ1IxkBJKmRfmapz1nj2IWSN1fjOcwZE6iPWyLkLuphF40/LhIH95imKwRYPEPv2xx2u44c3eHrzrBn40iFYHvtZ9daKhSV17yxrYetqEJzCVXyebJzCozTrLMyzrIK2i0lUGa2lSwMfHhpkTsXDqVjfI9tS3ZYHmbBNv+XTydeLrLVfF3qFyq20gVooYclprpW+Y2zfEs4Pr4We9e2P7TzTpvQH/3mB/Uo8cidLmio6tR3/DN1Ucrhg0En6bzRkOLQfcYDnJFnUvLNjaY6bGWW/wren9Jl5KUYpysWbBm5b/BsUahxQR6oROupbryZx4JeAfq8Nc1EV5aCZNNLlUn1u672n7StH0l/SMy3JrwwaRzRuefKe5lLDWs+i805xYThloaZLGAswJbitudH2Afc/TP0Ymk5ldBHzsvvwG3NP3WlRL/C/cM3OTYiHiKkSUihhE1KdR/+HuN00H+G2mq47jTdmC+VYx2aptJRJGIg/HWsiuK+kZUpZKKn2Hd+zizZ/ak2/6Ij9P+xCyUVqh3nkUzs3Ve64+qxErYoRIhTswY7JLSWwoZR5E++VhOOsV8XVWRuI+/zEBJsAEyomARxFTTvlyNkEIVH1nvdYkM4IJnbmMKdwtq60lA/SlmnzRWJMjCa21VjmQdBPeWOLahlUEUgcxFJEUBpoBPwUp7ZEGQ1FNEAwfCt9gpP2VOg43jV9mb30rZCMLoUDH+9F9/X7bN474LeK8aXArLWOhwZY68AxChpaVaQd5uniUh27gR4NoNX/rfth5KPn6tQklWPiDUopI6/KtrYgtpnpFpVwGmkT7+4mRw1OOoY9kXWbxtZShjrIodAr+IajuvANw9wQgqvZvZ+rXBkIpYtQ2YyfoOTGfFZOPcf5VMjLWd0aDDqbS1zTBDz89Twbihq7NUR+kOG7VxRf+ldYt6442qXXMZUQdH8eIvW7HP1bbE34kRk12bU0vUou87ZDPI2nZl64MOmFd90x2AYTdBqw8dM6IqU9TJ3d0P+w8XPI5z3gY9RtENilJuiAfGpZvHpOp6ivKDCyVwVaw+/uJkcJTfuEcI5DJksyykIhwaVK26fdKOImWHe66hYy8XZqxI+nTIs2D0g6gZr/uWC5ZX1B/p7YVv/vusrrOaRlrYk3cP325bOVGfYJ7XKI+d54w3vyjbh8RK2JUFq5yak6jUsRQOkUnsXfLVHQf3gR1DKfFNfH4gl3B/b6IuBY/26KI0uMjE2ACTKCcCHgUMdu3by+nrDkbPwJVXhFjDehCrmW3AVgTBc9OQXYAz4m5jMl0EmgqHVxfF92haYDsscIoQf6GdrhRXT4j4noGM+4EY3Me/WBIzr8kdwZaC4d/iuKB0vcOMIqwa8FjqJkYwQSIJmuSSTLtKuHDXRbTurIUaInX4t3V3u00dVHMwZnqDNL91VAd7EU6uFZyVQe2ys/OJQ1ww/+iT8pG4Rz62Jp3keCrqFTL4JRXvyyB/BPoJ3KOzN4zstQRE9hjuwei+efykj9vjHDvEJ/KpIiJos0a7UEsPdph+OExfB4ZS+xMpfHmGQ09z164hOxw2jZ3GptnNDW2Og5fMVaIDdPuMOLIigerPSU2Q//vZFO0ku+Xo11Xb/9hy6Y7oT7V3efQl+UwLBopSXNpnnC2GaaPB+qX7WUXVkqu3ZoqXBHjec9QadUjfawQitljWDwmAV5fUWYc6svtOqXy+uycRP65wm83JFv4MlEM01lvOEvzqD8w++uSYxnoKBy6J12DF77Z5fVlg/Lo09R+lkrld6QyaPr8ol0YMUAsW1TfRxRHve+TB7XxlH9g0Qk5TNGeEXhMOOItpSIm+vZBZdGUXxI1in5WqIRFXyqNMaREw74o3NoNdwin/G5OPrHJX16zOXtK4ZjeJ3G+zQSYABMIg4CkiOFdk8IgVk5Bqq6vHjJxDn9SSJNBvXWAD3DblHs20sUOIqojVIq2uy+aiC8kyQ+g9zZzt4IfjmzDvGmOU1p18F4pFTG7h6HNqFTM3urspABhGZM13Nx5QXG+mLfydVxlmBi/hTkHzV2DTu5bgRGjm+BSa5tLe2AvrGTsnaUO2Ds1CDPpH07sxrIZj5jbTSvLaGyrmw7X4y9zV8pf74i/cjQVaAEEOt6F979ZY8fR75oE0Ffzmv2/RqbYxUns9LLoFdxgb9WpDnAjHVwrAmonxUoY69KchOi+jurDgyyCurfGB4PqwH+ipCsDTbL1yxKIa1zne/BpumL55SOOedtSjiU/in+ObohqEUykgyZbLj+SgkFtAy5lqltZ4LYUC7fNWgqGxhN64rUU6tNMZ7lxvf6Fz8UOZ2FPvn2g+LU5mpQlUr4U/wjmT2qL5EXLkEW7hVg7jy2Y2BAXqTuuYQf69hJbXYtdljaau7MZOyx1xRMp5s5IsiL3COZPeApvzl6MrEO045pYGvkDjucsQ4/+VxpbxsrLaByrmyv6fIrpO0L4rxJFsb/+W7vJkM8rv12T6PkRjrhX7MePZ81d4Dr2cbawVftyjxKDEIZ1pImnpn2p8Wkbc53lpRrWuiZF1K3DP8DTX/grtHVlsBXwuiWLNtfquH7IQKyULDd8hIlQJkqFHKZ6d4SjEHT0srSX+fgolMq+T9P1sySv7kjOiQO4dvQc7Bc7GglLjI0j8HYvaoNqW/GWW5eyfY/aUeK1eCtDtHFnR8EmtF29W8Gg9h3UZ9hhNPmXon2E+86LZmwQqSLmyMoktBW+8ly7YRr1scrcHVF1hm0ztk8sxaNk6Wv/KJ/Qrkk6/1hySL5iAkyACUREgBUxEeEqv8C5ubnll1ksc7Je8n5f97xZBfPv4g3t3LFeol/eiaYp1SBPCpxQcDl0cy+JEOc1u9ZHwueKQ1kR1TOYcaUXo1Pd4Dpo0vQVWl0vblxrzHCPzsXrYttiT/g4XPNVPVymWMSQPN7wlkWDdrAcyv+OOigVk7ngvmvcyiHBo2TvULQQ24Iq5Yjr9gT+0lv3BTLSwTVN5r152Hnag1q5hvxk834VpXiOaXtAt30tBSMLJEWJAPoSrjPpD8FVnmjbGRknNOER5S3V7j9ysuVwRXWnaWf0DKsMEWGbJQfTov250qIJqGAWehIaAoU6mbKDO+1F7t9ocqVvs3Hd/o1lksua09g6qzkuVp4ho313vBH1Uy6SyuYsydGnL+LplsnZE2tdPjrLQ+HiIct03GrIosZz8TaRnMDScTcaSiA5fE3cP+wJ/EqTB/Vrar9iI1ZOKLycvpuDbpmkSMRPNs37hfK0J8QBBGiZLf3mOpJMchkcKzldXQTlqvT9rqxcyrHgMtlxqAwaJ8N2GOOE2qz8rNpy6t4vZd6nRfquAI6seN3YctvTPpKuQf3ul5XeIgaOU341j7iU+qjXSbH0UPsO6vfsd1YI7uozZ13Lbc2pyfDfeRH2s1FYxNBzoXIyrpNuwr/X5TuC685oKZ5uSbsanj7oGXzkbbTVoHzNBJgAE4iEACtiIqHFYUMSMF+O/l/3PAlYAwd/6wBPDPuG/dXF88XYDmKcGNuwDq5nWYLE4ZIvm+HNeWuRlzsbr3yhGSh7BjNyerG4okGE34DHk8fZfOxapez81OFy3NL3TQzdnKds02zGLtw9BR/0TbCceVbH5T1aIWXFTpzamYqG6mC8KA9ZK7/GO/1/i4RO1lfyxOq4POX3eHz8YCz9TtnG2xYw2I5U8qDbjnI2H9uWJbl2c4rDJV0aodVUnYPEEuRl9sJz3S81/V90uBp/GDUcG7/PtfwTqHlEOrimybx7sqWc24NauwTWSQnyd07GB/1usK2MzEGhKpMTj6y/Aop1kRNCnPmXwZ7saicuQXbJ8kxqXTmSDyDfpVKusJXqlOpOw5ueYW25I2mztJxO6SdcChp5i/YoAKmTKXcS1mQhkPwwhuxx/L4UHV6DsdLOLcGeIdqa/jnUs57tuOTr0GzUUKw9dsh8jhRORceyMG/2O3ikR4LTtjtcjl+lPo4P5y7FngJ5iROJHGxHGdVaheIUHc5AP/duTsH6tcIdmDLuXiQYOzjF4ZLuzyJl5R786MMw0n6Wwmsnd8YkzE8RI0yScpEx4znPbjp+5RYWhzvnNjeWksmKNiJjHkkm77vCmezqliwG2yXLmxblGZ5MFFqU4btvnsVliXG4bcoanHJ+UM70CgHJOW3Hu9BpvbJkNdjOf0qblTIMq0/z72eltKSLQuxY+gHuTbF2FOxwOX47JAVz95xClrG0Ru2L/MotJSpfSG08gOqdfmu9G7OQ2jM2ihiRYbTtI/x3XiT9bBRLk4Tz8EXyrpBxyVehkVUf+h6KUJOFaU08t/hAGMuSnGctFsunSAo+MgEmwAQkRYzAwT5iKkejOH48zJ0kKoe4phS081HQSaZbYBr0xcovhTttPmcClY0AfcUO1yl1+chPX6WDTQbLRxLOhQmcRwTI4qMyKUCjkYmsTpNuQ/Jmf1VMedYs92nlSbvq5UXtQ6fA9CsN+dYJhLOUyS8Rvs8EmAATUAh4FDHK73xZQQSqoo8Y00IlDk1mbNU439OApGVMvXpg64+a3/kWEzhHCJScPozMxe8aW/96l45UUCGFf4N1PfBI52oIeHbaqSCZOFsmcM4TKMEPRzIxcezvcLHYyUrZ8a5iil86mWhiq1smVa7l4T6tXHFXxcxKvl+LL3tdhIDOv5K2QEU4uc/xjRXXIxlrCrQB+SYTYAJMIGICHkXM0aNHI06EI8SWQJXfNSm2ODg1JlBlCdCyAnupQ8f70XtbBY/irGUctkxJN+HtjH2ht/qssrXAgjOBykCAlqk4Sx9r9uuNjRXaHcRKJrL2C6Bm705IPxZ8YUjMa4P7tJgjPScTJD9ruqW9ugLTElfLd05c5ycxNJu/GupQ8T0mwASiI+BRxFRFS4zoil55Y7EipvLWDUvGBCIhYCtiXL4EynmK4hWXJi1Jl+C6Pv4+hrwR+Q4TYALRE3CUHo7fj4ruDWIpk1DGvIHm4xYgtyR6SlHF5D4tKmznXSSx9G5Uc7y/KlfrV8/Dw1DEWP63pkzCxmPFniB8gwkwASZQGgKSIoa3ry4NytjGzcrKim2CnBoTYAJMgAkwASbABJgAE2ACTIAJMAEmUOEEWBFT4VXAAjABJsAEmAATYAJMgAkwASbABJgAE2AC5wsBSREjCs1Lk86XqudyMgEmwASYABNgAkyACTABJsAEmAATYALlTcCjiClvATg/PQFWiOm58F0mwASYABNgAkyACTABJsAEmAATYAJVmQArYiph7bGz3kpYKSwSE2ACTIAJMAEmwASYABNgAkyACTCBGBDwKGI2bdoUg2Q5idIQYEVMaehxXCbABJgAE2ACTIAJMAEmwASYABNgApWXgKSI4V2TKk9F8dKkylMXLAkTYAJMgAkwASbABJgAE2ACTIAJMIFYEWBFTKxIxjidgoKCGKfIyTEBJsAEmAATYAJMgAkwASbABJgAE2ACFU1AUsQIYdgSo6KrhPNnAkyACTABJsAEmAATYAJMgAkwASbABM5VAh5FzK5du87VslapcuXm5lYpeVlYJsAEmAATYAJMgAkwASbABJgAE2ACTCA0AY8iJnQUDlHWBNhZb1kT5vSZABNgAkyACTABJsAEmAATYAJMgAlUDAGPImbfvn0VIwnnahNgRYyNgk+YABNgAkyACTABJsAEmAATYAJMgAmcUwQ8ihj2EVPx9cuKmIqvA5aACTABJsAEmAATYAJMgAkwASbABJhAWRCQFDG8fXVZII4uzezs7OgiciwmwASYABNgAkyACTABJsAEmAATYAJMoNISYEVMpa0aFowJMAEmwASYABNgAkyACTABJsAEmAATONcISIoYUbhNmzada2WskuUR1kn8xwSYABNgAkyACTABJsAEmAATYAJMgAmcWwQ8iphzq3hVtzTsq6fq1h1LzgSYABNgAkyACTABJsAEmAATYAJMwI8AK2L8yFTgfXbWW4HwOWsmwASYABNgAkyACTABJsAEmAATYAJlSMCjiGFLjDKkHWbSrIgJExQHYwJMgAkwASbABJgAE2ACTIAJMAEmUMUISIoY3jWp8tQeK8QqT12wJEyACTABJsAEmAATYAJMgAkwASbABGJFgBUxsSIZ43TYWW+MgXJyTIAJMAEmwASYABNgAkyACTABJsAEKgEBSREj5GFLjEpQKywCE2ACTIAJMAEmwASYABNgAkyACTABJnBOEvAoYo4ePXpOFrSqFSo7O7uqiczyMgEmwASYABNgAkyACTABJsAEmAATYAIhCHgUMSHC88/lQICd9ZYDZM6CCTABJsAEmAATYAJMgAkwASbABJhABRDwKGK2b99eAWJwlm4CrIhx0+BzJsAEmAATYAJMgAkwASbABJgAE2AC5w4BSRHDuyZVjoplRUzlqAeWggkwASbABJgAE2ACTIAJMAEmwASYQKwJsCIm1kRjlN6+fftilBInwwSYABNgAkyACTABJsAEmAATYAJMgAlUFgKsiKksNcFyMAEmwASYABNgAkyACTABJsAEmAATYALnPAFJESNKu2XLlnO+0FWhgAUFBVVBTJaRCTABJsAEmAATYAJMgAkwASbABJgAE4iAgEcRE0FcDlqGBDIzM8swdU6aCTABJsAEmAATYAJMgAkwASbABJgAE6gIAh5FTGFhYUXIwXm6CLCzXhcMPmUCTIAJMAEmwASYABNgAkyACTABJnAOEfAoYtgSo+JrlxUxFV8HLAETYAJMgAkwASbABJgAE2ACTIAJMIGyICApYnj76rJAHF2arBCLjhvHYgJMgAkwASbABJgAE2ACTIAJMAEmUJkJsCKmMtcOy8YEmAATYAJMgAkwASbABJgAE2ACTIAJnFMEJEWMKBlbYpxT9cuFYQJMgAkwASbABJgAE2ACTIAJMAEmwAQqEQGPIoad9VaO2snKyqocgrAUTIAJMAEmwASYABNgAkyACTABJsAEmEDMCHgUMTFLmROKmgA7640aXfCIJYcw+/PuuOXOZLTovh7Hg4fmX5lAzAkUZ4/Gn6+5CD+79F6kbjoT8/TLJ8F8pHdojFoX1sD1b8/E4bPlkyvnwgSYQOUjUCn7tPx0dGhcCxfWuB5vzzwM7qIqX7thiZgAcBY5q5bhod5T0XjYKqwoYCYxI1C4F31HzUD9XjPxz4yj+ClmCZ+7CZ3ZNQovtvwcS4+UlGshPYqYLVu2lKsAnJmXACtivExicic3A+892B4Jjdsj4dGxWMKamNJhXdEOvwgE0KBLJqqqSiEqAFa5A4EA7P8GXZAZBoSckS1Rw4oXFbeckWhZI4DA82mouDHLCrT7BZX9eaRVnCBRVR9HYgJMIHYESt2nxU4UJyV3H12hfaUjEp8xASagEjiB6ROmo27PNNTtOQudtpxWA/B1tAR2rsbDBtc01B29EQejTec8iXdmz2S0/lUcLvzfv2HSXq/a6sjEAUho3BGvTj0UcyKSIoZ3TYo536gTZF89wdHlr5+H9176Eg99sTZ8y5bzxSKGJutuRYH2vAG6hKM98KuKyqSIKV6HTjdXQyAQokwbU3BLtQACzfphd7FfwULcdw/yiWuYiphSfz2muo3V5GLHFLz+wE24ovXUCBQ7lcUixq0QIsVQADWuvA5NX+6OWdtP4T8hqvL8+jkPy7/6E26/pilSSvPcVxloORjZsoajLKVn1XWMShlaZcofmaDFedswtfOzuP2a/8GFBqMauLJBC3w4ci0O/Oj/JJW6T4tMzPBCVxaLGN93ZD7S29VFfCCA2i+m4UD5foANjyGHAlCM/Vs2ouPYOWjaWygL0lC/z0w8PWEVpu08hXO52k5krcc/h8/CUzOzcbLM2kJZWsScxfG9Weg7cR7u7zPVVPb0mo6WI9MxbPNRFPh3aWVW2nJNOCKLmKOYPWMhHum3COOOxljKI1vxTl+dMugsclYuwR/EMzV4BZZ9X4EVUrgBXRrFIVDjTnRdr/+yyIqYGLeLqpDc8eNsrhGsnnLnjkDDxu1xR8cIFDHBEjyXfqPJumvCYVtuSPdCKC1CMfEdZIaKWBa/F2Ndp5tRLYSFzsaUW4wwj4w4FCNzdUsZEKYiptQlp7qNlSKGlEqxSq/UBYwkAb0ixm7r8VejzdQD5/RgORJaACkmSvncR5ZpBYam8jpKOrttWP0gK2LM6inOHonHal7gq7R6ns3eomvHPu/I/PR2qBsfQHyjLlhfWIETkOhKdZ7EOo018+bht2RVoB4HZiBDP2c7J/gcWLUYd/RMw4NlqogpK1TOJN+0tjGVaM75QoyNtcKhrIpSLunuQ69BglEZcPFRxJQc2oL3vk5D3b6LMPa7onIppT6Tk1jxWV3EBX6Bv07Z7zteLFtFzI870Ouv7ZHQ5EuwRYy+mvhu5SPAiphI6oQmrDFeRuIzyIxEsliGLV7XCTcLaxdfpchGpNwirGYewYhDsfIawIqYWNZhZGnp2J9Bfs4qDHnxRuNrc6DWC0hjJzYWVlJMnC+KGLk1rWj3C0PRwEoFmQuwAwP+8F8IBOJx86vjsfHID5YlWTEK9mcirfNT+GTWOTzjVHHE8lr3jswZg8eF0qv2i0hjU5hY0o5pWoVbV+AhoXzpOx9frjmIo2cshVnRD9i5eSM6Tl59Tvs0qdKKmIOb8Pc+LduFEgAAIABJREFUaaibOhNvL9mD/T9Y472SH3EgOwt9J6RjSl5Mm0sVT6ycFTGnv0Pf4dNQN3U2Om8qiNFH0eiqoGhXfzSPC6DGvQPwbRATt7JVxKAYu0f1w3WNE41S7Nq1K7rScKyYEsjNzY1peuWZWEH2KvT9uBduvzvR8MdybbMv8VTibCzL+VER4yhmt+uMhCZfY9R3hdg+cxJefrojrhM+XO7qglbdM5DtWjJKyhfDx4sI4/P/zKgDUj5ZA3t4woa0pCk5hnWTJzjyNO6ABs8NRsq07TiuzuG3zcBDlnVO3pFMDPo4Fb+9Q8gn4gzDsPX52o6m5MQOTP9qIB546HP82ihzJzRrMwrD1xxDtKtmpILbF+ErYooPZGDwOy3w6/+50Pw6WuNK3PVyd8zbddq7zEM3yASQn9kbLcVA08cioThvPYb+/feoc5H5BbbGlQ3Q4sMp2HFa/TJIE0ehQMpH5tj3cN//XoQLAgHEX3ornu6Wjlx3xxlqeVJWHzSpHkDgkRGQ9DBncpGZ1gOtxRIdS6b4SxPQ9OV+WC5lYAN1neiUAa6fjVPi7/4yH8Zk+EwO5ndRlgr86gpcdIHOR0wxCrKXYNBHT3uXFkzZAQmtVW+qdYB6rVoLuH1B2GFDWdIUH0DG4HfQ4teu5Q53vYzu83bJMglOrvb0w4FFSHm2AWpdKJjVwJV3vYlJO9Q2GIR98Rb0vL26Mbl8aYY8iTyTm4m0Hq3xwE0Wy0A8Lk1oipf7LZfbk1WN5gTeVGLmZ47Fey1+jf8RcsVfiluf7oZ0Txs5g9zMNPRo/QBuusJsryJsQtOX0W95rvzFxbJwej4tH9mTX0Xdn1+A+KsfxaDNZ5C/phtaiPZequeIniF329Od65S0xchbPxR//30ds82JehBLVdT2ZHEy24fZrouN+mtoPeN+9Scs//Owfsx7aGHXhZXHxG04pXYHVj7RHsJWxEQsk+A0Bu+1cPoPs0+biG2eQlB96J5/6idKXxcRtdn9Y/H4z0Wb0OXrR5tkdbclXZnc8YtxIKMP2txxjfn8SNaZZjpOn0OchExh9P1GNhTHLVMA/oo3V//xwwEsSnkWDWqZ770aV96FNycp/SYVJf9bTPuspfNse8rh4ujq0wwXYsXZGPlYTVwQ3whd1hd636mUh+j7E1va72G/91HetBdwiXgfPjlGfqdROjsG4A//FUDgzl7YUY4fnZf8EwgEgK+2AfvmAU/WAy4IAIGfA3f/A9jt40/txz3Axw8C/32BGf+yXwGvDACOuMdcu4F744GftUVQB6SD7zXTmOl190B0gh43z5+D/wvbIqQAC6fORN2eU/HXb3K1cu1dvgi/75mGR+fkoFDkbPjwEH5RTmDjN4twd2oafjNwGWYc+gk5azLwbL+pqNtrDr7cTBNVc7IsLFQO7FyPv38tfp+NT1bn4fShLCQPn4H6Pafi8Vm7cEztO0sKkLk8Ha36TzPKVNdaojNu1w/S2JSUL47liGpJYl63XnZCYpc5b7ZtTXFy9xZ8MXY2GqcKRch0PDBmJeYfVBqf238JWRqFY2EkyrFiBV4dPAMNjXhTcefQxeiz/rC01Ch3zRLcJX6P2DdKMfZnrsZrg6ajvoifOh33DFuMPhuOBvGDKOKsxXvDZ5ll7jkVjQfOx2fLcnDMPT5FEGUHWY2oDKz7hlVSST7SFy7BM1Yd/qbfXLy/dB/kFT1unztO3an1ZVYeyeOE09a7S6YTG9LRTCwlGrkeO5UqNdIkBdiQlVhHczcqm10XZGk2Ha8ty/XnGmabRc46PNcrDXW/Tsci3Rq607vx5cA01O39DaYcVR+ME1j09lUIXHgTPg3hKVqviPkJ3y0Yi/vvaI9fN+uFr1adkp4LoATHNyzAe893wo1ijtfkc/z26f5ImroD37tCGj5izuYuwxvN2rtu82lFE6iaPmJKcGDheLS420dJcm9/DNvmVsZYipjGPfBW+z64xaNYScTdndfYL+FyU8Sc2oFhb3c2lSMhZDLaiaWI+U2bIXi+pal8kpRE9w7GpO/cIwkAx9bh86eTPAqisnEkTINm1wBR08Dz13RB0//2MU/XDRzVQaaYV9km7rXxYpp3WYjzuzxYFhN7r5k2Dazvwp9fuNm0cJAGvfG4p98OOO8DZ3nSnb3c983CZvVpguqBeDw5Rl6WpFUwUD6138LCk2rn7YbnGsz7DC4B4u8uc4hJS3462tWN910q4HXWq8uD8lM4lZciJn8NujT9b0NxZituiGsgHo26rIdklW/JlfDEX9Fct0zCUxfB2Bdj2QeXaywgqE0RG/lY+62FUKvbnNTWxV8/bIUb4+XwRru9p588yaHlY3ZZ3XFq462FJ50JmBX2yfc+QH1X2glvfI5/3CCst6y4td7Cwh+cdhf+cxS8vHb6nkl4MbJHPoaaQulHMthHTd0BoOfowXc+1vcjnvrLxYzWdSx/JGo+IZ4PB0XYZ+EpYiKXKXdGa9QxFIZqGXSOzKk+dOWjZ1jtpyOvi4jabHEG2v1S9Pv6PlsPmGR1l1lXJid2zpjHfdqTk4ZXERNu3y/yIbZOeqLtPu+7rMoqQ8IT+Gvzmpp+SnlWRRYFK5FYL0i/bDwjrvqT3pHF2JjSAPGhOAfr+1UrmoJFeKe2+OjxJMZIXxdM7n7vPKdWyuaMFDHPvAD83FKqCMUM/df5F+DqzgwhTiwGrr/QCUNhxbHOK3B25ysG3v45EHgSyAvyav53LSDwO2CbNBkOv7yklAjXfwVZ0OgnqUcwZrSwAFiAofusz2yWIubdaYtxLykjeqah1fSVeEP41KB7Q1cj0xg2mxPn+ycsx9v9Xb8Pz8BX48jhrbg/F712urRPJXmYOnGGqYChNOmoWCRQme28KZxyVCf2piJmFl6ftgSPWr503GnUH7oa62liLqogGkVM4XcYPHq6vhzKkpqSHavxiJA5omUvpCBwsbXL7aM0KMnDnKlzfJavqc6HSfGhWf5DygqX0sNoqXR/+DJ01JZ9Ot5b5f7QW7aKGJBSw92OXY9U9rKFaKQqI6kMliLm6Pp03NtzKlrO1CgMKa0I2ixwFBPGivY/E59tMFSclIpxLNySgft6pqHZ1G8hqw8BnFiEt68K4MJbkrDa3T6lFMwLryLmLE5kTDKUMAl39UQ3jxLmJ2RPHIQGnjmk+ZH+4V6bbGWM5az3FJZ07GLktm/fPo0IfKs8CVTZXZOOrUX7x4UioiOe/Xo9vjslXjglKMxZjz6vm4qNW95ehBxbJ0GKGNEwE/Gb1hMxfWs+ilGEoyun4Smh0GnSF8N22xHsaiClTEjLFjuGdeKyXtF74SnBzjFfG0qha58Yhcmb83BaZF90DJlTxlhKpm7otNL1ld1K01CiNOmK96fuxPFioOhoJlJf/hwJjT9HmymyhZMtf9Jy7Dr2o/lVougkdmcsQvKnaVimF04tTZjXNGh2DRDVmMUbkdJADDDj0ajdAmTn/2RMFs/krnaWeahf1aRBpvi4vRgfG8oDvwG9ZQIffzNeHb8Zx38yR1HCQmHcG6aiRVagyAPr2k8PxabjP+E/xQXYNuRRc1CvON21lyepsiILfZpU1w5Ycya8hsc+HImVO/PwgzWwE+VObSkG5/EQ1gr+4z2Lre9yKBW0MPwQSySCTVpyMfWFy4y8r/7zUGygpQJn8pGzOBG/E1Y9HkuU1ej84EvoPisTh7436w7FBcie/jZuFhN8P/lIKeNJzyu3dIeUDb7xaNIhFGztsCA7H0Z1n8nF6iEvWgqNO9HL/ZmWZBGTmfhGaLdgj/GV60zuQnxktKtaeMutjSAFl65svtZROZjw2mP4cORK7MyjJRhnkLs61bLieh5p+XJt0wReTOpqt/gcM7ceN8pyJicNbX8tlCXN0M/t+TlnAl577EOMXLkTeU6DwurUlkabjX8+DXYWxJGcdh6bjVdqWhPJ69/H0vxsDHvgIgQCv0O3rTS4jvQ5opqj5ylY27PCWl/S429+FeM3m+UFhKXPOLxxs+gnlLpzKWIEJxFv+Moco/6EBVyPB4TTXKX+qOwNEpF+4HuzfeAM8ncswaB32qJvjLd3p3r0n5gbhTB3JQtbJodpYvoBfE99Wv4OLBn0Dtr23aR88XPCex2l+/TTUdQFlTW8NluMrP734RJD6VYbd30wEZtFP0vNJoxjyD6NlD1S3y+euyF48cZ4eJcQEifzWQin71fFJMWgf30Tb5GH+d7bIzx4nsnFwo9MR7q13looKQwozdotumLRngKDUXFBNuZ9egf++wKN4s31jjxi+IXRKzEd2Quw6J3auCBQGy26LoIhj/jAUZCNJV1aGP1HrbZzXV/BnY8PXr9n1juvVlvMdX02pzKItuH779uvO5IGOyNFjFCi/KwJsPg7GKwOzrGULZcCS5wvKMAp4O//AwTqAD2WwH4PF+wEOjQ3rWn+scjJsXuD0EqWfwplzQswrU+cqOGfFWbjy8Gmk9f6Axahz9pDOBFMqVNyAAOGi/DzMOg7xaZ5/0a07p2GRuM34yA9WLYywpyUHsnZgJfIIfCItdhcsBdfiS/5qYswwVhGQxN5y7npiUMYKZQ7QlmQOh/9s3/A2jnCMmUq/r483y6naYkzFc0nbMDaYz9ZY83vsXlVBp4U+bmtF+xYACllwvERYypiTAXG7SMyMOXb7yH8e585vB2fGwwV5ZArH5CliKqEkMKcwdp5c3GbsMYYsBiDM3OtuihG/r5dGDFlubzUqOQwxo+zlDZ95+KTZXuRS0vLpHSdC1Kk3T5iJWbnFJqWqyU/Yu+WtXhN+DLRWFQQI7F8rdOKHCuPsyg4ug+z5y5Dn63u2T3VXxSKGKOOZ+LtRTux89RZQFiLLFlk+PBpNGELjjjFkM5IPlVxJgUyLoLIJgU+iy0L5xn10GqRavllKRtVTi5FzH7LL8ztYzfCrSuUsgAQaZs9um6Z4fS36ZTtOCYldgYZM2ehbs85+Opb75fSgtWf4ZZAANd9ugrumpKSsC5kRcxZFH67AK/cJ1Zv6JQw4qP0XLS6oz1ufGYkxqy1LKrOnsGRDYvxwbNJSLizJ/psMvsJe9ekgpUTjeyqpiWGDlvVvVdVFTH7pw1GfT8Huqc2ocsziYpihRQxibi7/TJpGRLwI9b06KZVYoiatRUZkTrrDaWIOb0V3Z5NRMLdX2PYtzTxobZUgj2TB3nLSIqYJl3x2Td5kqnnoZnD8JvG7XFfzy3SgCBn8kDUE6ySV9sWP5RL7I804PRXxBQsege1Lwig1gtpzpcnEqQ4C32aCh8CygTONcg8Y3/Fq40XJ+YYL2GKbh+tHYseHLxPXp4hAhQvwweXq7sZOYNxz84SFF6xFIA9AVcmx9ayJF8TbltI56R42Qe4PITzX9vaRacMcJKSzkJOWmiC6lEmuSaKYQ+Ud1sTeZ+6J+VH2OlZRSEZ/eLRl1qtj5ZiZPVpiv9S2ZIsGuur3cMewEWBAJr12+1atqdTgpkT+d7Pmz5i4lVrFakm3BdkQaO0cWPFlFCcxaNRpzWuCZAZN2RdSllYbdzdVohj/B8xYp8Y5dOzWgsvpB02+hJPHhE/RyQEPU/eMlIIOppOrR/EYEMmumse6bmQ68KxiKn94kTkKLvs0ORPmhTTUsEGHcvFYanJMZiFBICIZbImu4EG6BhsqYmNMFgdUN3Lz2o0dWGWNZI2m4/MYS8bS+PMyXk8Lm30hq1Ms8X3OfG0UTUctfMnx3qsGPT1Qpw0uwr59f1Knto2J4Uh3hrlyO5heOAi9X1ESvQb0H6127LX1S+7n22RF70jP+yIl664ACH7o7xpeOGSABLeX6pZmmf15eo7j5YfKR8lYPUT13+2Cm5piYuvEkYoaPz6dYmf/wUpYoQSZrM7cwD9m5pWL4O/c+IfmQBUDwDtVjj37LOdQNN44NJ/wrZ+nfCMvOyI4rdfbcWyli9d296JY6cXwUnJsWz0GS2W/FhWEr1movXMzVhHCg0lLVp+9MS8fdLELusbMXlVvtiTIubrZZh//D8ATVjtbZzJuoEm7jRZnol2607iLOh3x6Gud+J9CEOEcmj4GmxTh7M4i3WG4kavJKG0wlfETEXLGTtwWFFWkbWM/9bUVrmCKWJObMdHhjJkIUbmuDV4SgW4LwsPYFLaXDSmukudjj9OWocl+ywlizssrKVl/ZZitmddF7BvxTe4vec0vLPKtfbFVrzNQnJYfk6o/qg+XQJQ3asM6H7fRRi1x/pgS9HoN3vJD/3gHKkOY6eIAUDLj2xLLSs/a4mQx/KE5ByVga/GTEfdvkswPZgpG6Jos2Sp03sxprs/Yp/8Fp9+7b+UKnfs44gLXII/jtrrQPM5cytifspeZCthvlx+wjUmpchnsOXrVCTc3ReDsxSlLIBTyyegaeMktBy804hgK2JwOoud9RLDSnDMysqqBFJEIsJJLOv8JRIaf4mkdFdnZSdBipUUfLqEtPWkiHHfsyPYypZHBuxUviqWoSJm1zz86a72uLbtfLjGCY5QOd+g9b3tkdBmLnLoLili3Pes33wVRrkr8L6xjCkRtz49CCkT12H7YaWjpfRLfaQBpzzAdydrDvbjofrToDCmibMyiaFBZsepGCjWvQuTaz8ljPLF3HcQKA1kaTCumzj6lcn5QuieKAY30c7Ht9M649nb9b4LHHN5ouE+WnJIcrt/956HmrQULHgDtVQlBSVDExrNQJn8+9h+SaQvnj51T8oPTXqUpfYYRA4jvDUJiH9phn5bbJrwuvMNIgtNHuS6oDag/7Ibf3UbTNU5wxQ+HqRtet3xvW0tVH3p+OR/Ow2dn70d15CvJXdduNsKcfzTRMtKxipTwkfIsD7RqPkTC99nSOTlzsMWMNjzZAcST2rIbZ9F3nJdOIoYSdniTtZznoMxj5tLQuIvbYSXuk/B6t2W5ZQnbOlv6Cf8arqRy2QvuYm/FI1e6o4pq3cj37KMUVN32HrbmaOEcz+r0dWF2ma8cvjcMfxldcazDWrZS8Zq1P8X5h1UZldK9JD5+VrEDESrazRWZXYbDJeTIpDrfePfHqn/cPO20qHnUnmO6NnzWMR89HtDsaxa0JAipu5fX8P9NS/QLL9V5KY+0N1feM5VeamNyFZq5jtdvqfkVmaXpIhpPdObBfluEf5j6I/Cu5cjec5bOz5h0v9tWsmMsxyuznzZVMzclCw2nAawBWhQDXhgMKQPY5RfZMezKDiYjTEzFuI+WnaTOgMvzM/2+mKhSadkZWJNLKV7zvKc+6fvhDEiprjD11lLXUnRQhN3ayI/YDmWGq4o6HfHAscz8aY0SRmhPapLaEw6lFb4ihh9OqFZh1bE0PISr8VD6NTPHNuP2fOX4Enhc8co/1Q8NGULsiXFFClJdMuSnHuSQsOycqpr11coWSgPqk9XeKonP0VMEGWLKxXPKdWhJLcnlLgRRDZPeGp3spWJqWyU7xlRqWzDl+Bj4aA31HIxCq9tq1QXals7i43zhE+naXh7xQn7mTd92sj33MU5NPJhBAK/wIvT5RUL7jB0ToqYV0YuwRfCouWuntArYUSMPIx/y8dFh2up0l29thrJO4oYFLMihojzMQoCpFTpi2G2hkJOxnSa61a6UBz3PSeOrxKjLC1iQlnM5GbgvQdjoIgRi7Ykx77m8qxbnx6KIRXgrDfUQJoGoNKg1ho0Xn93c1wnlr/UbYcMe82FU490RmmEP4GkAWZkg3F7eZL9hZCWcniXnQD5SG9nmqH7yaVOOKk85jH2ihjiJLGmTGmC4FZgSL553EoF97k6eLcSpIG/kh5l53v0kcMOb6Xry04XP4gsxEROjyZS7nKazl7f+nop9ilWGYZstuWWO4773NvWQj0bdpmtE9qa1q89SUoSDwdve1LzJxa+6VcZRYxouLKTVFEmoZR5Y0JFOuuNVKZiHFiUIikvhHPmRm9MiIGzXuoD3W3Uey4/F2S54W3Lalv1vy5G3rapaHeH5eMphNWS2ka96RZjx8D7Das2Xbut3WaGYolJ5daVgZ57nz7NypyeE20/aoQJkg49l4oiBvmL8O41liN7VUES3wjd1OV0rn7QXJqksfBxw6I+UE1buvaWO3fSc/jvQAD20l7LMjQSC1C3GKU9J8VKWSlicoYBP7OcAdOypmdaAfE3AeuFJmYJ8PMA0HZuaUuixC86jhVLllp+UKahzRLV2egpzJsyQ1oKUbJ7LZ7tpXHia1nE2IoOmoDak26a8NLEXVVYqL87y4nsiTelGdGk1iwzTeJt+RQU7svQVi/u0Oq5Wi71d6dcf1tyzJ5ke0OFuFNSgKy1K/Gi5X/nwek7XYo0UkTQRF9/tLmKrKz6sxVpIbIPquygeqoSihiAlgLZjqct6yCtfyQq2+iNoKVJQf0uUfgI26z5nLmX/1nPop8TXwCRK2I+x4NtUg2/L3XfnA/NaierFUStiDHj89KkkE8TB9ASOIb5n30RU4sYWtaj7oIksg+mpNGKRzdDKVq2z8Ifm5SDRQzJIxQyhUew5ZsFSH6zK25pIvzidEXSUrIacgWM+jTIgNNKc3XiVYZPkqgsYrqsR5bl2NPrcNcROvTA2AlrnkU5GFeXJ5GPBbdvDsqKzLoNnyTZ8pds1yDau7qUEvBOnOkXv2OoScv+sY/j54EAftdtq3f3BTKZlxQn5FcgAOFLwfYpYwhADL2Dd+NnGvhL6flJ7rpPExW/eKsTcdUFAZSLRYw6WXKJqZ7uGPAH48u15LfGCuRXL3731bTNa2crYLevJfM3TVvxcPSGUfOP/DkiSakt6Ca3FEYcKZxPm3EHdZ1HL5fhBAP7M+di4Dv34X+Nncvi0aib6l/FlVkUpyZHxaovWDrFBRHKZG73PHfgO87ubo26QZ6bE1tdHej6aQofWV2obSZYMYP+Zvelin8fJVLo/CxLo+tb4LkHrF3HxG5ltz6ED7U7ZFG5w+WkCFRGFjEFKxNRL74WGj/+KBrWsXZEM3YW7Iel+370+tWR3iGk9NcshSLxpfB0M4wjLQW1+kLzY0QttJ37vUcmek51CjH7nl+/HoYoIki0ihi3lUzQrCxFi1D0FC8Bal0GLNkENIoDktcDtFQp7PSCZub9kSaiddXlGQDI14ipwLB8aqh+M0SS5amIsZU73rL43alMihjarSccpZBfeeg+TdjrSstYQiuDKL59pN16wmZLyh5SrNkpOcvSqogixnbaa8lrMvWxPCHFisHpLHJWLjH8ufj6iZHCuxiFPLWc9qYuxNjD/wGs5Wy2skgT31TERLg0KW0nMrp/Zew0/Zv3F2OPd+WRYxHTfDAmh+F212URo5GSb1UYgaqoEMse09fYouuebpniI4X8R4587x6ESfbu0kEsYkr2Y+K7HZHQOLi1zO0dVivOmeRsPVehFDH569D+0fZIuHsgxjleha1kHEe+ks+XaJYmeQQTN0pwYOZwNPTzs6ONE85N3QBfjkfbYMqOAK0wtiNfxe+KNGjMR2Zv0xlp7RZfY6O0HY6ZDvmW0OYhi2NdRTsYd5YnCQeG243Jt35QSqbjAXtpCAlSjLzpbVBTswSDQphH78RZ/t17FXLSQkoMVXFEW5+Kr6PSQJk41UXH9YrK6MxGdPu92MbZZyJHihhP+b1yS3c8CgTpV8DydRBQHEWaoRxHvu7lY3ZdSGUzY9DkQf7yHy37AP40UXHAXJyH6W1qev0g2T5idBNCpczGJT1rf8JExTqsOG862ghHvG7FkYejt0xqe4n8OSI5g7QTCmIcyV+OzzMjhXUuqI78LRCcsMHOirOH4eEaCqdgEcL8zeQYgSLGlW7EMhVnY9jDwkGxt92YciTgI1p7ZuTj3hnJ/axGVxdqm3EVJcJTajPBuYXMz1qq6HnufKWhfL389Eu4vAmFbo/0rLp5W+nQc+l+VpGHaS9cgkDdjlC7WW/u1h3pHWmYLprbV/vtnESKdp1/MN9MxA/0zhO8fsC6Tjej2vWfYZXin0WEJC620kWytrGsrTR9cNDslR8jVcTs7A/EB4BmX4tRUBh/lg8YsfRo1efA5Zb/GOHEVyxP2jHYTC/aratDSkD+XdSJs4hIvkPEbydNB74evxkiXHkoYkpyTIe/OkVQiEKSIiYci4+ytoixtygemIGlLsfTIYqg/5km+tJOS8cwZbzYeUeztEafCmD5H6nbO1y/NWTB5CwlM5N27daktieSNWxljyws1aFkySMHsa5ISbQAI3PJm7Q2oHWTnPaKJUKFpgNfP8sTTxmovD47J5WizZoK0qlos+wYjggHvj67O1HJyFnv1e98Yy4PpB80R1qa9OrUQ8BPBzC/o1DGdEDzDukaZUwBlqd0RULjTnhnjrV+UpMm3WJFDJGoRMeq6qy3ZMc8/NnY6agL2gzfqN01Sd7liBQxndBm9FYcNHZZErsNZWFScg9z56K/TscmnTtry3Il4d6+6JV+AFbU0LUYShGDfCzp3NXYurreixMwXbdrkurINwpFzPYxw/H+wAys25Nv7spkWcZsGDvEUMRIih6pVPlI79AYtS4MIJy1+2bUIANOSjt3Kl64zNzCVOzWoNs1yePIVx1kupb5eJzrinzoq12gBuq/PgEbaTcgksFzjH4wbi9PeqQ9Oj1UA3qFAABL6RGo1Qqjd4ldMMyv2mmf3YPLrC1p5cm/KqR34qyGUK9DTlpsTtfjjWm7UfCfYhRkz8OntEzAo4jZj7GP/9zYAaNB4gocE/4pzuRjx5Le+Fvdn1vbsmomG0Kw/WPx+M9plyLFIkgV3H1NExXfATvt/CR2GuqKRbpdk1RHvqQU0qRJkwe5LiJnb1p+BVCr1WjsEjukGFYPafjsnsssnxjeiV/I+nJzwWokXiWeo1poNXqXuWtQwX5kpn2Gey6zljS4J3cejt4yefK320e4z5EjIJXfaznlhBFn5Lw7UKM+Xp+wEUdo9yc5mHRFdRS2ImZ1Dzz94QAs3nzI3m3IqI9p9GQYAAAgAElEQVTVX+EBoYixlxZK2RgX+ekd0LjWhRDy/WvewbAmbybH4AoFRCzTavR4+kMMWLzZ2a3M6ENW4ytjpyhFeQ3A9N0hlqiMR7a1S8/qvk/iCnsLbPlZjaYuPG3Gi9C5s7ozHnypO2Zl7scxVz2fyc/BKtrhzGd7ZEokZH7Ws220u/0HcfAY7VhGKajH6Pt+Sil0ewzyXqTn0v2skqWYYT25AwcOHnHaLWWqHj3vSAD5S/DB9dWMneG6eBw8OxZ1Vz/q6jfVdHXXlrKrVpv30bbOBc4yJV3YMr4XqSIGWaY1S+BnwJM9gD3fhxDQ2sL62nbAv68BaEelLd2BajcBndoCgQbAZu3X6hBpGz+fwOzpi/DZ4p3YdqTA2Xyg5Ecc/W4HUkeZO/JoFSzC57fhnHcaXp+2DC39JvfloYjBGayYNdvY8vk3A5dg1LbjKAhL0wUgew0eFctD+i7EgC3B45W5IsbeojgNxq5M20ke/a5JmxcuwttztmDtgZOu8hYj/9BejE8zt5tWl9GQo+X6/Rag65qDOBpilyWxiyCxNXdyOmTF8ds1yXIILLZunvEtDpz5D0pOH8X8WfMch8IVpojJx6xJYkndVLScuhXbTli7awV7VCyLoEbjluPjQWnwtTzxKGLEZCcPUyYIxZduW3CHa8RtlpRjQ5aiw5jp8i5lurIcn4fXrgwgcN2nWKWbZ7riSIoYcf+nHIx/txMSGneAeytqivL9krG4vXF7/LpZD7w/fgsOFPh3Rh5FzKZNmygdPlYQgaqqiBEbBW4Y3A//J5bXuBwS0fkNz07A4iPurahJEaMPn3BvfwzbpvmkI+qlZA9GtBVbQ3vjykuZdqHvn71hpHiKk92S/Rn49+NJ2rQTmnTGS6N3SR7xEYUixvSX4yPXvQMwaofkScxpiTRxtr5ihTfpCTLgtFMuRvboZ1yTAdkPgdbxqW6Q6bLa0CljQvnPkMtTisE4mdTH/ww/E7tBSVt+2oUGClYisZ7Yjlcur7iuXbc+6lTzOiWlCZ0ujnlPnkjZlh6aPCgNudzOrkL0u3kU24JPwoe/UC1iANthqJpH/M2oX1fseKXIZCNwFCZyXmq5qS68nOx40qRFbN83Gs9c4edP4Wq0mXpAnkCXgyLGXFqgK0Nt1K1fB9V8LRi8ChoboXRSgJWJ9RCv1oO4rl0X9etUK7VFjMgusufIEbB4YwoaCH9OHvnU9kHLKHRhxT01vPOlXW7LTt6eM6pvjywi/dpoM8PcNcoTD47i0SiHRnFnxgndZmXFnrPLjZePn0zUt+o5eX2fAH51EN+oFf5cX2e9FnldhFSMuKEGrQez3C+m+Tyr2rozWUjtwFb0azjFX4qEpi+j3/JcV39Adad77oi50gZJeRJEJrm+fdIRbCgtqU9zLPl07aPGlQ3Q4sMp2HHa9UVZ9450P7+1X0Sa4lC8OHskHqsplLkaVkEtNEmJI+I9ghGH3GMtd4WX/XnEihgAOwYBP7/AdLrrcdRL/mBcohtbWAcAobyZ+YP1g+Wk14j/JDw7dLmihzgl6wW9rxDh9DWonwvaWUYoMvycuZaLIkasldqLXsJJqp/PDT9ri5KDGDJCH0+1sIhUEWOG92dbV7JWMauqxNr6WF8OeblPyPR1DmNL8jB14gxDaaXNQ1WSCLGCslUdygJH16fjXk093D56MV4Ru0KpeeiUGMFaLoXX5EFl8lve5SebRyY7f2spkJGXauVjB3KWXSntzK7P1NnorO46FZRrGuoqaTm5OUqcuj1n4ON1Bc5P2rMTWPT2VQgE/hdvzJc3vlaDexQxAM6e2Gg67tUpY85+by1h8pnnuZYtSYqYn376CVVxSYwK7Fy4rrr1UIRDy2fhnZe+xP/dIRpgIm59uCf+3mcFvj2pDgz0ipgb7uuGZxLnYfURfw2iqOOSEzswuXNfNG0uK01Kq4ihtKd/NRAPPPS5YR2TcFcnNGszCsN1jnSjUMSUnNiD+QOH44nHOuI6S5kUXrnLyCLGeGiKkbd+DN5rcROuMPw0BGAOLidqnE46kxZ5cGuMMtGurlBuxOPmd+ZC3XAj2I4y0uCdvkBqJsehzdPJVFsMSoMvsSg+sAhJLTV+C/aORMsaqkKCHGHqB8nm4FmZIISc6Oi+0ovtZP+O34qv/sKXQqOXrImKNXnwTD7N8L/X+C3IaCe2X1ZkcneSZ3IwP7El1N2W5HqliVGQckuTFjOD4rz1GPNeCyftGleiQYsPMXHbKY/vAlth5SmbM8mXZbJYaPJ1F08+F45Vk9Dy1/9jWsDEX4pbHzLl2TuyJWpo2lpEk1qRmXBAm9QSv7Z2TIq/9FY89KF4hvaauxG55aUJn11mb5n88g//OXITEM/4UPz9DnWHMF37CLabmDd8aAsEtxyCUx62TVV2KwvWPlzRw7OICd1m5fYUjUymU1t5hyzTYbTe94nRQOQ2WON6PGhM4K32oX1WI6sLvzbjQuicFhcge8kgfPT07bj+CsvviehzEm5Di7d6YNb2IM+qj7JA9INSX158ADNf+zWqBcQ75TrccMO19jvGVjhIzm6p7iqTIgbIz+xpWmsJ5dH1N+CGq6x+xMVBUr75KGLEUqLsIH7Vgu2A52mzTk2CnPZWlJNeEiUaRYyIu28Z8Ob9wC+qexUyqr8X2sL6Z60B0sOINEhB497umuSK5GjstrNoGV4eMhONUy2lQa/paD5sETot2YU9Lusxb7rktFfjpJcCl5ciRuRXmIu585fgTwOmO1tx02Tdd1ILlHy/DxOnzsf9fWjHIZNDRShiRDGEPGkzF+KRftNMhUnqdNwzbDH6rD9sWJ8SWmFpsnzZCrw9fDaa2jtdTcc9gxfgw3lbsDFfnYtYMUvysTo9A68OnoGGxIeOqpKEMis6jqUL3Wyn4s5BC/DZshwc81gfncbWjHS06m/KX7/PHLw9/1vs/cnHRw0pVoLUEYlhHCk8yaw5+iliRJ+0P3M1XlPL7lduOE57VesirUyaMpzMWv3/7H0JdBVF9v5DiQyMOsAYEBcy7iiOjKMMoqCIDsrgvjBug6MyM46K4/D/KaOohF0iIIuAgKxh38K+I8gqyBK2QCBgZIsQIEoixCTw/U919+1XXV39luSFvJdczuG8fi/VVfd+91Z11de3buFZYR8dMVZcnzWSY6egvtdWKYdwQP7uQbivsg/Vmg/Dbpe9/IV1RIz4q32UdePueO7LHXAE853Nxc75M/Hm33rhVmM9LJEyWiKmKI9PTfJjXuZXubnBmLwyFzECAhARo88DE4EGuApGgBFgBBgBRoARKDME/JEkDbpvgpo+rDA3A+P+eokRAfLnLzPN44fLTNYADVNUT43nMfWgOmPPR9aKRNxZRUS+tcdymRkIUGVk/0SRU9fjY11ymMg2xrUFQoDe6Ie4GAxUFf+NEYhOBCjXy1x8vDkvSkSkZMABCFCXpD9h7cf1UdlXDc2H7ZaiMl0FS+0HH44uw9+tN/KildiNxCg1jLjiUkOAiZhSg5YrZgQYAUaAEWAEyhwBim6JgzhJLD1byg+Tn4PMLZPwZj0RQRn4ZKYyV4MiG2s/g1GbpbxGIidQ9m6s6NUS1SsFzm1UWjrk56Rj0Ud345JKPjgickqrQa7XAwGRs4RyyMzGm6uPuU8+9LiTf2YEYgWB/FM/4KuFS3B3/xTcNWkr9hWUveRFp0/i21UrjaPlxbbBtWHEMpw9sRId61eGr9o96L0pjBsjpLafiGnc1ajywIEQzlqKUONcjTcCFcMOTMR4ewD/hRFgBBgBRoARiH0E0kf+GZcKkkLawqNe63KKRZXmuSvw7tUeOa9Ir7iGcCfgLT0tzC1oflzjGiZiTbbHtovSE4NrBp06Q3lPZqLVrF04GAULVDYOIxApBNTcO7eNWI0lQVJIRKptr3roZCjKgSOSS4/aq5we6nWz9Hv+3mQ8VdOHC+IfxdBt55eMceSIkWTiyzJEIHaT9YYLGhMx4SLG5RkBRoARYAQYgdhCIB+ZX3+Jd1regqus3EkGEWPkBGqHfvN24ZSU4zZadSvM3omZPVvjrutroapNLIl8Ok3Ruus4fHvojDv3VSkqQ0SMPw9VDIBYiniUXdVExMxEo+GLPfKDlJ103DIjEAkEiIi5bdA8vDRzCzZ65dqJRGMh1mETMQNn46kpG7D44BkUl4oWZMzzLZOw/qS69TREYYpZzEXE7N27t5hV8W2RQqDiEDGRQozrYQQYAUaAEWAEGAFGgBFgBBgBRoARYARiAwEHEcOnJkWH0ZiIiQ47sBSMACPACDACjAAjwAgwAowAI8AIMAKMQKQRYCIm0ohGqL6KkSMmQmBxNYwAI8AIMAKMACPACDACjAAjwAgwAoxAjCDAREyMGIrFZAQYAUaAEWAEGAFGgBFgBBgBRoARYAQYgdhHwEHECHW2b98e+1qVAw1yc89v1uZyABmrwAgwAowAI8AIMAKMACPACDACjAAjwAhEPQIuIibqJa4gAqamplYQTVlNRoARYAQYAUaAEWAEGAFGgBFgBBgBRqDiIMBETBTampP1RqFRWCRGgBFgBBgBRoARYAQYAUaAEWAEGAFGIAIIuIgYjsSIAKolrIKJmBICyLczAowAI8AIMAKMACPACDACjAAjwAgwAlGKgIOI4eOro8dKTIhFjy1YEkaAEWAEGAFGgBFgBBgBRoARYAQYAUYgUggwERMpJCNcjyDF+B8jwAgwAowAI8AIMAKMACPACDACjAAjwAiULwQcRIxQjSMxypeBWRtGgBFgBBgBRoARYAQYAUaAEWAEGAFGgBGIHgRcRMyxY8eiR7oKLElGRkYF1p5VZwQYAUaAEWAEGAFGgBFgBBgBRoARYATKJwIuIqZ8qhlbWnGy3tiyF0vLCDACjAAjwAgwAowAI8AIMAKMACPACISKgIuI2bVrV6j3crlSQoCJmFIClqtlBBgBRoARYAQYAUaAEWAEGAFGgBFgBMoYAQcRw6cmlbE1rOaZiIkOO7AUjAAjwAgwAowAI8AIMAKMACPACDACjECkEWAiJtKIRqi+rKysCNXE1TACjAAjwAgwAowAI8AIMAKMACPACDACjEC0IMBETLRYguVgBBgBRoARYAQYAUaAEWAEGAFGgBFgBBiBco+Ag4gR2nKOmOiw+YkTJ6JDEJaCEWAEGAFGgBFgBBgBRoARYAQYAUaAEWAEIoaAi4iJWM1cUYkQSE1NLdH9fDMjwAgwAowAI8AIMAKMACPACDACjAAjwAhEHwIuIubYsWPRJ2UFk4iT9VYwg7O6jAAjwAgwAowAI8AIMAKMACPACDACFQYBFxHDkRhlb3smYsreBiwBI8AIMAKMACPACDACjAAjwAgwAowAI1AaCDiIGD6+ujQgLl6daWlpxbuR72IEGAFGgBFgBBgBRoARYAQYAUaAEWAEGIGoRYCJmKg1DQvGCDACjAAjwAgwAowAI8AIMAKMACPACDAC5Q0BBxEjlOOtSeXNxKwPI8AIMAKMACPACDACjAAjwAgwAowAI8AIRAsCLiImLy8vWmSr0HLw1qQKbX5WnhFgBBgBRoARYAQYAUaAEWAEGAFGoJwi4CJiyqmeMaUWJ+uNKXOxsIwAI8AIMAKMACPACDACjAAjwAgwAoxAyAi4iJjt27eHfDMXLB0EmIgpHVy5VkaAEWAEGAFGgBFgBBgBRoARYAQYAUagrBFwEDF8alJZm8PfPufq8WPBV4wAI8AIMAKMACPACDACjAAjwAgwAoxAeUGAiZgoteSJEyeiVDIWixFgBBgBRoARYAQYAUaAEWAEGAFGgBFgBIqLABMxxUWO72MEGAFGgBFgBBgBRoARYAQYAUaAEWAEGAFGIEwEHESMuHfv3r1hVsHFSwOBrKys0qiW62QEGAFGgBFgBBgBRoARYAQYAUaAEWAEGIEyRMBFxJShLNy0hQAn62VXYAQYAUaAEWAEGAFGgBFgBBgBRoARYATKJwIuIubAgQPlU9MY0oqJmBgyFovKCDACjAAjwAgwAowAI8AIMAKMACPACISBgIuI4dN6wkCvlIoyEVNKwHK1jAAjwAgwAowAI8AIMAKMACPACDACjEAZI+AgYvj46jK2htR8RkaG9I0vGQFGgBFgBBgBRoARYAQYAUaAEWAEGAFGoDwgwERMebAi68AIMAKMACPACDACjAAjwAgwAowAI8AIMAIxgYCDiBESb926NSYEL+9Ciugk/heDCOSlYvDQOojrcjVeXLoXbMUYtGGMi5yXNhitPolDlV4vYvx3MeqB3I9i3AtZfEYgcghE45gWjTJFDnGuiRE4PwgUZc3HO30vxkXdGqLTppzz0yi3wghEEQIuIiaKZKvQopS3XD0nN/wXCYmV0XTurtDIiZzl+G+SD5U//xy7YmktuXcA7kj0wSf+Dx4JTn1dsm58dM0/UCfRhwcWVSwkSW/Dj8L0p91z7jD9r5i4Udtlijn3o5J1HL6bEShHCJR0TCsNKKJRptLQk+tkBEoTAZpviLnOtRO/BlMxpYk21x2NCDARE4VWKX/Jeg9hxsjfwtf9OUw9cjYkxA99/Tx+m1gdzy0/hNDuCKnasAodWtcJj3x2BR4LhwSoKG/y5YUyEQXazwcw8lBYsDsK00O6TEkBS6KifcPxQFcffJ/+H77+0SGm48v+xX9G1UQfbpuxCXmOv4T+hfQuDhFT0je11HakMI/pfnRsPv7xiUWs2v5dGZf2uhXNxw3F19+fKrPxKXRvOp8lD2HxtEfwh08ew6gS9PvzKXGJ2tL6h+wv1+L/vuWlhYlxEXL2L8GAMffihh5xJlnc5TLcPPgtDN24H6cCPOhLOqaVyMYeN0eLTCYhpPGzvFQMGHQxfInV8eii3TjjoQf/XNYIFCBr60R8OPwPuKLbhUa/qNztKjQc2Q3TdmajsKzFK+X2w4qI+WkLRo29Fzf06xBwDlYckT3nPWcPY15yAi5MrIybJi1HdoBxqjjt8j2MgIuIKW+RGLFo4vJGxNAC9pZp63EqFIOc3YPhg6vC17cT1ueGckPplKE3XpFakJaOlGVUawUkYkB+maiZ9Npm2I9RQ6rCl9gI/fZEKJSLFnvnKcLKc0Ji6xjeRUz3I8LeJmHkRbYPvi634YNvs5mMsV1iNwb0FxiVjIC1q4v2i2D+EXCsiHblIilfEQ6vfh0JnZX+Y/erCuIvkYTUqktPxOQhdU4zXMyLx1JAPJJVkp08+kWQlz6RlCQm6qLxthRw0c97/ONW9aEjsZvZzJhwk1gT0kHE8KlJ0WO+8kOIncbmlAa4sHNTfL43tIXp6R090aBzGNuYSslsMb2ALCVMPKstpQek/uHoKUUp/6EIexY+YES7eIbQZo7Cn0XUzIB+SAvN3YPLTNgyERMcq0iX0GF/9mecyFyJfkMvx4ViIVkKk8JIq3H+6qtgRIwD2IqsuwMI95cjM/B8Dx98neui9YJ1OJhrvec/+zN+2LMIA8a8jUmH3bfxL8ER0BExR9e+YZBevHgMjl9ZljDnuj74ujfBh6t24tgZK9yi4Cd8t2UiPkzuhVUBom/LUvYyaZuex6XwzNXNNU/vHowHuvlQuc+7WH6cQ2HKxOYVoFEmYqLUyOUmWa+V6+Xi4RNxIKRx7CSWT0iAr9tTmHjY64Y87F8/AG0HJuBi4w1bZVz6aTO8NX8VDqiMtTVwV/5iLA7mpWPO9KdxqxUWXaXXQ+i0Zr8jZJfIF8eWEPutHb21UCMijmL+2Dp2Xg66N1gkTdHxzZg81S+Pr8tl+OPIbkjZneN6w+6fbB1HdupQtB1QB3FCLnHP6BHY8qMOqyLk7JmFzlLIa5UeN6P5uFH49niEA17DeEDmfb8UA8bcgwQ7DPc6NBs3FKsOqcYDdA9HoAjZm7vj7m5eEQlC7+l4bzD5RxVc1qc53lq8BTkqTCS3IDkM/3gcNxhyCZ9q6fIPiu7yWnwf+OoZVE/0odGcNEcupILjaVg0/x1jq5vts70a4vmZi7HfrbZzVJJldP7F/43KOHw1+Fvmgh/WYIiyVaDuJxcbBIPLf8/+jIOpE9FllHtrwZidTp+N1n4k+1PevjnoPOwGcwzpfCmu+6ITFnyvGINw1ZFged/go95iTLgB/9ssz5YLkL13Eb6YILbomFj6Ol+Kq/o/j6R1zvHGNKC1gDfayEP6qs54um9No39X7nYdWk5b4PaRgmykrfsC7wxVw9mTsFjRwdT5AYw8cBhLpjRGzc6VUWtQEtb9mIcdi180/L1yz6cwKkPRHYDwj/4jbkVNGme1PksEBI2PHp/ayXMBsjb3x3OWvoFxssZZo54icxykZ0CAcbDox52YNf1pvy2s7TCjtkU67J9wCN7vUJCFNfPb4t7epp1tvdfu8diiI3Aagraf36DYYiH25CqDGvmsDm+KZNT589kc7FzxHponWT5r4aT27eL4bPa6N3CVGJt07fpHMecV6RHWmCbmBr3x3GdXWHMDty/6xzXLXgKnE9lYP78tGn9ibpmq0uOP+PuiAM+LUGWy8BbE/fHj6zF0TGPUMfpSFVzW7+8YoYybBIB4RvYe4e/bNKewPyUc/XMDcwtcUdY8vJ50YdDFo+gX0yc1t5/D5txgjGsuQVtt6yQvQjYJKH0SmRD6HE+6+bxeFmOctcZA+RlpbhtKwsL9um2pRfj58DeYOL2Nv28nes8/0uc1Np61ni92vPAR48ec5+y5LMmkjv2O2zVjznWD3oJrHAwwRtDzU5XX/N2cFxcZfk7zOy8/p7FS7p/qvNqSXjsOyPdZ11KfKI7Pkm72+EBb+7o/ipGaZyNhe776UV7a52jR40JU+ewDrGBSiOAvF58OIkZoVH4iMcqFfWJcCYogqIPX1+ke4W71aKHr9dDH2cNYMvlOXOyYCPkHZdcbIBrE+7+CN4z90v6yxqSm8014d4N/a8H5WkDmpY/EUz3N/cD25Ip0UmQSKJly1cKDox7RhndXHzEVh5T5+MlNH+JWj1Bw9UHqtkSYvxDOusm/XVURDn/zPu4UBArpKn9qHniuhyOAvLQBaCbq0OAkSBrvEHjNHl+Su++zaDNQ7KdXZOv8B3TbJm2os7cn3YJOW6XfDR0PYPKX1eFzRX/piTpqS2c7GzJxQTJKEw3H3+UyDvkDLwhtHB33+PW3JyTUGE3QdOUVnKK1H5E/1f+yjUnkKbpU7tcNG+TtkAGxz8Kc0bXhU7ef0D1K3aa9dXmvrElp0pNoP0Y3tlXGH2ZscGzrJD3IhxyfSi4us2wTtJvUQho3a+G5ae+hqYjesuS8+MupOEK2lvuZRg/nOKubVPvrpfrd5GWgsHxdXgvqR3fg9clP4XLN2ObqSzmr8GFfKx+JqkfAsUoCIuRLwiFwv8PZDIwZVtOMplJl0m7pKkLGkscsAsaNq6ufkv/p9KM+rI4ldh4Ed/36cTY8ny3aMwB/EvbSjPGe8JIeDowCYXsaO+Y9IPm4RhdHAnNLh54P4qWhIgeEWl7TV8OVycK71uCX8EiS5nmv9FWBBb2Ft/uNSy4noeUgYs5mYNQXFwfFmcgaXRuut/8UzfTJ61h0XLXWaWycfjN8iaHP8dQazt/38HxWyFX03Rg81kNjN2ETtQ8ZitAYoPqS+O49jrswDwQKEQQ6v/DoX0VZS/B+f838RtShjhNeYwT8L8bU+SM9j+5I/p9+Xuvycx1OkSNiUAyfJR3M8fQkvp50Iy7UzjH9xjl//egkvhIvqA2bV8FjSytCAjY/zuX9ykXEHDhQsU4niVYDlws7nNmMnp9dCNfixhN02sakLH6l8ie/fQ83GhO6P6PvpoM4VQRAvKnf1A+PGMTGxXhq2QF/RIk8cepcC/dPnY20nEKgIBvrZ4s91D5UHjIS3ykkhmiSFpOuia4kj+7SOaBrStBkSezfHjcdO4+fMeQtOL4VUydaCzElPw7JIgbiyn3exPS9J1GIAmRv7WOSEt2exdQf5LZo0XIt2q3eh5NWyGvBqe+wdtmHeH3mqshmpyec1Ye6LFLO13ivt5jUVMefZ6+2wtPFG6RV9jYP9a2aimXBoVn4p5jQej0grQdw5aTWGLY1C6baIkJhLj4yiBaFQCG5jQeckGstss6cRdHp/UgZa07OnUl3iVz0wZXz6NBkPNNdd9LXUSye8jTemr8caT+cspLvFSB7VzJeNnT5M0YGChcjGbUTPxlguibbB1i0kC0618Jf5pAtgIJTh7B+bksjqsfl9/uG4bkR3TBtW6btT0WnD2L59LuNfqROzkga8l1XfVTA41O1vatYMfoR1WlMaLr/GX23CB8pws+ZKaZfJd6GbjukFMuBsLei/XydFfsdW4yOX76FoRvScIS2YBRkY+uSlw0S1T3eyJPS6mgyaTI2/SDGhAJkbfgIdwiy5LNu2PSzH4Gj6zri6XFDsXzPEXMMFG9uj29F8mgzqeCfF31nj4F+nU1y43jqR7jRmsTXGTMLh47MwSs9ffD1/h9W/2S1YY3dZsh8Gk6KcRbm295hI0Ubyjhri0a6BPA9qyy9Sa/++YeYbYxn1lieOgwviH7hiookvzYXNXVHDMTyfWIcFBFw4/CiSKqsjIOk+7Xj52FfjjnOotTC/kPTnUiJi4d8jm9pPAi0RedsGgYMEHi0wOfbyN5F+PnoTiya+wre/uqgjb5xQT6rG4s9FllmcvzKqDtiGNYbviccKhtpqz8yCUvleQSQrsIWIfjs2e8xbVQdk+zo/ke8vmi9Mc46BQ/0jWwfwK9Ib2Obh+Wz8tzAhYesg/ksVucGKjnplDAEmQhv0d8634Q3V5hyFRxfjz7Gi6GL8exymf6kOqujCc1VjH5Hz0j3YtVPxBwy88J4PRtt4a3DE4xtYn47iKjNuVPNsdz5bLOilBNr4bXVx+xajIszG9G1j6/k+fxknKyxyUUSueznFCX4N9neIfgsipA250/GWNdi7rf2WF50+gfsXDcAr4yfBKXnAUjHsHiTfpIAACAASURBVBGt0W3FBmTSeCN8cEMXsx+pOuRtRM9+JlFcOekxfLKaxlovbaw5suhztn8A4jn8zYIXjOeLOocCyKd8qP75u5i83ZoXWWNO7/HK9ieyhWa+YY+nyulG9LsxP01qjYEb9hjPDBEtMm6kiBZX/dypn9+HgyQ2pz6u4uisDkD4Pks6PLDoO+tlnu5lgNzQ+e1HHBEjY1++rl1ETPlSLza1KS/Jes0jq70m7BrbBN3GZA186htoq6q8bV2NCBDHQocGbjEJWqVsC6BJhDJ5J8lKawFJC5CLvxgJVz7Xs99j8ojfut6ykyzuNyf0Vl5ZQMKKzki8Fv9d74/4Id0i/kk4B3hAmpN9jyMK8zaga19BsDgXtf6H4wHYbx8634T/902W9jQBMyT1DiTtcm+zKNrdB39QTzMiuTUnS1B5dTJOUVvq4tjclhRObqMi7Jj1B5etXbYhGTUTI1dZ4weaeHkvWghX54TbrI3+FjJx8oO1kPeQj3w35PospYLJUZx+RHW638yTLZQJow57awL7qZUjxhWFoTcKcHYH+vTTvIGkRa3Wr63FQ4B+JTdHPiuTYqRz5YH9sEN0C5pod/sLRu4XiYzcbfy06T1cl1gLf195xCZ07HYse6v9wvw7LXa8fc8s9xNWTboOvp5/x6wsNwueteoV1HZN3smvq+PRBTuULTz0N2e7tFXw2gnLzsNpF6Hpfnp7V9yc6MPFQ4YizT1M2TDbF/ZzqgWG7gnhBvJZnc+Q7R191Uow3j8J21zVU79Qny+WruH4bF46ZkwUW+OsaIHOl+LWUYMsMs3W1uNCb19HYUu3K8YtgjNwg+5VSQyylyZSksY0hQB1tGcvcJ0+5yhDeGvIEdPH1dP1LJk+eQOLTjhqsrfpyn1blKBF7D9ntMOtnd1RF85aAFh5zO6Yuc2xLdsoR2OUorc91ipRc+Y4Ec4zzyWN+QPh5EXCiN91/uxRnf7ncH2Won0uRosFaW6s9I14/ErzNLeviK08A4fXNbeaCz27XI2HJhMZr1T30yq896kPtUbPgvsAUqsNZT5rz1c+/S+WhbKlhWzhGCNMOehZovog/V596HDsULZK0t8CPf/Jh4OeMBdobFOgCtdnSc5mk3ugdQ8fgj7Xo7EfKRjw19hAwEXE7N27NzYkL8dSlg8ixiJNtOGseuOZC/UAIa7WQ8jx5lauiias8gM74MBNEzT9CTeltYA0yYLKaLnE/T5FqEOLB/nB5S0L6aBOMgFK2CfyD9w6ohsmbtztTwYn4xaJ64A4iwashZcrnwY1TpMepx70cHxgzhzzKE7txJ/qICysib7HpM4xiQgkt9eExN6eJC9OvLYlWbLl7cfSuVJOCIdsTp1JG/uTZNRMjOwyjgvCwT3pM4vpsaYqbMxdx7YXIXvHZMcxm463lh7yefsutaj/9JbDLF+cfkR1OnzAal4rJ2HvsJffv7z2a5t5kKRcOvL98vhktG0tEFy/63Exf7XyZNk5Q/wyCZvI+pHOzRbsN0kVy69rjZkH8/22u33CwmFfWQdxrbW3VZd2i42sD5Vzyq22J4+B/je7Xn4t129dH1uIN4wtIZVxad/W6LZsJXZbEYia0iX8iXQKIt+ZHRg82NwmUKXXvXhr7nxsPkyRcjoRpC03Xa7GveMGYP4OKxpUV5x8VudPujGNyqv2dXxXxyi3z+hE0f1m5Mua68/H4kusguvHTMFeFwkk3x1sTJO2cLoiYvrgYZEoWFmg2gSkzlcJEx2GtlghyKTD27qf+qXcV/0+Lkc8mFGjfb4QL2gUotgmYhLwZPKTSOisIZVsec0Lalfta47vqt52VJacu896prsi15QGo+Zr+D7r3yZWBVd//hYGrNnsTzTtoRfl/rPzgzn6kdfYYOWWmUo56kQEVS3cn7LKSSCTPznqVMdQZxs0n1Tz1nmI7yfqNeM7+Y7TZ/1blpzjtWcLrj+Yzxt1jHEV82/TVv1TUxRh+izpdsfoN4woc+f2W3cDVN7Rb1S7qHKGKZO7Vf6lPCLgIGL41KToMHF5IGKIhde9cdeiTItbVwi0VJomR5oHhFlK86Cle9QB0biBJlL6BwAtRsJ9uNAA7XVfsIeO7n5vWQLpYCW0pMS+4iFhvIUcXgbJeklO5yRBsq79Zk9+K0JY3DDoAVzb2YdfDRqArcobF38d1IY6MXF+d0wiAvkHTXpc/ubfnmRvW6ItUbptboH2dBsPbr3/2XqRjC457BLKBeHghXXgvxPmTv8NlHvHwtdDPm/fVcRWvurl8BcqTj+iOh0+YFWplZOwlydYRuLdJ9BhybfINrbs+GUSV8Fy77jf7GrGLWeVyrdAuVVMW8j6kc62PS2/9pdxt09YBJxkau1t1aVb3Dq0oHLOvqm2Z8ts3BvYbx3VS1/M5JGUJFW0J0iZNhhelsl6HYnBTQyM5PGrvZL1mkmcH+9tJdIV/ijenE+bW/JkvTofl/1dO0a5fUaCPLTLsznY+82n1pZiHwJHLYVi+zxsnHknLnLJbtr8pskrle245IOacZIw0c4bSL0QZPJ8hvgXr/5+aNabt70X7uyi7xeV+/wPK+W84DYRI54h1tYkTXQnSSw+aTxQ+5rju0tveuZJEc5WBLNnPj+50ai4Lp7POpK6G75VBVd/0QlzNcl67ahdrQ8Km2p8TcWmIAsblrxl5dJTonHInzzrd7dhjuUJ+M96JcRKbZe+Uxua8Z18R/VZ+t05XlOFwT+DPcvtGkLql1Q6PJ/160BbkwKTmlTe0W9Uu5TLfkT48mekEGAiJlJIRrie2M4RY+3PdCUt9QbJ3MYUJMT1+GK80UvJZSBXGXZEjHe4qKiWFiPhPlxogPa6z8yUX/oRMX5ozHwCXy35EDSR103o/OWLcRX0AZmNxeOu0pwwQ23pozT8WO42978n+uD9piKEiTE1R5+B5A4wISGikbYnUY4FOTcHNUFbsozcPunHrLw15l9DmoCQjJqJEbXh/AyGQ2BbUMi8w38pZ4gjv4/VahD5oqkfkT+pE0mhiVbOILo5cRffaPukM/+TWc5rIeD1u7t24xdKRGjknJCOPBV/tHxW1o90tu3pKuNuPyS/1Ipn1RV0weFuU1ud48dgfu0o7Ppi5HbYkIwP7ZOybsL/NgbJSeCqJdAPoeou1SHy1Wyfib72aTrV8cSSvY4T16TSInELfjqwETNn+yNKqg8fi71ihxn9I591LQL8/uGIZqLyIY8voqHi2I8EdH7aY6krYkUuF4LtrUiji/u2whN0mpY4sabf80jSnkYVwF6EiQ5DW6wQZArwDKF+KfdVwIp+6vZ7tBpGJ8/4IE5xen6m5oQse9yyyHwi/TVboUhsatceD+gPwT6Vlw3mnE3JuRasDq+/E07qQlb+HtAWXhXLv5fMZ0V+vY0r+/pPrOz+BMZ+J3c8yt/iQ/UhfbHaEeUWgq/IooosJxv+iwShv7xNzDV2KzdpvtIJQiHbm2yhGQ/Id5w+6yf3Qm5DkTPk501I/VKqPAyfJd0MHezk5d55YhzlpSaDXoYhU9C6uEC5QICJmHJhxihTwhpogu6xtMW2Fi+uzOp2AevC2sueqH/4UyJfR+6CAAN30cHJxl5Q9xtqszlamNkh/ao4Ht+DDdDmvmof3EnVRLJK69QDJWkoyeJ+0NEDPkhUBcl69jDmjBHJ00IsT/cF+wyAM91KEwJtlBQlj1Um4w4sz2ZjzQyRTLAy6o6arAllp3wG0ls7atzrM5DcASYkoAiuRLGt7TvMGPlbTXJRs1GyncuPzuZg9ZQbg9uCZNRMjPRqkU94v30jMlAljuQ3eg5fIxmS/oNlJ52tFuwfi8e7e21V8RMcLv2d1bi+OWzv+itQnH5EdaoTSVE92Umrd8jY0+KuGYZ+78x9UvTjanQUx127FhRhLhDILwcNxX5HE0XI2dzRSMQr60c623q5JvPu9omM0/ZVjS38P3nr7y8jrogE14/lzrL0LbhfU8nAn0U4vOo11FG2cAW+J5S/ku7e/S5QLXk7+uBukZg5VF/L24w+A6tq3rJbcvR8DfPkwwrtxYXSBuUFCWuLidtnAukW8G80tgQk74Lb3hwPwnjzT2SSrl2SydVXZU2Cy0TEqM6m1C/lvgpr+3XChGUIMX7BFUlqj+FeJ+hYudK08w9ZPdc1vWATedyOY/mEBFT+/HPskrkI1z0h/kBjmky8qNcBbRFKO5Hy2TxsnnU3qjpO4BLtkz9ofLBgL8YOq67pqwHkJkxkvSl3UaDIcaVK+zkZak4q8v0B/ZAm25ZIPs24Sb5sP2MUGYJ9NZ+9IcxJSTbNPETfRug+69KB9PUgNSkfW1T1Iz0I/GuUI+AgYoSs27dvj3KRK4Z4ubnyGaqxpDOFA4Y+waY3YsEn/UXIWNzSPOlInIqzRXdqkjKY08Dd81mM2kEnTogTa6biv8ZxfpXReM4ObSK27HVv4Co6pUiJZAhkEdeArhYm0sHKfK87NUlN5KtdJBr10sNf0RvpGD32DWNPs529X5y+cDQVY4ws9nJ+E0XAvFQMHloHcSHt3bfuJZzlSYNSbdF3o9DSOHa6LlovWKc9NckxKZXCqO0HvL2Y0IeNUoI2X5fr8eJCakMRRP4aSG6aCGkXRuTnPjSa1AN/+8SDWBPnKMxrbJwWIk5J2SJO7KLTCuwEfartZAGl3AdaOZSyxlfyCe8FoY3TJ89j7O6TKJRPF7EmwDbmok6KRku8Fu3WHDSieowTuJa8jcZ0vKeHfNHUj6hvqn4mVNT2MfIPD93c6Kdj8EBxMtjFaDF3i3lyhHHKRm88mWQdo+zqI2EuEPYNRmOR8FScorPTPDXIOEFn1pOoayVClfUjnW17hkDE2Md/WifN0Rjl1lf9haKtdBFBzrJ2pFjP+/HRKiWyx1nU+hbcr9Xb0he3xRsiB8vBk3YkmoiMSV38okHE2FsL1RuRh9R5rVCnsw9Ver+GKfsDJjCx7rbsqFvYS/UfXdcZr8+YiJXSiVfGSU7fmCdkOV4kiPuOLUbnZJHjSzqFy4iMWYKP+lfV5D6hFxbV8ej8VMMHxYlaE8be4E8I6vBn/5v8Kr1fxHB6rkoyuy/D89n0Bc+h9Yxp2PD9MfuULyO658gW+6TAwIv64LY3/dz0u+2HDuMHOrXGLbz1SwB7Ub939VW5suAyhU3EWO0a0ZO7D+DwUb/fyi3L17pFLJF67uT+AOzoxiq4fuRwrHNEbsg1u69pUX/LmPfwzCdhvPBwV1UGv4Tns4JYWTztdSOvlP+0Q3Gy4HdYMvUOVHXl66Gxz4drxy/AQXFko3FC21i8PZCOq5efydJpikckO5/9GScyV9onSTq3fvkjLmsN+gizQ5mX2vYWp6INxPIMKyqX5iHqqUmUi1Hk41srnvUif81ydB9EOjhzkAlDup4xYVpX58P6Kuj5Kp+8qS9Jv4bqszodirLm4DVxGp+O1LRxPT/9iE5NqtzzfvTcdB4O4CAA+bPUEXARMaXeIjcQEgKpqakhlYu6QtbgFHhSJUtNR1Y3xeeO+Gq5jHSdl4rPh/gfCM79mVVw25QVzuRmNKFS365Y3723uQCwCRN1v7aycA7ShpBRXhiJY2APr2mHG+j0CEW2yj2fwqgM58Rfu0g0YKHJoCKT/bZPld387gpnlyCmhbOJrTxxkAqpl4RBwIlrHlLntvCfmqHorUt8qns4gt5UiOO/Jy132lssoOaYx5I7fYNwUPQJJHdAIgYgArFyl4sCHOcL+BP+kQz0WR03fpaAqq7oJLIpldN8KjgTTnqdxf2Kf9incyl1iwnHyk9wh+Zt38Jx5nHeahuVk27DrSIZpmNxJzlIFPUjwsnZH01ZtX2M/MNLN0lN81JKrKr4t6/7jbgtqWrJI2KkZK+qLar3vg0JXZ3jDekcFhEjxqjVrxvHoaptmN8Vf5JwoMhE132Kz8ImVRUfJNzU8vYbZ6UPS22rl2RTlyyiDdfWAulum3g0ZbOxk4oYl+QfJLPr040T2UMrU2fNdqmAbVSGO/eJ/4WFs43KuGn4i2iii16zx1QPW7j8P7xFbUA7GLZ4FCOVZ15AnAycndjaRL/LBiKfzmW4efBbGLMzRzoFLHwiJlyZwiZi7IhYnR2q4LI+zfHW4i3IkSLhTGydWEB6DurmOMHyWHn6u7349MGnRlypfSPqvofns/4IF50tfNBt77YPSFB9sHNd3NZXJFuWx67gz3kdkWZHPKltWN91z7aA9naNsyfx9aQbzaPmHW1Ux59HP4nfueazxSBiaG7lqN+Js94Hvca2APOPEH2W+razXf9zUGeLgLi65lBShwhRJukO+4WeMabL29XkQnwdkwi4iJi8vLyYVKQ8CR3LyXrNwSyMNyXWJDOs8L6CLKyZL51AYyTP9NgHrp3EWhOaRfpkm7IvFfywBv1H/AFXdBNvuelBoUx6tG1QWfPT/XAsQs6eWeg83F93lR43o/m4UdpEujSRdT4khKT0MFdkQhFy9i/BgDHyyS0h6l1KETEmrgXI2jwEbe3TXirj0l4NPfe/6x+O8B9lLaKKZignCyDQiTLyREiKNnFNRjzyKcjOYW9PEtEJ8mkSciFxLZImD8RzfWuab6Q7X4rrBr2FUduycWTNP1BHJUlsmzp9yO9/7u0thJOjjO2voh7VP0RW2XTMmHSf8dbfPFkrCYu/P2PnGXH5mlG+ORKsvuDPW5CGAf0DTIREZoso6UeEk7s/RioiRmwvzMb6uc/h1h5mBEzlbtehmdGvj2D+2DolJ2KER4kjT0fcapGalXHpp83wlhjPsubjH59Egoix/NbzlCyNP9luL/p4fzz32RW4WCabdX3sbDY2f/UhnlbLCt91laexTunDdrvui6If92KJclpZoHHWX0OIETFBx34NTiIZ5zKnzpW7XYWGI5OwUJMAVESOZG2d6DytLNAzTyih+KBxOpNYwB81/UNLmgY62a2EREzR6YP4ZlkXtPn8Zv+zVOjQtznapkzDluOFfuitK+qrIY9peekYb0R7imfKdbihd4Kb9HeQb1FIxCAP6UvNaC3hE9f1vgEJ1jjix8GZR0hPxAgfOIx5yYI8172wAAKd7OYa+23r+CNBnZEadoEovgiXiBHPrQ2YOPVp+E9ACjxfEQRY+tfvoXmSlVS7y2X4o9Wv0+bcoRAxgHGC2Px38Eg/yVe7XIbfDXgCHRZ+jf0eBxMEOplJ92wTRhHP4CHyfNAiJ8U8xNX7HM9688S5pHX7ccYVTWmam/qqt98oblFsIkb4dQ52rngPf+5tzadonuMao6jN0HzWWwf/yz0tqfn9UmWe7Z+3eeMRmkykgfEpk+WuZ6OjJH+JMQRcREzMRmLEGPCBxI1ZIoYWpiEfWU2DUYAjqwMBFcrfaKLMA1coaHEZRoARYAQYAUYgxhCgt/jKKTOWFgXHN+LzL0SOjup48esfolY3iia7WJfPoyAbG+e2RHWRsH5kCspECyJ3wjiIIWrBZsEqBgLR6LPFkolyICoJnCuGFcu1lg4iho+vjh5bxyIhZuad8M654kKXtjEN7Icdzp04rqLF/oGJmGJDxzcyAowAI8AIMALRjwBFt5i5I/x50YCi0yewb8swvJAkoloD5EaLAiUp8tU4dUfKayTyip3IXIthI83tod65jUpLCTO/3NSJdxrJ8t3b4UqrXa6XESguAtHos8WUSeQa2tgPj/QUY1hl/GHGBpwqLix8X9QhwERM1JmEBYooAkzERBROrowRYAQYAUaAEYguBE5jy6yG/mTEtF3B8anfohNNepze2RsN5e18DvnNLQ+6XBWlpwNtB/Rvt6guks7H6lkSpQcU1xw1CESjzxZfJtoyZW5NrIxaw0dhd2m9uI4aG1YsQRxEjFA9FiMxKpbJWNuwEGAiJiy4uDAjwAgwAowAIxBzCJzNwd5vBqCtnIdGnHoo8u8M74ARG/fjlJTkNjr18+d2u/kTK8+IIGOMnECB84aUjj7+BaQ/J1jUg1g6UHCtMYJANPps8WUyiBgrJ1i3FVuQXRQjZmAxQ0bARcRwst6QsSvVgmlpaaVaP1fOCDACjAAjwAgwAowAI8AIMAKMACPACDAC5x8BFxFz/kXgFlUEYjZZr6oIf2cEGAFGgBFgBBgBRoARYAQYAUaAEWAEGAEHAi4iZvv27Y4C/OX8I8BEzPnHnFtkBBgBRoARYAQYAUaAEWAEGAFGgBFgBM4HAg4ihk9NOh+Qh9YG5+oJDScuxQgwAowAI8AIMAKMACPACDACjAAjwAjEEgJMxESptbKysqJUMhaLEWAEGAFGgBFgBBgBRoARYAQYAUaAEWAEiosAEzHFRY7vYwQYAUaAEWAEGAFGgBFgBBgBRoARYAQYAUYgTAQcRIy4d9euXWFWwcVLA4ETJ06URrVcJyPACDACjAAjwAgwAowAI8AIMAKMACPACJQhAi4ipgxl4aYlBDhHjARGpC6LjmB+1764+Z5uaNl3E5jqihSwXE+oCBRmjMcLdavioprNMWBrfqi3RVm5HKzq0gg1LqiG69+eix/ORpl4LA4jEBMIFCJj/AuoW/Ui1Gw+ADE7HISLdWEGxr9QF1UvqonmA7YiVkfBcNXm8owAI8AIMAKMgIqAi4g5duyYWoa/n2cE+NSkUgI8aw3aP9QJCY06IeGxiVjBTEzJgF7bEfE+Hxr0Sq1Yk2lLb5/PB/t/g15IDWFFkZncCtWs+4qFW2YyWlXzwfdSCnJLZr0S3L0WHeNJ95eQUnaClEAHvpURiAQCmUhuVc0/Dlh9+6WQOoV8bwP0CmUAUURe2zEePl/x7lWqitjXoDLRGCawCnHcjJhwXJGBQNGCt5EcH4/ky/+CtXsAFC7AIvE9/nLMHC5+4H+MQGkhUIitbwtfuxJLlobeBvts6FhxydhCwEXEcCRG2RuQiZjgNsjZtAjtX/kUD3/ybeiRLRUlIkae6Mpkgeu6hBP4aCJiCjeiR70Lgy9KtiTh5gt98DUbgn2Fwf1MW6IEREyJI2LItpEiYtJn4I0WN6HWazPDIHaiJSJGJoSIGPKh2uXXoemrfTFv1ymc0xqwov6YjdWf/RV31W2KpGIs+mMJtaxpz+ESnw9xL6Ugx9MJsjGrzaXw+Wqg3dKfi6meTKb4fTA0IqbkETFBSY/0Ybj3V5ZcJRnzwkAnqEwcERMGmqVT1F7U1nkR3x4BcHYbVt3HRIwO7XMHF2FF62aY/PRwHNYV4N/CRKCERAz7bJh4c/FoR8BBxPDx1dFjrrS0tOgRJgolyVo4Fnc06oS7u4dBxEShHqUiEi3WXcSLf6FgRnKUIyIGhdjYox4uDBKhsyXpZqPMI2OPIDI7aiwy4Hy92SXbRoqIIVIpUvWVikN7VaonYuwopbir0XbmIRR53V7hfifSoIT9PhZwy5qG5y7xwRf3ElK8mJjsWWhzqQ++hPex5nRklKKIt9CImJK3GYz0SB92L37la4AmTaujku8RjD0SmVEvkOTBZAp0L//t/CBwLm0QZogImCvfxQ7R5Nk0rH5QEDFXYMGsH8+PEDHSCmE17i9MxETGZMUjYsgO7LORsQLXEj0IMBETPbZgScJAgImYMMACLVgjvI0kmiJiRHT1xh6oJ6JdPEmRLUi6WUTNRHJBwkRMOJ4Y2bI67PORk/kNRr58I+IEEVmjDVI4iY0FewUiYpCFac9dAp8vDi+l5Ggjo7JntcGlPh8S3l+DCPEwiC4iJh3D7v2VEf23bf6bqOHzIXIEtHdPZiLGG5to+YtrUXvuINY/Hf52kWjRpzTlIKyYiIkUyhEiYthnI2UQrqeMEXAQMUIW3ppUxhYpB83nZnyDwR8MxF33JRr5WK5t9imeTpyPlZlnFO2OYX7Hnkho/AXGfZ+HXXOn4dVnuuM6kcOlSS8833cNMqQZMpEvRo4XUcbj/7PjDjnaSRvez1U2aCRN0XFsnD7FL0+jLmjw3AgkzdqFE+pLxZ1z8LAVnZN9NBVffjAAf7xbyCfuGY3Rm3K00RdFJ9Mx+7PhaPFwV1xj6NwDzdqOw5gNx1HcXTMOxe0voRMxhYfWYMQ7LXHNby4w8x5UuxxNXu2LRXtPuxczHkRMTurnaFW9EnweEQmF2Zsw6l9/Qp2qlYw2ql3eAC07zED6aXUPAS0cBYGUg9SJ7fHglVVRSWw5qHkLnumzCllyuEOw7Ulpg9C4ig++R8bC8WI4PwupKf3wmtiiY8kUVzMBTV8dgtWOBmxApQsdGSD92bgk/OWIpBCiEvIzsbhXa9xV9ze4wIhuqobLf1cLVSvpcsQUIjdjBb58/xln+QYt0WFGOhzQUhRMkIgpNYcNLTLtiBNxf7BImsJDWDPiHbS8RtKhyavou2ivUyaBk+RPPx9ahqTWDVDjAoFZNVze5C1MS1d9MAD2hdvR/64qxkL8lTnOJDb5WalI6fcaWtxkYemLQ82Epnh1yGqnP1lmNBeWJomZkzoR7Vteg98IueJq4pZn+mCVy0fykZWagn6vtcBNtUx/FWUTmr6KIauznBE6VoSTIAsypv8T9X9dCXFXP4Yvt+UjZ0MftBT+XqJ+RH1I9j3dtY6kLUT2plH415/qmD4n7KDzJwsn0z9Mvy407HeH1ce97CfY02xsmtAeLW1bWG1M3YlT6nBgtRPqR+DtSblY8mYN+HwJeN8RDhNGP9IIQn0kYESMrv95ksfUiLDFBLRv6RyjrjTGaY+xxNqWZPTj3CV4s4Zm7DOqJx/R1UNjl5d/hC6T2Y+cvqeOMaSt/Sn8Y9S/8Kc6Vj+qdjkatOyAGa6xoDjjh90K8jMXo1fru1DXeu6J58vDHaZip9YJ85G5OBGtaEzz6tv+6qPu6tyJqZgnImJaDMEBQ7ogi+NfcnBg4WAsbd0MkxIEYROP5N/9HjNe6ImtmQV6/X45jN0j38bM22/EOFG+1u8wqfkLWDF3L35R7jC3Sl2OWaP2oWDfHHzVugkmXmkSQxNbfeRugyJ4ySutaAAAIABJREFURETPuWNIH9kOKTdeacg17qZ7sWDYt/hJacP8+guOrx6E+U0UmRZkOuZcRL4YegrZPf6Pe1ef5KTw8Gqse/tRTLZkEljNaj8G6VkarM4dw3eTumAOyRR/JSbe+wJWTN2u0cGykxHJdA4560Zi0aP1MV7Id+VNmP76MOw9rlM8D4dmdsDM+gmmLlfeiClPtMf6b+XCZ3Fg0INIjv8dlq7Q1WH+Rti4dM/bjc0dHrX9Y9yNd2BW+7EaecjXRDuKPa6sh5kfLcAPOpjC9VlS4cx2fN7s1/D9qh7e++ok/cqfjEDUIOAiYqJGsgouSGwSYkU4tHQyWt7nQZI0H4rRO2UyxiJiGvVDu06DcLOLWEnEfT034KhFfJw3IuZUOka/3dMkR4LIZLipRcTc3nYkXmplkk8Okqj5CEz7XmFvjm9E12c6uwii0kkkHGgy7e9oORt6oeklJjniWGyLBXdcQ/TalOckY6SFM+WpLcxIxuOChPHVxssp7m0h/r87J+SivbiGvbApT1590QKhCV5oU8+McHCQB3G4f0g6/M9s//akewbKv5s6pg1qjCq+ODw1wbktiRZPLp1FW7XbYelPskx+vMyrAGSAXZTwl3XWLXrsG4CcVehYP86VBNSW0UWA6Nqg9hScdAtBB67mfeoiSYuTSw5Zhw3o1fQSgziz5bbbiUPDXpvgMLclV8KTf8MDhg+R/NanyxaBsC/EyvcuM/B7yZE4lXxKqduSq3a7pVDNbS4g6+NvHZ7HjXHu++LuH4J0vxMCtH3M1lW+pzbaLf3J34+ssk+1fw+3SXUnvNkV/7lBRG9Z99ZoBzmNSej9KLC+dv0+daFdiIzkx1FdkH4kg/2psR2E2mYi6ofe+UA/jrjsl4U5r9WxSEa1nSD9Q3Izz0vanlTjdSz8UenDRExc/zG+kR9JdvSgKo/4rvQjTcOEgdPnlIK6/heQiAlkCyGXHivalmQmAaZ8OLpoQPIRXT00roTjH3qZwiZiCjOQ/LjYUqWxRYDnUejjh7BLITKmv6rt18Lv1TEQyMGqjvU1zyIho/6Zp1g/Jr/aOWV0hMTVL+Lbg4paZ7/DhuetRb96DyUIlm4x66+NGe3eQYpBwCjkx+3vYruDM7C2UtV5Ggv+cauGKLkacyeqQuUjc9BDJimkyhR/NWYN32WTMUQ2eBEw9LuLjMA55Cz/CNN0OsTHw1U+fzvWv6CTX+hfC5PfXaKQMRaJUftBLPr4BUxy6RGP8S9OhOPIlXNHsfU/Hm3Uuh1LlviB/WX2v4NuTyta9P8wTknqfO7oAiy6VbEZyabaDsF00OktOUuYlwVL2+HX1hhy0SPj4HxNG2ZlXJwRKAUEmIgpBVBLWmXMJus9/i06PSGIiO5o/cUmfH9KxHUUIS9zEwa9YRIbN7+9DJk2J0FEjCBuEnH7a1Mxe0cOClGAY+tm4WlB6DQejNH77BtsaImUCRrZYt9hXUjRK/pDk4qwZ8IXBil07ZPjMH1bNk6L5guOI3XGBItk6oMe66S37FadBonSuDfenbkHJwqBgmOpGPBqVyQ06oq2M7Icktjyd16NvcfPmBEzBT9h35pl6PZRClbqhXPUEfoXr8m0VEPhFiQ1EAv/ODTsuAQZOb8Yi8X8rPX+bR73DHQuOBUipjB7OT4wyAOvCakVKh9XD/+cvA0nfjEXRyJCYdKbJtHiJFBogWBOxGs/MwpbT/yCc4W52DnyMXORqCSgtLcnqbIiDYMaV4Ev7ilMcITDAJlT/o3HOyRj3Z5s/Gyt14TeA1qJRYD31gYTvUBkgISvdGkuSHSLHiqUhZltfmu0ffULo7D56M/mwj0/B5nLE3GniOpxESDr0fOhV9B3XiqO/GjaDoW5yJj9NuqJBb7XQo8Wha76SBaPTyIbPO8rxJakBsaCJa5hRyzJyIFh7vwsrB/5srXwuQcDZQaDZBGTpriG6LhkP3LPAflZS/G+4VdqUtUA2HtGR2Viyr8fR4fkddiTbeGKfGStH2BFcblzisgLyNotu2LujhOGLvmZKXj9GkGWNMMQOfNz5hT8+/EOSF63B9l+h8L6Aa0Mn3UkkCUcfT7UfjkFh47Pxz+qWwvP69/F1zkZGN2iKny+O9FnB71HDrcfkQ2pPwXyPausFU0RV++fmLzN1BcCp9RJeLOeGCcU20lEjFjAivvGrMs07Cci4Pq1ECcLKfYj3RskYtWhH03/QD5y0lfgy3dex+ASn+dM25Nq4PWFP/rJLwC5S8ytOtd//A0cPAyK2Y8s2EIiYsgcxmcAH7bKFW5JQgPRh6vdg85LM5BjdKRC5Gbvxri/iu1XOntaPiLlv6EIIff2pEB+oX92FE8mSXHl2SH9xb40iaQ41PvnZGwT4774i4henPSmOaapY3zY44fhtOYpdL7aaNl1LnZY7RTmHkRqysd4Y7DzeO3cZe+gdiUfarfsjWX7c02ZxDi7ohdaCvJYR/rZGoVwQX1CRz7Zv6mkWAj1lrBI0eKPMLP9UGzf8QN+tkjnwpyd+NYgQdwnLRGRMe4vA5Hxw08WwfEzfty2EGv+0x7rlYOZHETPNS2wbO5uo53CnG+x6iER6aK0QRExxmK/Fia/MRUHfyoAfslBRn+TbBn34kTHQQ5nN3+KqfHxGN/sfaTu9st0dP0ozBckwuXPYr3K3QDw6xI8R8y5Ewuw6EZBSFyF6e9PRcZBK6T752xkLuyNeZ/KoSZn8cPop01i6PY3sFE8V4SdfsnB9zP/zyRzatXHV6tklp+iSSyipk1/7LB0ObN7LOaJtimZrWHzc/hpRluME6TOy0Oxm+QxIpw6maRX/U7YZTVxdkNPTFGxVnzHtNUVWLzQuuncCWxueyWSa/0B84auQralcmFOGrZ1EraohUmdVtkklyA/zVOTTB0mtPjIsscvyP22vymThqxTxAj9K0fEhI4VlywTBFxEzNatW8tEEG7Uj0CsEjEHZ43AbV4JdE9tRa9nExVihYiYRNzXaaVjGxJwBhv69dGSGAIpm8gIN1lvMCLm9A70aZ2IhPu+wOjdtPAh2xRh//Qv3ToSEdO4Nz7+KtuxDenI3NG4vVEnPNh/O/KoGjH/mz4ctwqsuq23I36kP0f4Uj+ZlhuhCWaNNilwpdQoTMOgpr9yT/jlybQdwVEbL0/NxBnlBbTRlnVi0UMjDji3Z4g/Fq7Ee5eppxnRAsFapDq2IVnllUgB2AtwZXFsbUuKe2qCc1uSDIJyXbjyPVymfSsqFwy+kJJLi+ugRAxNxtWFhriZ/uZJgKit7bMW8h6Td1q8hFyfVX8wOXKX4Z3aYmGiy9FSiLRBTfErFVuSRfO2e9/oFqjq86HZkH3ShE6HvbmQ//wlM0eMK1pFhcf+ThE07kWtaa84NOyxAWpgRVBb2vVLPi6TYoRj3KMYe0A4OPXVGmiT8oMxlrjaCLsfkRDUn9w6Ugn6NJNaP4QRhkz0q/lJ/cJpC39ETO2XpyJTGQC0BAVtFWzQXYmEc7ZXkm9EPtRotxT+c5FoW9L1+NgZDhOgqSD9yLpTq2eAWm17yz7hKF+INR2vQCWfm0wSxVy+QfdaRJoj/w35mro1E4H8gvxRHj+KKRPJZgqOeLX/y3+Hlc/roRFwuyD1VWWMD3v88EdQNuiuROc5ZKEvVlRRwrv4WrNlyRyjFLKRbg31k2xkky6aaCBX9FqolUe+3Nlt/TFdE+lhLujjMe4vQ3BA5hE8RLCJmNvfxGZlq5Ndl0ys2ESMJnrizGwsFATNrd2QbrdXhLQPb0RynVewyR8AYv/VjASpg7kTxRFSzn+hEzFnkTXicSOSZdJ/FyiRLM46jW9Fm/H1XdIR4o4i53By6ssGSTPh3aXSM49IjKsxa8h2ZYuX9TeZxKA8KncnIcNlh7PI7H8fkmvdiuXrzMbPHRyN2bI97fv7YL9RxNq+VPturNwi31Mb05I2SnJaytBpXA5bkA61MPnNmco2pCLs7XkHkuP1trBq5Q9GoFwh4CBi+NSk6LFt7G1N+gkre36KhEafovMq3e5cIlaS8NGKHAtoImLk3/w2ILLlkWF7QFtf6K/0t4hHxOxdhL826YRrX1+M76kx+TPzK7zWvBMS2i5EJv1ORIz8m/U3Tzmz1uJdYxtTIm555kskTd2IXT9YkTFUb8Q+dZNpZ+XmwisOaj4NKmVu6/HhJXmbBxEx3WdiuBFCHoCEUd6Yu7c7WBNOx4Ik3AWCkNY/uZYXil7bkkz9crB7Vk+0vquumftDmQS7w9MJFfGpIwPkv7uvPRdPVlF6W69tlybqGuKE8vvYeUkcesgLKUkmWrxo6pNKuS8DyGEUtsiCuFfm6I/FpkW43G4AWWiB68SE/Fq3WPEh7uq2mHlIZu8sNXJ2Y1ZPOfeOfL+bpAhmLzc4QM7uWegp5Zxw+Lvs44TjX6daxyxbOkmRDGr7hIWjToetvSKgAvUnWQsqJ+Pivnbawk/EOMYIuVrXdSYmPGFuPYmr2RCv9J2B9fusyClX2WL+YG9PkrZ2eW5LMtsoVj+yxCPbhI5BsPHDiuTzWHyrvkEomdEkKilAdlW3J9Hvbt+3xzdH+8WTiWQzPunZ0SvV9Ww3/k79QvVrx3dF3rDHD9JDxcMhqfQl8HhD/TF020tVR/3lLziybBAWPXq7lbvFuQ3FteXmbBrWGJEs8RhX7y9Y/MVcZGRSFIpbWSJiXPWIooULsEgQK3cTGSCd8iSTDlQtlacTocTvNnHjlJu2GJmfStSNVV/IRMy5E9jYJh7JEklBIuk+bdLj8VFwxkubpSmPjzNJsIZs0VVOvxEWtE1I+3klllCqm8JFWHxlPMb9a5bx4pBkSK59L1ZtF5VaRIkUdUO2c2Kp4Czbwo6IkdoleUULC95GcnxtTOtjMT3S3/iSESiPCDARE6VWzc2Vtr5EqYxOsYhUGYzRNkPhLGEmzZVJF7pH/s1/jyeJUZoRMcEiZrLWoP1DESBixAPHkdjX3J51yzOjMLIMkvV6TejJGtoFhjXxvf6+B3CdCJ2v3xFrvI6KPW9EjHR6kr1tibZyuLedBN7zby4+1QUnYWJ+BltIOUuLb8XCmqqhBYpMYIi5qp2bx71gNhcI55mICXWhJesR9kJKtzAyk722++JrHFCiMgwI7cgtL5yUxV0I9iLT0GfOqo6oL+V7oQWa/akjYmwc3P6k+gv1Rbs+x+LU0ktugwQLGPlgFxI9FcmtxFYiL4zM39V+QXKFtRAtPIRlSa3RoIaVHNxIxN0Qb04pebJeUyP/9qR2VpIdiv5T5Rfli92PLPjCx8Btb9kSNhGitafXWGKNd2q0IAAi1J3bk8jebt+323cQMYFlVv3VqY/1LdTxIaAPKvIWd/yo3x2b1Dc9eqHRMT5wnxB9Jiz/17YTbT8Gyq1iLri1BMov+7ClS2tMpeS+ItKiXiss80zWq8mhIqAgMkFezBOxEk1EDMl0xX+xrSC4DW2CxyPhL+l9XomYs+lY85CIZBLbsKxtTY1exbwHa2P6AMHEWETQ7z5AmqVi6RAxHr4QHFYuwQjEHAIOIkZIH3uRGDGHeTkV+DgWf/xJRCNiaFuPegqSADAQSRMQ4GBEy655eLTxeYiIkYQsyjuK7V8tQbe3euPmxiIvTm90/pqihqSCxb6kBavHYhzA+sSrjJwkxYqI6bUJaVZiT3fCXb/Q4S9Swl0gWG2p25Mo38VLKVbUgV8mWH8zc5JQ/gXr78EWC0axwIsSqSX7MthC5eDEJ4zkcnf22aGEHgPYNxotqqo5YnKx7J3aRlJLkUfHziljtEgYetg+wOLFFlh34UEI2UXXJ+KqSj6cl4gYj0WqLYt0YUYKiMTQUt4a6+9edvH6XapWurQWwUquJbOAxldcOLrLqO2H349IPPIFZQFLf7Y/qZyHz9jlnBfFl0vM73NxMHUhhr/zIK40Ti6LQ8M+zvwcztZC/+bcnkR9RYcB/c2HsPuRJU74GLjt7dRsPRKvEifQvQLl8C9jUWQmpFZ0oTEtEInh2J5E9lbqMQSx5HMQMcWQyamUYJACb01y9Qu1As33AGMZ2cVJvlnbnxy6aeq1fwpmK7tg8S9I70C2C1ne4osh33nuxAzMF8lna92OhVN34JR0kmVQMkFU9MuP+GHDbKxp95AVTXM1Zo1yJomhxbyW0LG2GjkICSI9wiViZDJHVjLAta2jQU4EKmgdAa6TSXPbufQvkCLIqfMQEePATiOL/yeLaDFwOoOtb1+JSd1WY9+ndyH53gHItLYqyfWZttNHE/nrla9oa5I+IsbcJhZOfXLdfM0IxB4CLiLmwAHzMLvYU6V8SRyLdsiYMBg3NuqE+/uk4pRqDkrke9+XmGanLQ8QEVN0EFP/2x0JjQJHy9zVZT00W37V1v3fgxExORvR6bFOSLhvOCb5swpb9/sT+TpyvhRna5JfIumqCIfmjsEdXnl2pJLhXeom084asme1waU+H2q8vtCVBwN2Il/9nnxzcpuD1M/NZKS1W36BLY7jcMy2KLeEtg2nONa3cBcIVIl/e5J487tr2L34lUeOBVoQ+OytIf46sme3RfWAeQxE2fAn5+rCmlq0P4nEUIkj+RQRO4JC3EU41Ud39dVu/hb0+ZM4xtljUU2LF5f+tjT6C1owOOSQimbPQptLfR7JK/2JfOXtY7YtNHXqF1LFxd6Hv07NcSRvFccoz25b3Z0HKeyIGOprf8VUJTqsMHs22opEvDJx5MLRrZPqL+H3I7JLAD+hIsYn5eDQ5yVxFJW+kI1KGhFQmDEaf6mm4CS1E/YlbU8S272yrdxFuvxLJelHllDhY+C2t1O/g5j4xK+1fumPvHISKCRDwIgmJWm56WPuo7z9J2fJ40f4Mjl1MjpVYCKGcoaFk/yWxrKQxw86SaoGnp960J23zCU05QlyJ6p2FS3uDzQeRBMRkzYIM8SWFvuoa79yp1d1whQ5p4j/T9qrgm39jbrkhbwo6E3EeORKCZeIwRls+bcgk9Tkt1oxHT8SEaPT31EQVh4akex2iP8EJmcZ6VvRSiwTyXW1SYIpkW8tTOpmJXAxbg1zaxLlaNG2IcliX1o5YMTWo4NCPjN/jJGnR2xP2mqeViUTZnaeoGeTnac12XWqFwGImHM/YOPLIvGvP2+Nejd/ZwTKGwIuIqa8KRiL+sRqst6i9EV4wTjpqBfajtmiPTXJmdOFiJgeaDt+Bw4bpyyJ04bSMK1bP/Pkor/NxlbpDYxtTytyJaH5YAxcdQjWrfafPS+CETHIwYqevY2jq299eQpm605NUhP5FoOI2TVhDN4dvgYb9+eYpzKJyUjeUWyeONIgYhxEj0OZHKzq0gg1LvCh2m3/h0WHNTkwHOXFF1ocypNppVDWTLT5rXnsdMvey7SnJrkS+breavqP9jROgFFFowSuvmq47Y0p2EKnASmi+L/SwtG50DD/Hlgn+/SkRzqhx8PVPAgBIxTIiNzw1Xge4/eKUzAKkXswFSkf34/fXqDfguGXT1wFW0g5Sxt3dIzXLqzskjZO1+PNWfuQe64QuRmL8NHd0lHQjsUGLYx8aJC4FsfFqSr5OUhf8Tn+Xv/X1vGvHrY/OBFP/JpOKVIigmyBNBe0YHDIIZejk5+sE0Z0pyapiXzDXkiFj70Z+eVDjefHY684ksmIxEjBx/f/1jpG2e1rKhEia+m+tqIFfDXw/Pi95qlB1gks9//W2n5TQiIGtn+E2o/8UpL+7ogPfxlxRdt3fNVuwxtTtuAonf7kLOb4RgRAyETM+n54psMwLN92BD9aJ6gZ9lj/GVoIIsbeWuhoxviSs6oLGontTNVuw/8tOhxkEU3bkxLwbvf/4IpKPjhPZ6P6S9CPrCrCxiCE8YOiuGo88BnWHf8F5xwnj4kxSvZZGjO98p5Qot04PDXhiJ1Y3swRJpKiT0aGeVQZ1g9+CrWsMVAlcsOTifCVPl3PDulvxqU/OqnabW9gypaj9ol2akn7e9jjh+Tn4iS/Meuwzzot0OvUJNI77urH0HtZGOOlLWTsXVDkRvLlf8GqLWael/zsbdjW+2+YbB3TLC/MhYZFi3tiTvex2C2dsiQiY7JWdDWJGDnxrkzEtP4S39MpS/LpQbXvxcot0n6fsIkYOj0oHsnGqUzOyJ6AVrHypugigtT76GQm4wSh/kvw/YlApyadQdpH5rHSxklOulOTXNE1YRIxKDKjWQRZduerWLsq0z71SpWdvhsRKbXvxoqB/8NEOlGpaANW3FEb05N6YWF8baQM2UXFAUo6HH8lprw6FLsC5AIybyIipg7mfLkDJ8VpV+JAtOyt2Px/TcxTpO7tg/2Suf2NFeOKTk2q9Bvc030NThajCr6FEShNBFxETCxGYpQmQGVRd6wSMUAeNo8Ygt+L7TWN3P9vaD0Fy4/KR1ETEeMua9zffChG73QeLmrbo2g/xr4ujoZ23+vcyrQXg19wl3HcpyTZLTq4Bv97orO27oTGPfHK+L1wcEPFIGLMfDkecjUfhnHp6olNlua0cLbemIW26AlMWpg1FyJj/LPSxNu5F16b+FQ3mZaiNnRkjP8trrN+envr1IcWFfJCgzwgiE60PSnuIlxUySPSR1SVuw6Jt4rjeN3y1K5/G+pc6IMznJ3yMrjL++tQSA9aIGjaoHucevtPFaK/m5/iWPBp6CDyFCgESOaEJ8zjvNU24urhtvrixCtFJoIRfsLE2ZaqN9kigN4ywSA2TmSMx7O1/Lk/HPXHXY22Mw85F9CEk6KbEJUWuE5bhE/E5K5LxK3a/C21Uf+2OrjQsag1QQqPiMnFusRbjWO7HfoKu9Suj9vqXFjiiBghVXj9yDY27GOHVT9x+YefVHXpYdzr9ieykdOX/W27rsjeLlmEj9VG2znmqVGu++AnTAzZNP6i3kPbk+IuugiVNEdvU/mw+xERklodzL7i9NlijB85i/FmLUGSO/ue2AY684u/oJrssyRPABKrcE1Hg4yST5Dz8ou4hs/jhds0EXXhyGSAS+O1UweHTqodg+VzUsuTP6m/e44fQrDAfq7aDtLzzSE72UYZA8mvYvpTSryrJmQd36SJcSS0i4gxEq4qCVspUWyt27F0+Y8OSCgiRq3f/H41Zg1XIkzCJmLEOdRHsfU/JvGhbcdz25KfMFHvU/UGAufTUcufO7oAi28Xx3NrsKp1LWaPVPSmHC0ugsYBp/NL/jasthIn69pRo5PolCpR1n9iE51mJOS8AgtmOe1XsG2Qeey0Tg/XcdhExGh0Fvdf/TjW0nnaTk2K9a0o/XM0pv55QV102VCsavgmRqDUEHARMZwjptSwDrni2CVihIoFOLJ6Ht555VP8/m5BNCTilr/0x78GrcXun2QSRpTVEzE3PNgHzyYuwvqjhQExKzqZjuk9B6PpA07SpKREjGhU1D37s+Fo8XBXIzomoUkPNGs7DmN0iXSLQcQUndyPxcPH4MnHu+M6i0wKTe9SiogxkC5E9qYJaN/yJtQy8jT4UO3yBmjZYSp2ao7rpK0krsmqPYGOQ713FkIN2gl0ooxzEUeL/2IQMdLpST6vbUmWdxUeWobOra6xTkyKQ81bHkaHqTtx6rtktKqmEhLFWEjRAoEmA5pPp95CsBykjv4X/mgkMY1DzYavYMjqLBTRG3TXYsMs/6c6Vc0ImGqXo8mrQ/D1gTNYY0TguBfOlvpAfiYWJ7aCetqS065kiwALKc0ipDB7Eya0b+mvu9rlaNCyA6buPOXcGiSEIZxcukWOiBHJBg8t64xW1/zGjICJq4lbHjbl+S65lXNRawEUHhEjGKhDWNa5Fa75jUlCxdW8BQ8bfeg7MwmujBMtnG2d3eSSV/uh9yPb0kZekexNo/Cvu9UTwnT+Eeg0MXf5sImYwmzsnKmcVhbIPyQ1wouIEUnFpuG5Syzf1W5LosrD7EdkP02fpoW6sx8VY/wwXGoZOre4ElUr+eCrdj0e6jAD6afPWQSlf3wkGzi2/JFq9EkRVY7tSUq/sNuwfNZF1Ak3D00ms9liEDHixkAnnNl9xlIs7PGDAMlH5uJejlPzAj73Cg9hzYh30PKmWqY9ZNvLfZuqLwef546tw5rXmlg5Xmphwu+fwOIx3+DkGfNEI5VgwC+HsW9SF8xpVh/jaXH+u99jxgs9kLrX8RrLQEdLxFx5I6Y80R7rv8nSHItsbpERUTprnelm9Ml9yQbnjuE7VS6Sz5OIEXluDmP3oNcwvX6CgzRx6W208wuOrx7pOGFq3I13YFb7MUjPKiBJ/J95u7G5S2t/3YH0Lg4RI1r6ZR92DHobM2+/0Yw4IZ1FpIyS+4ZOc0qOT8CSpX55bYLGY9tQwb5lWPP2o5h8o0osqfleziEndTbW/K81pkvyBMTIj1Yxrs5gW7/GuMjop9XQfnkxquBbGIFSRMBBxPDx1aWIdJhVZ2RkhHlHLBYnIkafByYWNWKZGQFGgBFgBBgBRoARYARCQ4CIGD2xEVodXIoR8EKgaFtv/EEQMRwR4wUR/16GCDARU4bgc9NMxLAPMAKMACPACDACjAAjUFERYCKmolq+tPUuwI/frUD/x64wtnZecH0XrA8caF/aAnH9jIALAQcRI/66detWVyH+4fwjIKKTyv8/JmLKv41ZQ0aAEWAEGAFGgBFgBPQIMBGjx4V/LQECBfPQVto2WKlGK4xKZxamBIjyraWEgIuIKaV2uNowEagYuXqYiAnTLbg4I8AIMAKMACPACDAC5QYBJmLKjSmjRxGDiKmES65qiCe7TMP2IDkno0dwlqSiIcBETBRaPLaT9UYhoCwSI8AIMAKMACPACDACjAAjwAgwAowAIxAlCLiImIoRiREl6HuIwUSMBzD8MyPACDACjAAjwAgwAowAI8AIMAKMACMQ4wg4iBg+NSl6rMmEWPTYgiVhBBgBRoARYAQYAUaAEWAEGAFGgBFgBCKFABMxkUIywvVUjGS9EQaNq2MEGAFGgBFgBBgBRoCrDqZRAAAgAElEQVQRYAQYAUaAEWAEohwBBxEjZOVIjCi3GIvHCDACjAAjwAgwAowAI8AIMAKMACPACDACMYuAi4g5duxYzCpTngTPyMgoT+qwLowAI8AIMAKMACPACDACjAAjwAgwAowAIwDARcQwKmWPACfrLXsbsASMACPACDACjAAjwAgwAowAI8AIMAKMQGkg4CJidu3aVRrtcJ1hIMBETBhgcVFGgBFgBBgBRoARYAQYAUaAEWAEGAFGIIYQcBAxfGpSdFiOiZhSskPREczv2hc339MNLftuwolSaoarZQS8ECjMGI8X6lbFRTWbY8DWfK9iUf57DlZ1aYQaF1TD9W/PxQ9no1xcFo8RiEoECpEx/gXUrXoRajYfgJgdDqISWxaKEWAEGAFGgBGIfgSYiIlSG2VlZUWpZDEsVtYatH+oExIadULCYxOxgpmYkhlzbUfE+3xo0CsVsUopFAsAS2+fzwf7f4NeSA0BhMzkVqhm3Vcs3DKT0aqaD76XUpBbLOEjcdNadIwn3V9CStkJEglluA5GoAQIZCK5VTX/OGD17ZdC6hTyvQ3QK5QBRJF0bcd4+HzFu1epir9GCwKnUjA/Ph7J8XUxZ9x3AE5h8z/E93iMbz0OP0SLnBVYjp9T/iHZp/wBYeoXj+S6rbHBcEHVJ8ufzqwRI1BWCDARU1bIc7slQiBn0yK0f+VTPPzJt6FHtlSUiBharMtEgfa6hBP4aCJiCjeiR70Lgy9KtiTh5gt98DUbgn2FxXTBEhAxJY6IIdtGiohJn4E3WtyEWq/NDIPYiZaIGJkQImLIh2qXX4emr/bFvF2ncK6YJi6ft2Vj9Wd/xV11myKpGIv+WMIka9pzuMTnQ9xLKcjxdIJszGpzKXy+Gmi39OdiqieTKX4fDI2IKXlEjJ6I0fcLmzT2+RCafMWEhG8rGQI2EXMtFswUh2fkI6PXPUzElAzViN5dYYiYa/+FLYYLbsSKe2RyMKJwcmWMQIVGwEHECCQ4R0x0+MOJExyuEcgSWQvH4o5GnXB39zCImEAVlqe/0WJdS774FwslfpMaTUQMCrGxRz1cGCRCZ0vSzUaZR8YeQWR21FiLnhAjYkrsZmTbSBExRCpFqr4SKxhOBUEWnHFXo+3MQygKp8pyXZZIgxISsLGAUdY0PHeJD764l5DixcRkz0KbS33wJbyPNacjoxRFvJ0vooOJmMjYLapqyd+MlfeKRe9N+GqNkCwf+3vfaxAxE9svRnEpw6jSMcaFKe9ETMHm3pguorJuSsRuwwXJJ6/H4sWnYtx6LD4jEF0IuIiY6BKv4kqTmppacZUPQXMmYkIAyS5CC9YIbyOJKiIGKNzYA/VEtIsnKbIFSTeLqJlHMPZIZGgYgIkY283O+4UO+3zkZH6DkS/fiDhBRNZogxROYmNZpgIRMcjCtOcugc8Xh5dScrSRUdmz2uBSnw8J769BhHgYRAcRI3fEimRzWe8YvnYRMQU4PPRRk4hJNJiZGFaufIhe4YiYgr1Y+6hMDpYPO7IWjEA0IOAiYvLy8qJBrgotQ6wn683N+AaDPxiIu+5LNPKxXNvsUzydOB8rM88odj2G+R17IqHxFxj3fR52zZ2GV5/pjutEDpcmvfB83zXIkGbIRL4YOV5EGY//z4475GgnbXg/V9mgkTRFx7Fx+hS/PI26oMFzI5A0axdOqGv4nXPwsBWdk300FV9+MAB/vFvIJ+4ZjdGbcrTRF0Un0zH7s+Fo8XBXXGPo3APN2o7DmA3HUdxdMw7F7S+hEzGFh9ZgxDstcc1vLjDzHlS7HE1e7YtFe0+7FzMeRExO6udoVb0SfB4RCYXZmzDqX39CnaqVjDaqXd4ALTvMQPppdQ8BLSIEgZSD1Int8eCVVVFJbDmoeQue6bMKWXK4Q7DtSWmD0LiKD75HxsLBw+RnITWlH14TW3QsmeJqJqDpq0Ow2tGADah0oSMDpD8bl4R/mNFI+ZlY3Ks17qr7G1xgRDdVw+W/q4WqlXQ5YgqRm7ECX77/jLN8g5boMCMdDmgpCiZIxJSaw4YWmfIWh6C5agoPYc2Id9DyGkmHJq+i76K9TpkETpI//XxoGZJaN0CNCwRm1XB5k7cwLV31wQDYF25H/7uqGAvxV+Y4k9jkZ6Uipd9raHGThaUvDjUTmuLVIaud/mSZ0Yw6MEnMnNSJaN/yGvxGyBVXE7c80werXD6Sj6zUFPR7rQVuqmX6qyib0PRVDFmd5YzQsSKcBFmQMf2fqP/rSoi7+jF8uS0fORv6oKXw9xL1I+pDsu/prnUkbSGyN43Cv/5Ux/Q5YQedP1k4mf5hRtsUGva7w+rjXvYDUJiNTRPao6VtC6uNqTtxSh0OrHZC/Qi8PSkXS96sAZ8vAe87wmHC6EcaQaiPBIyI0fU/T/KYGhG2mID2LZ1j1JXGOB0owonsH6iM1YY63pDPfn0AZ7S2yEfm4l5ofVddsz/Y/ehrHFBvoEg+nZ6Ehy4qT/jHqH/hT3WsflTtcjRo2QEzXGOB0MHS1WijEIeWJaH1HZbviufYW9M0zxjCN4o+iw5h/V/jkXz1U1i/15SLcnZMlIkYImx+3x3pnuJTNI2IrrGua/0ey7/xvAEUDSHaMq9rYVL3ADeQHBQ94V21/i/ncpHR+wGMi6+FCS8k43CBXOwcfl7VCVPi4zHuzg+x86T8N3F9Dr98/zXWvtESk2+4wiCrkq+9HbP/NxEZxxwVmTcWZiEj+SPMbnwDxomIj1pXYdL9f8fXs9I8tuZq6r+qHibfXNczR8y5M99jZ782mGrL8wek/L0PdhzUyKOqE/C7mStI5Ak6cnAhljati+TaN2LWoI34OXcT1v7tToyPr41JbSYoGAI4+xO+n/L/kGLIHY/kq+ph6jP/w7dbXIAaEpw9lIw5IifRU6Nx2PiF8hRRlJZe0HM/rkfPP1XFBZc2Rs9vftIX4l8ZAUbAgYCLiOFIDAc+ZfIldomYIhxaOhkt7/MgSZoPxeidMhljETGN+qFdp0G42UWsJOK+nhtw1CI+zhsRcyodo9/uaZIjQWQyHMQiYm5vOxIvtTLJJwdJ1HwEpn2vsDfHN6LrM51dBFHpJBImIkC32PK7eM6GXmh6iUmOOBbbYsEe1xC9NuU5yRhp4Ux5agszkvG4IGF8tfFyintbiP/v7sVgXMNe2JQnz/hpEdEEL7SpZ0Y4OMiDONw/JB3+6Y1/e9I9A+XfTR3TBjVGFV8cnprg3JZEiyeXzqKt2u2w9CdZJj9e5lUAMsAuSvjLOgdZGOWsQsf6ca4koLaMrkWLrg1qT8GJFj4OLKms/7PEREzOBvRqeolBnNly223GoWGvTXCY25Ir4cm/4QHDh/yyGPe7bBEI+0KsfO8yA7+XHIlTyaeUui25ardbCtXcJhFTH3/r8DxujHPfF3f/EKT7nRCgRaetq3xPbbRb+pO/H1lln2r/Hm6T6k54syv+c4OI3rLurdEOchqT0PtRYH3t+n3q2FCIjOTHUV2QfiSD/amxnVgGW4moH3rnA/044rJfFua8VsciGdV2gvQPu28FuKDtSTVex8IflT6cuwRv1vDBd/3H+EZ+JFGEm62rLJfSjzRNEwZOn1MK6vqfjqCwbwtkCyFfIKzI/oHKCEJsC/re+WuPvqr6hhCsEFv63olfa/1Dk4OG+oROT8JDHdMKM5D8eHW9TLrnERExvofwzgdNcYlGNl3/tmGOtYtzJ7Hx7/FIvr49tnvuFsnFln9fYSVdPYdTU/+O5PjA20tOz/k3xlmJgs+dnIp58fEIuCUqdw4WXlGyRMLncjdi5QNXILnWdZibvMcmq8+dWoVld8Yj+Yp78NVKlTQoRPaC9zD1CjORsUhmLP93kFaCshFkxTM3O8r4y1+BaYkrFTLmHE5v7I0ZHvX7kyn7HcfWQ5HFaOe6F7B+j/yg8N8X2pVFxLT6H5Y8apFOop3r/42vE82ta6Y+lFvIqrXwIDa/7qG3FtfQpNGVOjnzb6hqjZ2//fscHNUV4t8YAUbAgYCDiOHjqx3YlOmXmCTEjn+LTk8IIqI7Wn+xCd+fEnEdRcjL3IRBb5jExs1vL0OmzUkQESOIm0Tc/tpUzN6Rg0IU4Ni6WXhaEDqNB2P0PvsG2yZEygSNbLHvsC6k6BV9Fp4i7JnwhUEKXfvkOEzflo3TovmC40idMcEimfqgxzrpLbtVp0GiNO6Nd2fuwYlCoOBYKga82hUJjbqi7QznKVi2/J1XY+/xM2bETMFP2LdmGbp9lIKVeuFUbUL8Tot03YTaqqJwC5IaiIV/HBp2XIKMnF+MxWJ+1nr/No97BjoXnNYEmhbshdnL8YFBHuhJGCAdw+79FXxx9fDPydtw4hdzcSQiFCa9aRItTgKFFhHmYqj2M6Ow9cQvOFeYi50jHzMXiUrSXXt7kior0jCocRX44p7CBEc4DJA55d94vEMy1u3Jxs/Wek3oPaCVWAR4b20wkQtEBujNo8/rIJfNwsw2vzXavvqFUdh89Gdz4Z6fg8zlibhTRPWoixasR8+HXkHfeak48qNpOxTmImP226gnFvi6BZBo0msRJIuju6aFlUsOKlyILUkNDPIsrmFHLMnIgWHu/CysH/myRWjcg4Eyg0GyiIlcXEN0XLIfueeA/KyleN/wKzWpagDsPaOjMjHl34+jQ/I67Mm2cEU+stYPsKK43DlFTHtZPtiyK+buOGHokp+ZgtevEWRJMwyRMz9nTsG/H++A5HV7kO13KKwf0MrwWUcCWcLR50Ptl1Nw6Ph8/KO6tfj//+x9CXhV1dX2RXpbiZ/VYCE4plZq0SDYKiIqoNiCEQeq1OlDrEAVpVg+fpUqFYIICAIyQ5kEwiRTEiaZpwAxQCDMBAJEiARI8CJhCNyQ93/2OXuds885+9whEwlsnofnTHtY691D9n7vWmvX/ghrfZmY1LwaPJ6HMWjXRQ5uuOOI2oTGU5BNOUueMRZNrvfAW+cdfLtD15fFqshJn4lOddg8YWs7gYhhxA3LNzklS2s/ZgE3pDk7WcjWfqR7/TgkZ5/W+wcK4MtYg/FdOmJUic9zJvekSHRcctokvwDkL++ESI8HtXt8DwsPU9xxxCEOiYih5tCuAfowT+ffNgD12RiOeBy9VmTCpw0kP/Jz92Hqq8z9KlB7htbm/g3dcVsVDyJfn4Y9NC78+TianoB+L/8Hi4Q/d5pY/g3oflsVeCJfx7Q9NG/6kX80HQn9XsZ/7BmMtpacLkfj3jaXZIxtgus9XtR551vsYPM+q5hZL87spM9pjjmedGXjh+WbjJSsfBSBWRMNQXN22pyN0OQQh3gRy+djVELYBSThQqwptGTnsbfHg+bJNtJM3JLh3v9gzyWgILkHvjVOY5JmgG59cy9Wrr0EnE/GygeDkCw8uPCM/6w1CBR5yYHfFv4QjwWM9CDCoug0dn7ICITbMGdwmqPsy8cS8F1tZtVyNxLiEnDoR/3noKKzx3Fo4Zf4brhoxXMRR//7vGYFM/XRD7Ft309gs2nRxVM4PKuzTubUehRrN5tESdHpZVh2Xw3ER9XBwjEpOHmGfSvCJV82DnwdK7GIuYCM3g/r8ny+BD9q6YGiM4ewb0xbzKxRA9PfnhP64RIOuMgqhTD6CXu6P6gTSzXrYOmiEzitEW2iBVMh8ma0wdQat2F2x0nIIIwunkLW/H9rJNPURwfggKm2o9ZwXiiLmHDQUmkVAjoCiohRPaHUEDiaNAH13ALontmO/n+LsxErRMTEoWnPdRY3JOACNg0ZJCUxmMAGkRFusN5gRMz5XRj0Shyim47BpH208SGICnFo7ninjkTENBqIHqtyLW5IxxZOwh8b9sSfh+6E6PSXNXcc6jKsvkg1LH6oltK/Bidi8ld2QRRbiLdNgCOkhn8PRja+3rngF4kYw4IjCm/NzpKbsvMTi1pMOOJYVMG/Dh//xn6akbnw1TapFjcknt6+sDY24LbNMXdL8r403eqWFABs/7qP8ZsgwX+LEyMmKBFDmxbHRkPb7YZ5fPVBvpF3IeFcNkEBYNE/kYy2zZORL38lukSxjZosRosfe0Y2xvV2bEkWya/dByc1135pe3L0QcFtT7aJ1TfyI9roMWIc1iqGgPYbsqBxbmr19vKiQd9NsBtWBG1LsRrq4yIpRjh6n8eUI6yD01iNRNuE49pc4qgj7HFEQtB4cupIKeiqB7VugQmaTPRWv9K4sLaFaRET9dZsZNlcU6QEBbkK1u9js4Sz1leSJ3JPiuy8QghySm5JtdHDag4ToKog44jnlOoZoFSjvcU+YUnvx4but6GKx0kmsWSOvmHJyx5Ca3MipiJfn42j4jzrKI+/IIuiyNcxO5QM1M9letK4t8wlPJ5XiwlwdkEaq7Y53tBV9jeIcHCZB930tLynMtxJGEZClh8RQ7FjTHcR/4H/IrHG7UgYvVuXnLsNTW0xGj8wOybtew0Y1iI89gd9NwID394CG1gRFBvEcDviddJ3lkQL7CrUacEsnAc/TiZ0xEzNRWkKDn73Ib+3uyuxMi/iyMgWiK9RC7P+s9pmySKp80IKVjPLGjqO2ZLEjxPxr2quUTPj1vO1SRHyE97B1Bq1MHvAZsd6RRoj5uwyLKtdA9M7L3bKQ9ZLdAqRpf5QH4iIuR2Jo3ehEOR2ZhJloluZViq1b/MROOwgW/hpXLUaYV1aqDKodAoBhUBpI2AhYljhldISo7RRUeUVA4Gfsa7fV4hu+BV6Jct8Q4lYGYDP1vh4+UTEiO/MqolseW7sfpDrC32lb6VuEXNgKV59oid+13GZtnCh+oxr1iq0b9YT0R2WIIteEhEjvuPfXOXM2YiPNDemONzfejwGzN6Cvce5ZQyVW2pX2ty5L0L1jZcX9ngaJILu1mNbZBIR0ycR4zQTctkCmEowN2pOVwdhYWtZqNPCV7ZxdNPJdE8SN4pubkm6dD7sS+onxDoQ5LGTBaY6/E5GBjgSWV4E2zzRpogsjSyZaUNj2bToKSi+jxGXxPJrrUvbSzdBlhrlDwHk0DJwssD79gLnopQloE24qEcAWWiDa8WE+oC1vah/ee/sgMRsya7Stw9J/cTYO2J+Z18L1l4ygHz7ktDvlUdxF8VaEttC7OOE46uz+THLXCfhJB97/YQF6Sm9inUYAgYaT0YiYfMu4uK8t7aFOb5D34hmYXor3fXEW70B3h48D6kHueWUKE5J7g33JMG1i0gEh1uSXlGxxhGXkdomdAyCzR/cks/hOqZXaO8bTqhCbPP8FMTV1V0hI2q3QLexq7GDLPGchTKbIqTE1dXdRSNqo0W3sVi944RhUejIQv1c1i9l457Si+PGcW8fq6Sry1znEKryv9DdiMjVqBB58a9qFhJTW47HUaYet2iZ/m4itFUXdyMiVyOKBRJ/e0ukaMfjcCsbgzDgrk3k/kTxa2rcjsTxWgZuZWNzhykutIU52NZJcKO553+x+bCkMJJDIIQkqYxXREBN+9+ZYKcx2/8RDiz+ynHtI8fBOLnKmkNGxBAJYro7WV2ltPdSIshatvsTJ2KM2EFExFD7EykmEG3GUegSWQz3KZPIc69bfVEIKATKCgEHEaOC9ZYV1OGVu2fPnvAyXPHURKqMwiSDobAKpQfNFUkXyiO+M/O4khhlaRETzGImZwO6tigFIoY5bVkC++ruWfe3/gYTr0Cw3mALeukGgy+gazd9Gvcw0/mY7tjgdlSszXVBunlkC23LQp0W1vYFN+sjtAl3LroN9yTDbYlcOZxuJ4APyd1jJPFnzI2nfcNp9lBBDovc1hT2p2JhTYXQBkUkMNgvnUZsHlNuK8ZOnLQiZZsgqivQ1UUOIwsv1xU7Wf4AslD/s5ZHfUDUWQ/22nmMJGAoE86w3BLziPfOvhasvQyd+Y0vuTtihHgv1naw9XEHDs6Nub1+wsJRrrhRlfbHQONJ1ILSibg4761tURwihnXcbKwc8ArqR/Lg4Fog7gboNKvkwXp1jUz3pM48yA5Z/9nlZ+mLPY44fNQ2pUfEOPuD2FL2viF+0++pLZ392pHWl44ZXf+M23nActa/Imq3xqA1bsF6rQHUtf4YURutB60pebBeGhdin3bc23UiXV3mOofClf/FpR1DMJdcjQp/xOY20ZjT7k3MJWJF24gLrioXdyC5GVlQ6G4r0xq3w8ImRKzwzb4RAPgisoY0MyxJLv84AwujG2Pxm01AZI9GSgQJABwO0oWZ45CokQS3Ye6QrQ5rFK0sChDMXa6ClU8kiWEJZM/ACQuTiOE4uBAnV5SIMWQiIsYkUhx6KiLG3tLqWSFQ4RBwEDEVTsJrUKDKGaw3D8t6fFmqFjHk1mM/BYl1iUAkTcAuE4xo2bsIzzcqB4sYQcjCsyewc9VyfPHPgbivEYuLMxC91pLVkJCw2Le0YXVfoKbG3aHFJCmWRUz/NOzhgT2dAXdNocPfpNDC2r7gZmUG0MnunkTxLtokcKsDUyaKhaHHJKH4C/x7MDJBSxZ4oyTUZNwG2zwdndEKN3g8eHjQLs2P3cjIbg5OQvNq9hgx+VjZJUoLasni6BgxZbSMhKFL2wcgPyz12h9oo2QjhIxkqXG4o4oH5WIRIyUdDEksN3rcCQ8scWt4Crd2cXtvKdh44KSfLdaS/lnSVxw4OtPY6w9/HJFw1Bdk44nSsCulc+kzYlLhvvhyMQaExSNZgnFdiAjwosGg7Q5LSKG6kG+t7kk0VmQY0DcPwh5HXJrwMXC2t1WxVMTdwU6gexu2w78YaDwgtUwXKoXaMlAaSsuvBT5kpExHH+PUsih0WKC7ydlSUgb4MlIwvY9JqEV1WGB1caV+LhursjmI0rvNL1JBSNfw+q20KOlLKt9JSoqkaOgknLSS8F7yjTYjGIp+SsDiOxph3UbmhqMTK7olyF1YMJXMSjjBwFyNin7C1nfuwOzBG7XYJhqxwl1ZTEICPGYM2+zr7jrTGg1GRkpvzNLIHu6qZJAD4YnvSO3/Aamv3ob42+phVj12fQKrN0giEZPLVIj16oRVDYRuEcMtgaQEEwU9FnGVWKM4lCvpCzs5FDoRI7ZnSaVQ+RUCCoHSRcBBxOzcubN0a1ClhY1A5SRigMzpo3Bvw554alA6HH86KZBv0/GYY5wuHcAipvAoZv9fH0Q3DGwt8+jnqcgLB+FgRIxvC3q+0BPRTcdhphlVmNdgBvK1xHwpjmuSVOZCZC+cjIfc4uxI84Tyki/2XczbWQm5SW3xa48HkR2XOOJgsBM19EC+Np98C1HhQ/oIPRhpVOwYbLMch6PLSLElpHVI1aCFr2wTEUgn0z3puSnHsFcL+iiPsWAEqzVcQ0gQP3Lnd8DNV8A1CURi2Ikj8RQRywaFcIpBnzSbE1/BNgx6hB3j7LI5oU2QQ3/CweUabKOUm4S2v2bBMSUn1rATV3ggX9F9zGgLi256/bTBtVoxBNvEOmXXSQ0PXp3tswRvZccoz+9wszMOUkhxOMR6qF++itk26zB/7nx0YIF4xc2oA0enTnYiJvxxRPIF6CeURLvSBt9lzFjSmg/URiXdiPozJ+FZFlhVxMmsJvw7ck9i7l65PHaRLP6SQUAVYxxxqcLHwNneVgWPYkarG6T90rS8ks2PVAq1eaA0lNZ59a35GLWr2olfZzrjjW8NPq7NAljb5xuup+Byp+Vxm9MonpJ0/jBqs92Qrva6bcmK/UjlVyAihluGMNej48s+xIxGg3EQulsNI1aytPgtpsWEEQOGuR5lLcOye/X4IFoQX0as7NiKdU0E1xYjBgxzPcrCzg/vxezBadzliZE9O3BoYBPEGzFkig0uO9aIH2N9G+b02YCftw3Rg8k+Hoe99gOTcBY7P6ytB8ydZJ6y5Fo7j98S/9u3kfajPRUF8q2l66Z95pZAZG0kZCk8moDvWBBf2zc6Yao0g98K1QIoBhFTsAVrHq8Bud7W0tWTQkAhcGUQsBAx6tSkK9MIslorY6yewoyleEM76ag/OkzeJj01yRrThYiYvugwbRd+1E5ZYqcN7cGcL4boJxe9OR/bz0sQ4pYr0c1GYXhyNnhWSULbq2BEDHxY02+gdnR13bdmYb7s1CR7IN9iEDF7p0/GR+M2YMshn34qE3NVOnsCW2dM1IgYC9FjUcGH5M8bIvI6DyLqfYilP0piYFjSswfaHAZYoOYkou0t+rHTsQNXSk9NcgTytRAxrB7TzccRXJd9pgCungjUe38WtgWMQcAy0MJXtokIrJPhnvRcT/R9JsKFEACI9NBO/zign7ChnfzR4ynccp2+4LZu/plc4r9gGykxrX5v31g7Uhg41UanpIPIL/IjP3MpPntMOAraQlbQZs2D+nEbkcdOVWG/aq8Zgb/H0JG0Lm1/dAZa3UCnFNksghyCCS8cBILwTbulk588iIodiJWyU5PsgXyJFLLoppdLG1xrW4SPvW75pZ8Oc4AdycRPhunx1C38GGVnXwvaXhbVuQWDJxKvTzugnxqUfxTpCT3w1C3c/UYkGBw4OnVy1G/0j1DHkSkg6e+0+DDTsDty3/FE1MP7s7bhBJ3+ZE1meaI2CpmISR2C1lpskWM4zU9Q09oj9Wv9hBvDtdBSjfbgS/4cDZk7U0Q9fLj0R7n7gpGN3JOi8VGff2mnA1lPZ6OEJRhHvIiwMaC5WewTJA6/khVX5NNfIyXvIoosJ4+xOcrZZ80iAs2hQqpZXdGRxegRTo7T5pB5HXF3VQ+swY7Z1DwLXTsOxrxU4WQw7cSrefpJYvYg6uDBdz1ReOvbTH4aWipGvVTTPL7cMu5N66SIeu9j1rYA8WcMNUhXl7nOSHcV3fAgsFObf4nkLvcagWV1YuVZrO3zd8QbMUWY3tya4/bmWDOkC2bQiTlaLJnbkTigDxbVuBNJkw4YIOkEw+1I+HIIlt5LJwtxsufZAVjz9xqY9tIkOPgNrbp8ZA59ATNuq4lpj3dGmuvxzeyo6AGYW6MGpj7RB/vYL2U6ND8AACAASURBVHkGMVMTM95NcJw2dJFZ5TAXptsaYPGo1Tj6U4BTk4wTmGpieovPsUN2apLNuobKn/pgB2zaeQaFl8/g2IqvMV8jYZxEDDTXMHasdBRmPN/HqMMAMuCNHycTu2DWXTUQf28rJH/vYJ6KR8SAn+RUg+H/Pr5POYLzlwIKUqKPdGqSp2oUWo7YClm0yBJVoDIrBK5CBBQRU0Eb9dSpUj2/uJy0PIutE0bjAeZe09D5//evzMLqE+JR1ETEONNq+Zv9F5N2Ww8XNRQpPIQpHdnR0M68VlemAxj1hjONJZ8tyG7h0Q34d6te0rKjG/XD29MOwMINFYOI0ePluMjVbCymZthPbOKa08aZ+8uHtukJTFroJfuROe1vqMnJB9HUmt1LA586iBgtyALitcC9/DheG09k/oor/1XRqg8trGUbjSA6kXuS95f4JTsNSmbpwxQXglTadY6KqYdbq3pg3fzTSSVy+fUybBsBIhgcMQ7MMqx6m6cKWWVix4LPQbcazl+os6a30o/zttfhrYN6MezEK5tMxkAyCRNrXXa9qS1Mme3p7RYM/sxp+FtNM/aHJb33TnRIzLZuoAkny4ZMF5Q2uNa2cJIWhlouN/kpcagrjd8ShZh6t6KqZFPrIEJcytZfC0FM7W0RFYN6t1a1WnoUh4jRQt0EjkNj7U+mwMZRyHbZHP3DJFUt7Wbkc/YnaiO3uk0p+B21t1Gm2LcCucOYhIkmm6S/2Osi9yTvL3+JKpKjtyl92OOI2k+qg66Ptc8WY/7wLUOnmowkF/Fh7nX9kTjmWUQ4+izNjdb0Yn57G1HbiWmMe28DDLIfJR5Qb5lbmWkFZ5Sr6eNFg9ffQL1fOee0oPGcHO1Oc5Szb1L7Xn1XCirLjnGui1XrL+kq8iC9WoBYCrTLldePsGZEQk2YpwQJ5dQwg79qWcSy6sZhH6/CLKcGKPivA18eHFgPYGt15RHTGlYmNlekovwtWNuE6XYPFsbbLF8MokYeiNYeD6bwaCKWMHcnI0itkC+qDhZNt5VPblL29Pe8gZRERho59TH0sOfhz3aZDAx47B6STZ6uGBYxGp+1BeuedtG7BsULMiQp0c35rX1Qj+Yp78MYzg/vKlGhKrNC4CpHQBExV3kDl796l3Bs/SJ0efsrPPAYIxricP+zQ/HuyI3Y97NIwjDJ5ETM7/88CH+LW4rUE/6A4hf+lIG5/Uah8dNW0qSkRAyrlJU9/+txaP5Mb806JvqJvniyw1RMlgXSLQYRU/jTISwbNxl/fbEP7uFkUmh6l5FFjIa0H7lp09E19g+oyQM2RtSqj9hus7H7TJGzLWREDEtlBET1ok6XJbAb7QQ6Uca6QaCFdTGIGJjuSR6Xo19JIX/2SvRqeTdu0kgoL6rf/wy6zd6NM4fjtaOiS7yRCrjh1DdLVr01EJE+6V38SQti6kX1Bm9j9PocFNIv6I5NiE9L/8it1bRYMZ6IWnii3WisPXIBG7rXCEDEACjIwrK4lrCftmTVm9rCfXNnJ2KYFv7cNEzvGmuWHVEL9WO7YfbuM1bXIJaYcHLoZgaCtcoUPhHD4mpkr+yFlnffpP8S762O+5/R5Tkc31KyqaWNs6wPUg+yXVkA2l4tcTc/Mclb/X48o42hw4hvGVEqRAyrMfRxJMrHxvg3ePexu3h/p/aUbV4DnSbmTE+beWdfFusX7v252J1oO60sUP8QsoZnEcOCis3BazdyXaVuSVR4mOMoICGh12fts9SfCHfZ1YmtNkc1vx3Vqnjg0U4pmoeM80XQMbf3zfCJGDYHrB3fBbF/qKnXoQVNjkZjPoc4Z/8CZK0djy7C3wqPtzqiG7fD6LUuwX1t40I7nWleBs7zedYjGfcIdMKZIz3NUU78qHWvvisdYV0D8QJJAu6exDb2UzV3JVNzOkHIQtywPwPJPfAtIwzsxxlTPBYLcWOeyMSOkNbclcwqzDtGlgSziPEfxdaO7KSk2zAnbp3tlD3TUib+9mexYRdngaiGogs4sXYMlsQ+iBm36eTStDoNMf/fM5B50paWkRI/78KWz1pj7n136YTMHXUwu/W/sXnLSeuPArz8onP7kNb1ab3sqNqY+/dB2HX0Ej+y20nEsGyFOVuQKtYhkDJygoXlKiuLGF2RonMZ2DH0fSQ++HtMFeRh/aNU48cUncb3nz/IDz+4G1+oY7F5T1IXhYA7AhYihiU7cMA0SXTPpr6UNQI5OTllXUUFKJ+IGHkcmAogoBJBIaAQUAgoBBQCCgGFgEJAIaAQCILA2ZTP8AdmFaMsYoIgpT4rBHQEHESMAubKI1BZg/WGj5wiYsLHTOVQCCgEFAIKAYWAQkAhoBBQCFQQBIoKcCpjKfr+mVngenB9o+HYaXNNryCSKjEUAhUKAQcRc+TIkQol4LUojCJirsVWVzorBBQCCgGFgEJAIaAQUAgoBCoRAnnf4mWKDePxoOodbTEnS7EwlagFlahXEAEHEVMZT+u5gviVSdWKiCkTWFWhCgGFgEJAIaAQUAgoBBQCCgGFQGkhoBExVXHz3Y/hf79aiL2nFAlTWtCqcq5+BCxEjDq+uuI0eGZmZsURRkmiEFAIKAQUAgoBhYBCQCGgEFAIKAQUAgoBhUCpIKCImFKBURWiEFAIKAQUAgoBhYBCQCGgEFAIKAQUAgoBhYBCIDgCFiKGJVeuScFBUykUAgoBhYBCQCGgEFAIKAQUAgoBhYBCQCGgEFAIFAcBBxFTnEJUntJHQBFipY+pKlEhoBBQCCgEFAIKAYWAQkAhoBBQCCgEFAJXGgFFxFzpFpDUf+0E65Uor14pBBQCCgGFgEJAIaAQUAgoBBQCCgGFgELgKkbAQcRs3779Kla3cqimiJjK0U5KSoWAQkAhoBBQCCgEFAIKAYWAQkAhoBBQCISLgIWIUacmhQtf2aVXrkllh60qWSGgEFAIKAQUAgoBhYBCQCGgEFAIKAQUAlcKAUXEXCnkg9Sbn58fJIX6rBBQCCgEFAIKAYWAQkAhoBBQCCgEFAIKAYVAZUPAQsQw4ZUlRmVrQiVvyAgUHsPi3oNx3+NfIHZwGk6FnFElVAiUDgL+zGl4465q+GX1Zhi2vaB0Ci33UnxI/rwhIq+LQO0PFuL45XIXQFWoEFAIVBAEro45rYKAqcSomAhcPIpxU+ej/vAF+MfanIopo5JKIaAQqJQIOIiYI0eOVEpFrjahVTuUQYvmbEDXFj0R3bAnol+YgTWKiSkZyBu7o4bHg/r901FZKYViAcD19ng8MP7X74/0EEDIim+JCJ6vWLhlxaNlhAeeNgm4cjZzG9G9BuneBglXTpBiNZ/KpBC42hHY2L2GOTeVZL4JAagSz2kh1KGSKATsCPg3r0XM0ATL/wcmb8F+e8JSeL58aDNe5nWVVR2lIKYqQiGgEKiECDiImEqow1UnsgrWG7xJfWlL0fXtr/DMl5tDt2y5VixiaLMuEgXS+/roHwp74NYcFYmI8W9B3zpV4fEE0WnbANxX1QPPk6Nx0O+mWJD3JSBiSvzrMbVtaRExGfPwfvM/oGb7xDCInYpiESMSQkQMeRBR6x40bjcYi/aeQVGQpry2Pudi/dev4tG7GmNAScZ9ZQHNGKdevDT9GOyGWzpZEWS+qEi6FuQgdVpXxP6hJqpV0ft7RK36iO02G7vPWHt6eRIxJZ7TJBjL5DdIb/FvWWnNgxIZrtpXl3/EmG+sBIZJaCTis62lpfllpK1bhTfGLkCvUMu8dA67Uzai/cQFeIgTHw+OXoQ3521FSl6hRbDyJGJQBhYxMvnNdhDaZ3gyVlg0v9YeTmPua/p8V+X2D7HG/sPP6bl4zePBja1m4IdrDRql71WBgIOIOXDgwFWhWGVWQhExwVsvZ8kUPNSwJx7rEwYRE7zYqyMFbdbFBav0voSbkIpExMCPLX3roGoQC51tA+7T0jw3xbkxK17jczIgRIuY4tUh5KK2La0NCG1WS6s8QdSyv5UTMcaGzXsnOiRmw7p8L3upKm4NWYhvGRGcrKy4CoQnGfVtNvc9PhwZl6zZKxMR48/+Dv+v3g2oIp3Hg1glVqh52toGbk+KiHFDphTelxsRU4jv5jJCITRyp+jUQQyZkmSxcBGJifqJ+9yVL9yDbkMTUJmsVRQR496c1i8mEePx3Iw2CcdtnxURYwVEPVU2BCxEjDo1qWI0nyJigreDImKCY2SmoA1rKbuRVLAFvn9LX9Rh1i6upMg2DLiPWc08hynH7L+Pm2iFd6eImPDwKs3UMuwL4Mv6HhPfuhdetmmNbIsEFcSGg35tEjExzf6CO6tGouOS0xYLqUpDxPj3YGTj6zVXI2+ddzA55SB8F3ULmAJfFrYl9MD7o7a7u4dWsHm6ODMAuT8Vy52zOBVec3mKsHv5kpBJk9DgCYOIKTqNuTMTNRKm7n9XYmRaNk5xV9+L+T5s3/I9/rkkgNNRJSRi7BiS+1NlIpPsOpTNMydibmiIvzxxM35Rtz+2itbMyiKmbGBXpZYbAoqIKTeow6uoMseIyc/8HqM+HY5Hm8Zp8Vh+9+RXeDluMdZlXbCBcBKLu/dDdKMxmPrDWexdOAftWvfBPSyGyxP98frgDcg8b2Yh8kWL8cLSuPz/29RsMxOAPeOGONIGtaQpzMOWubNMeRp+jvqvTcCApL04Zd/D716AZ7h1Tu6JdIz/dBj+9BiTj+WZhElpPodZPBOw8KcMzP96HJo/0xt3azr3xZMdpmLypjyIf2csyhTrIXQixp+9ARO6xOLum67TYwxE1MIT7QZj6YHzlk2MJobLAt+XPgItb64Cj4tFgj83Dd+8+whurVZFq0M3r5+HjPNW83qANo6MQPIhfUZX/Pn2atqvwt7q96P1oGTkiOYOwdyT9oxEo1954HluCiw8TEEO0hOGoD1z0eEyeatHo3G70VhvqUAGvowMsKcj/E33maAuVKyIgiws6/8KHr3rJlyn/RIegVq/5W4JDgsWP/Iz12D8J62t6evHotu8DFig5e1mWI6E+Cs7bYYs+Rxy2HT3Z2PDhC6IvVvQ4Yl2GLz0gFUmlk3oT+eyV2LAK/UReR3DLAK1nvgn5mTY+2AA7P07MfTRX8Hj8eLtBVZb5oKcdCQMaY/mhouHF9WjG6Pd6PXW/sRV0TfsOonpS5+BrrF34yYml7c67m89CMmOPlKAnPQEDGnfHH+oqfdXlja6cTuMXp9jtdDhFk5tEnzInPsOYm6oAu+dL2D8jgL4Ng1CLOvvJRpHNIbEvie7l5G0fuSmfYN3H7mVu8JEoJasP3Gc9P6hW9n5tfZ7iI9xt/YD4M9F2nTR3YbXMXs3bN42to4VwqPRn+ZgWJPr4X1pumXcy4mYMMYR9P7HyIETmwbh6VuugyeiHj5ZeQIXM+fi/T9F4jpPBB4ftBVn7VMb0/ubd/HIrbx/RNRC/dhumOfo40DOnNdwIxujtT/CWp+9oHBwCBTLK4w+q1UZzpzG+2CbBPgy5+KdmBu0Pv3C+B0o8G3CoNjbUa2KF3d2SES2OJ8LqtHc40rE5Cah7a/ZmHwJ0y2TOxWSgbFNGJn1OIYbplFch4cHYde5bKwc8Aoe4u3hrd4AnebY5k0qCgXIWhaHljSnuY1tI31luJETMUQOPJwUgAQhCxvNhYbIF8G1xhbHRbNyGbYU3wh+JBe2JaMRSzdiNebZXJBCQi9EIubssUOYtYS5S81HfU2uRDw2djk+XXsYuY6KZLok4vVVsmC9HD+GwcWjmDpjIeoPTUTzWduxv+g0Vi1cikbDE/DHceuxwueoSHtBWLsSMYUH0HsUw/U7jMqUlZGPhFmMzFqAvjtoIHEdhi3D5Gw/MlM3ov0ErvvwBXh9/h4cdllsns3aiZ5TyEUsEE66LBdPZmLy3GV4ehQn1EYswF9npGDR0YsyYcN4x4mYG1th3Kzu+F2V2/Gh6J/kQsQUFeRh58Kv8c9n6iGKxdXzeFD1pmg0em0gVv9oVfr03NfgubEVZhzKxnddH0CEpypqPDMS286cQdrol3BPhAdVb30dMw9Z8wFFOP/DKnz18n2I9LI6quKm6EZ4beBq2Kqw6us/grnt7oC36q14feahUl7vW6tSTxUfAUXEVPw2qkQSFiJ7xbeIbepCkjT7LybtFskYTsQ0HILOPUfiPgexEoem/TbhBCc+yo2IOZOBSR/008mRIDJpjcOJmD92mIg2LXXyyUISNZuAOT/Y2Ju8LejdupeDICqbQMK0aJZttszu5dvUH41v1MkRy2abbQK8DdA/7ayVjDE2OuYC358ZjxcZCeOJwlsJTrcQ87tzM+ht0B9plh0LbSKfwBtt6+gWDhbSwIunRmfA9Dgw3ZMeHy6+13XcM7IRfuVxxougRb5DZ1ZXVGes+DnQ5odj62qFw+om/EWdg7iF+ZLRPcark2EWnXkZDgJEVgfVZ8OpvIgY3yb0b3yjizuFFw36p1k3qFyu6L++iae1PkTy86ujLQJh78e6j3+j4dfGEk2Y+pStbI5xVOcVsDe3vmGPwZvdXse92mLLmtf71Gir2wu5j8nazROFzit+NscRT/tS149RTyg7ulNv/Ov3zHqL1xXZGSvOmWM19HEUWF+jfI99bvAjM/5F3MxjkZjpmDyStgNA46hFl0/l84ij/XKwoP2tnGS0YhoSUWnCIb8T5qf9WpBscRPOeD8W0NY+DsMYR3xcx3T8CC/fIsybz/VE32eYCxjp9CRGiwGp/JmIf/Fm+bhwzLPUfs55S6605K2Ag2s88XD6rFaFDCc7liQL1+Glrvi4njCnRXdC73/9XnMV1bGKRGexk1N2oW+5EjHIx8ouUagimd+1YjgJbyXjuA4xb+K9v8jaQ/Y3zIfk7jGSv0WsrWXpBSUq9K2ciEHBLvy/oQmoN2sXTrvJX7gX3YeTW5CMvJCQMhYi5iK+m6tv3l9cdtStlsDvQyFiiDCSEUNDE/D0ooPCWoJVJ9MlCBEzbA0+T1wguFctxhffrdVJJl5vk0UHpboEJWJwGWnfLdbKluFU5NuB95l71sRN2GHUQETMEnw8dyknn6zt0Sxxn42EKsLxzWvRxAUnZ3rg8o/p+McIa7nkVuZKLBkyBrsxiZgZ+7ei7wMe3NwmAYaDkgsRo5ErxhxMc7F+rVKzHeYbBQBa2hueQtcPmgpjuwba9/03HhDKiGy3EHmGuEU4s7kvHhL+bptzfhVUf3k6HLwNz3txz9doyMutem8/hBpCyaha3VxVCFiIGKbZzp07ryoFK6sy+fnWX3ErhR55m9GzFSMi+uCVMWn44QxjjwtxNisNI9/XiY37PliJLIOTICKGETdx+GP72Zi/ywc/LuFkShJeZoROo1GYdNDIYMBApExQyxYjB78RrFfkhyYVYv/0MRop9Lu/TsXcHbk4z6q/lIf0edM5yTQIfVOE9uFlaiRKo4H4KHE/TvmBSyfTMaxdb0Q37I0O86y/ohjy91qPA3kXdIuZSz/j4IaV+OKzBKyTC2fXJsRnWjTbN1tCdv82DKjPFsleNOi+HJm+i9pmsSAn1XTzsMdZsC3w/bmr8alGHrgtSPmvkt46eOfbHThF5vU56ZjZSSdarAQKbUL0P55Rrb/B9lMXUeTPx+6JL+ibRFvQXcM9yS4r9mBko19JfzHNmvUeXuwWj5T9uTjHORem97CWbHHuBbNWcKdiOLYBiRgBZ83wQ7YBFNPkILHtLVrdd77xDbaeOKfXX+BD1uo4PMysehxETCr6tXgbgxel49hpve3gz0fm/A9Qhy0U3OTjbegsT5RHck8bN4cclNaPbQPqa4sab4PuWJ7pg9bcLODoxLc4oWHdGJNFjLaY8TZA9+WHkF8EFOSswCdav7Jv1AJg72odlYVZ772IbvEp2J/LcUUBclKHcSuuNkiwWR3oG3beB2N7Y+GuU5ouBVkJ6Hg3I0tsG+2sWXjvxW6IT9mPXLNDIXVYS63PepllAHUowtHjQdRbCcjOW4x/3MwXjZoFRCYmNa8Gj+dhDNpFvyyGO46oTWg8uW2YKR2AjLFocr0HzBXm2x26vmA4pc9EpzpsnrC1nbBZZu2nu9Bkae3HLOCGNGfEhK39SPf6cUjOPq33DxTAl7EG47t0xKiSHu8uzk85iWh7SxXU7vE96KcAORETzjiiedUDjUT+eQe3wmLE9fOYeOgs1mpkoNUqK2NsE1zv8aLOO99iB5vPGOzMKm9mJ32sinOXfx0+/g3rDyVwpxRxEJrYchtOn7Vk1B/kWFJC6neM2H4LCdl5WPyPmzlRVRsfrfUhc1JzVPN48PCgXaBeTrnZlUg+dyIGMOZ+u8Ujs4rVSHi7e5rZfszqrt77s/T2EP++2ObN/JVdEFXFg6jYgVh5KF9vOzbPrumPWEYeR3bEktM0uEUNQrynMSFs/szNHZ8XHKRpiGUHTOZCxFw+jIFjiWRxKYCTIPXn7XUhMoLEiLl8FCMnsk38YgzLcKkj2OsQiZhvZq3AVxsO48Bp6mUFyEpPwSvDmTVOMlbYDR6EevWYLkGIGI28WIjP0s7gePIKg5B54bvDyM/chBcZURKfBhkVE5yIAS5np6ENK2N8KrYJsjHLjLwNqzTXsnZrTarATiY9Mmk9FmWdxyX44du7SdfbQooBRad34IPhCaj731WYsOMUdKN0P3yH9qLPZLvFDRPC7DuvLTuM42e5Nc6FM9i+ZTO6zdtWwpOsBCLmh4vYO6IpvNWexgQKZ+pCxPw8/wP8petErM3IxVmtXYtQkLcN41+qCY/nRrSaYZpkGaRNlep4efpBnFrVFXdpY7AKbuu8BLknZqK1x4Mqv/0CWwj3cxvR/XceVLmpMeKWH+R1XMaZw+sxQqtDEs+G8iqLGEJCXQE4iBiFSsVAID09vWIIEoYUR5MmoJ5bAN0z29H/b3E2YoWImDg07bnO4oYEXMCmIYOkJAYTySAywg3WG4yIOb8Lg16JQ3TTMZi0j/5YEwiFODR3vFNHImIaDUSPVbkWN6RjCyfhjw174s9Dd+IsFcMWlnPHoS7D6otUw+JH+FzKt7TgdCdiaIEZ2TYBjpAaRowC2wZOXOAbFhxReGt2Fi7I1qL8xKIWE45Y3TOYtrThsBAr5gJe26SSta2Y3mYpAGMDbtscS38RDQyzf93H+E2Q4L+GtYttwR6o5MCbFm3XoR9RLW7IqEBaqLsSIJSQrgf5Rt6l7cuKiMlfiS5RbGMii9Hix56RjXG9HVuSxWEVABzkG7UnRx8UzHhlRIy+kR/RRo8R47BWIVgcV7KgsfVxgzjzokHfTbDvsYK2pVgP9XGxr1B7ep/HlCOsg9NYjUTbhOPaXOKoI+xxRELQeHLqSCnoqge1boEJmkz0Vr/SuLC2hblZjnprNrJsEwBtpC3WSeQqWL+PzRLOWl+xn8T5iYJ5CxtlB64BK5KNI2qr2vhkAzuhi/A1g+c69eZxqlpMgBNa6oPC3EX9wz7PBZTV9tGCg+1bsEdZn5XkCYwl4eLF81P0uV9P74Hx9yaIjIRjICIGIPcjAT9NVo557R74nlg47T21XxRax++zuUpy4t5CsuYiqe2v4Yn+CGslfnP6HGUjGyVYBXxF7V1RiJiiPEydmoAY4+SeIhxZs9xCmhCB0HKJubHVdSSLkiBEDCdRYoatxLdO/6CAcBkfQyFijMT2m4tYMDsBMTZCwp4qVCLmT7N2aRYmFIy37uhkrGC/2wWRkXAMbEFiuh8N2CVISO00Yg0WCb8RikRMszk7bW5Il7Fp8SKNvHk3mfylzPb9eq+44NLruszJJKtVj1nOayt/tJFxgozFvhWJGKDoJ/ZjxS9Qt/9WfS3gQsS4VXd+cy/c5/Hgtp6pRhIiYqo9NQZ7/cCFrX11SxjmrsS69QXdEsdzW09QrjNL38PNnt/gvaVOW7GiPJ24sVrQGNWpG4WABQEHEXP2rLhdtKRVD+WEQOUM1vsz1vX7CtENv0Kv5J8lSBGxMgCfraFJn4gY8Z2ZlciW58budwQipG+lbhFzYClefaInftdxmfwovKxVaN+sJ6I7LEEWiUpEjPiOf3OVM2cjPtLcmOJwf+vxGDB7C/Ye55YxVG6pXWnB6bIZB6BvvKy/3IrV678oemDZSNHiuU8ixmmm9gFIGOFXTecvfPRLn91ygxbwso2jm06me5K4UXRzS9J19GFfUj+88uhdeuwP2yI48OKfyyFurkXgJPeBNy1A/vJOiLSTFFQOLdQlRAzF9zHiklj0cGl73oalbhHDyQLv2wvkx2LTJlzUI4As8o0Y9QGh/wg6e+/sgERZ0AnfPiT1E2PviPmdfS1Ye1HTiFffviT0e+VR3EWxlgS5LNZJ1J6vzuZWMlyn6E+wgcfHstdPWIQ+jkiyQOOJ0rArpRNxcd7bxwXJZZkjxGId91mY3kp3CWExOd4ePA+pB7nllCNtMV7Q/NSfu05yKx+yurPjSjWEPo54W8X0QZrm80O4mdYrDkyovcX+4LgX+iClLwciJuQ+S0AJVzcs9SSEy6uYzU3B9PTR+MTs5KjhNucJfzvsfU4QQbslvKmNtZd8LrK80z7Q/CGfGx0yGiSpcyyIYzH0/m+X/ko+m1YN1uOrC7EsIRExw1ZDD7WVj7kzdRcUco+5vCcFfxmaCHMzT3pUPCKm6NQRfLtwBVqNlpzOVCpETCI+3aITGETEGARVqRAxwIXNazUXoyYLMg3S4/Lxrfj70ASI7/RWCNwGDhml7lhOlyP7CVaXD23RrWuGJuLxyeswflMWDpNlDHWHYl+tRAxwDhu7/w6em9tAO0DJjYgpOof9Swbh749H8/gt1nHrJGJuQMv4w5qURMTU+NdKff3iIGIuYGvfBwT3U2vZNB+oI7WL3ejXVEYHEVMZLTGutharnEQMkSqjMMlgKKwtowfNFUkXyiO+M/O4khhlaRETzGImZwO6tigFIob9QGIJ7Ku7Z93f+htMvALBegMvpM1fuy2LTL7Rqd30hEvtdAAAIABJREFUadzD3F9iumOD4XNhtiPd0SKZ/khJrxZCgxbwwsaECjMWxc5FtGGibljXkCuH0+0ECOTzr/9xDbz454t5i9yGkNKbYmFNJdHGTCQwmEGREZtHviDwuJmzByA/qErp1UUOI619E2x84Dey/AFkob5jbQvaSIk668FeO49ZiyM2qwytZsNyS8wj3jv7WrD2sqvmS+6OGKnfOK9H7CsOHJz9yV4/YSEdP7SpF+swBAw0noxE5UjEsI6rB0mtH8mDgzO3JhYodVZpBuulGFY5mPPajfBwywg7rgyB8MaRva0IX3NOorYy5k1qb2on6VXogxSE1mOSGGJLhXQfbCwCCKvPSiqVYWkmc+LiSB9ERsLROv7NGoy7nDl47UbxuHJOzEuD+NL8YbaXUY5hCSf++EDpxfnCeW+0tVhYhb93I2KKkLFyqWEtorutLEbnb5cYsUj0zXwSejmMuAOTAAYkFIR22BKM0/fBxqeQb4KQHKycorw96DbGSSpQLJPSsYgxrX90XARXpiAyhmYRw9wYMxA3KgF1x2xAMne5ObR6mUsQ38BtQESMSaxQ+gA4DU2Amd5soYKju/DltMV4yIgtk4jHp6wv1WC95E10cc8QPOqphqeZf5KMiCk6g819HxLivTjHqZOIMd2ViIgx0igixmxodVfqCFiIGHV8danjW+wCKx8hlodlPb4sVYsYcuuxn4LEQA1E0gQEPRjRsncRnm9UDhYxgpCFZ09g56rl+OKfA3FfIxYXZyB6rSWrISFhsW9pASlfcLJiU+Pu0GKS2E+YoSoDWsT0T8MeHtjTGXCXSnAhc8zPkjtawAsbEyNVAJ3s7kkU70KMzUHl8G8sGHH35ZnGsbDa5yCbA70ILod040uVWK+OTYj1M47OaIUb3OIlHJyE5tXsMWIoUKUHLI6OEVNGK5cwdGn7AOSHTSzrI20obYSQkSg1DndU8aBcLGLCwF6Pz8Fieghxa7jQbu3i9t7Q1XJD7hHWWEt6EklfceDoTGOvnzal4W/4qC/IxpOoBKVz6TNiUuG++HIxBiQfR9OXYFyXP+N27eQyLxoMCnAks1Cv661k/OoumHqskA2OYL3hjiN7Wzlxc2DiaG9X6fkH7lbjscc3CZZP+C7BQfjKAgLxE4VC7LPWzNqTvY9akzhxcaQPIiPhGJSIMYL28j7O/xZEdlzicCs03QBl/ZzcxMSxYm9vq5al8kT9Q0rQ0WZSJm9Ja7+M7cu+kx5fTYQCs5Rh1hgPjtmIDRnfI1Y7vYe7skitSWhTb5ITUinJrWZoIqzxTaSp5S+DkBwQAt3+acr3SD7G4qTQPy6nVAdKAxAOAU9NGmrq6kgfRMaQiRhDlyR8trUQKDqJSfEJeGDaNhwxxeV3gdvgfOoarc1NnULDwlGN8OLimZPY9P1mdJtMpzMtw2S715qQPvit3SKG/YqZjfgXvfpR1qfm4jWPB6L1SWF2PF5kP4b8Mgb/t2A/fEKUcgfJAh6sV4gb40jjSsTcBsHDKbgqKoVCQIKAImIkoFSEV4wUq2z/MqePwr0Ne+KpQek4YxeeAvk2HY85xunSASxiCo9i9v/1QXTDwNYyj36eKkQxt1cqeQ5GxPi2oOcLPRHddBxmmlGFeUFmIF9LzJfiuCZJRGP+vNkLJ+Mhtzg70jyhvOQLSDerCAC5SW3xa48H0gWrEcjX5ntvWTz7kD5CD0YaFTsG2yynH+kyUmwJaR1SNWgBLy6GKWEgnUz3pOemHMNeLTimy0aG6+AxXEOofD9y53fAzQHM5fWU4S/OHZsQqpKuRGLYiSPxtBULAUI4xaCP7iNBJQEF2zDoEXaMs8vi3VV/swjpHW0YLHIIKemXfCEmh/nVDOQruo8ZwXolZco3YsXF3oNXZ9sCMPtzMb8DCyDq7GtB28tUTIjx4rRg8OfORwcWiFckjhw4OnWy1x/+OCIBA/QTSqJdaRPqMmYsac0HaqPwCSKzDHbnz5yEZ9lxoyJO1iShPVnmJ56Fb8xZwOTFn9qDZgfARzqO7G1F+c2x5sCEYq5Ix4VMLXMuC0Ryy3Ia72Q4GB/ZDddDYnUj7bOWvPqDvY9akzhxcaQPIiPhGJyIMYP2srTntvRFnaq10cMaHIaLR3qb7WXI7VuGTjWrwOMVrSgpTpAzULWRr6Q3NB+UOxFDLkfOgLk6QcBcj05h7fz50OKD8CC+Ly47gt3LlwgxZEQATBKA3HXEr+Z9EXSLjgTUHZvseryzmV5yF4TkMGOlmK5DRimXTmHajNKKEVMeRIwZtPfhxH0o0AL4JuHDTcKxeoZyZhtYXc6YidBpzJ3Jgu9yQkfLYxJyxSbFjLovYfuyJTaix/gYxo2EiEERflr8D9xcJRo9l37rIGKISLmhZTysRlaXkbf8Ay0Qr2HtUiwipgh5M1vD4xFi1YShkUqqEBARsBAx7EPls8QQ1VH3VxKBwoyleEM76ag/OkzeJj01yRrThYiYvugwbRd+1E5ZYqcN7cGcL4boJxe9OR/beawEi27cciW62SgMT84Gz2pJIn0IRsTAhzX9BmpHV9d9axbmy05NsgfyLQYRs3f6ZHw0bgO2HPLppzIxkv/sCWydMVEjYixEj0URH5I/b4jI6zyIqPchlv7oDKhmSa49BFhwUmJ+qgg7gjN24ErpqUlGYEXK41g8m24+juC6LA8FcOUnVGyj04CoPMeVFvDOzbG5eZAsotlmTluAe+Cho2TdNj6c9PBEvo5pB9gpGH7kH01HQo+ncMt1+i+QgRf/9s2YQwnHC8cmxJ7CwKk2OiUdRH6RH/mZS/HZY8JR0Bay4ihmtLpB81euH7cReex4ogIfMtaMwN9jbuDH5MpxwtEZaHWDfjy5wyLILpf4TBsGixxiAjr5iZ8wIjs1yR7Il/cnWbwa+UYsfOx1yy8PIl+fhgPsSCbNEiMBPZ66hR+j7OxrQdtLVBupiLuDHWUcidenHdBPDco/ivSEHnjqFu5+IxIMDhydOjnqN/qHftJL8HFkCkj6Oy2nzDTsjoJ3eyLq4f1Z23CCTn+yJrM8URuFTMSkDkHrbmOxescxnOYnqGntkfo1mjMixnAttFSjPfiSP0dD5s4UUQ8fLv3RGfybpXLMT3o5OXNew43el9D2jUgb8RbuOLK3Fc1X5lhzYmJa3UTUex+ztp0wTmpzasnfZE1HK36cu57HxKvAl4E147ug46gA1kMuOJj1hdlnzYzGnaOPGl/YjRMXR/ogMhKOgediqpRbEUV2wEcdb0UVWdBzLSlvP88TGLiFMLXOtbU/2QAxLq9hUXfnCxi40mZBSdVX9GthBsbM24IVB/P1E3EuncOu5NXaccWmu4ugBD/C+tnFmxA3agH67mBrDj1A6wMTUzB4dgIemLQFe4Qs+i13axqaAKcVijVx0em9+A93G/rjWHZaz3Gc4lYMzMIiNXkj2i/Zb80kPoVAxGixboYmoPG8XTjKyr50Dof2pKPnRB4vptJYxGh+VnoQ5WHL8XnSEsFNSQSF3ZtETPtV2caJRhfPZCMpYbEWa+aBianYKpwWdVmzdmIBmheh88rMEGK9FGL54hX4am0mduaZlkYXz5zAmoU6EeOMH8Tl9B/BvHfuQYSnKmq0GILNzri3jCbB3Nc88FDgXFLx4h4MebQKbm/7JmJtFjEFOwbgT4zMvPF5TNhzFn5cxtnj6VjQ6zncwd2GS0bEMKMcbnVTtQae7r0M+0WzG5LR7UqnJlX5HzzwXoLrMddu2dX7qwsBBxFz8uTJq0vDSqpNZmZmJZT8LLZOGI0HmHtNQ+f/378yC6tPiEdRExHjTKvlb/ZfTNptOebAxKTwEKZ0ZEdDO/NaXZkOYNQbzjSWfLYgu4VHN+DfrXpJy45u1A9vTzvAj/Tj4hSDiNHj5bjI1Wwspma4WETRxpn/YhbapocWnOYGwQSS7vzInPY31OTkgz3+hDTwqWzxLFhtyMiYYLEIrPrQAt65OQ5GxBinJ3l/iV9WcbH0YarnpyCuLjuOl8y+zWtUTD3cWtU8AYWQ0jcRZjpnXhvOHCdnOrMMq97mqULWPOxY8DnoVsPumgRkTW+lH+dt18NbB/Virne3iIFJmFjrsutNbWHKbE9vt2DwZ07D32qasT8s6b13okNitnUDTThJyB35Rsy+EaYWcr/mp8ShrjR+SxRi6t2KqiW2iMlHSlxduW96VAzq3VrVaulRHCImhJge1v5k4uHfNgD1pfrb+mzQ2En29MVwPaT2tvdZ7TkKHRbop0aZ0tOdSZhofUrSX7SUsvmJfTCILNaXrXNLeOPI3v9ojJjYUL+1tEewOEUSfXzJPfHgDYzgk48/K0FB8708rROzMPsswzBg2+n1mjo7cSlbIoadvs6OCNflYFaR4qqDepH5N0SOk9QCSfj7Jm0LkWQ1K6pYd5y0MGKjGDE99GOXHcJy6xctvXDEsx6kV48lUm/WLsj20Jezt+Lv7Ghoow5+LyE9CjK34H9HSNLyvNa4JEQwuKc3T3piGhXhVNo6jWxyyDJ0IZ6fMN+Ig2Po74qTWacpkzPGTtm5Jun65G1crREpTB8jILAhPN0EwWn4Mkw8bP8x7xK2L19qlO3Ay9F2geuoO3Y9VltOciLZAIMw0caqm5uPCxHDLMjjXzT+1oquSbiwDQMekq3rquCmeg/gd9JTk8KJEcN08OPI3Dao6TInezxu+gD4OQltjb/DkWi3UDxy3MRH3V0bCDiImGtD7YqtZeUM1kuYXsKx9YvQ5e2v8MBjjGiIw/3PDsW7Izdi38/25ZCciPn9nwfhb3FLkXpCoOmpeOFa+FMG5vYbhcZPW0mTkhIxrApW9vyvx6H5M70165joJ/riyQ5TMVkWSLcYREzhT4ewbNxk/PXFPriHk0mh6V1GFjEarn7kpk1H19g/oKYWp8GDiFr1EdttNnaLPwtSG7htdIyNhhd1uiyB3Wgn0Okc5uKdVUILeOtmSa+eNhvmpofE0q+mST+zTui45DRkJ2qztP7slejV8m5+YpIX1e9/Bt1m78aZw/HaMdLWTQ7bgzCXBvniXX9vkymsTQtp4UP6pHfxJy2IqRfVG7yN0etzUEhuBI7Nmp7+kVur6RYwEbXwRLvRWHvkAvRYGDaZqBp2LcjCsriWsJ+2ZNWb2iKA3pJNiD83DdO7xpplR9RC/dhumL2bHfdr+0c4OXQzN/lWmewbYVt50kc/slf2Qsu7b9ItYLzVcf8zujyH41siwrYxZ0U4No3ScoWXLABtr5a4m5+Y5K1+P57RxtBhxLeMKBUihtUW+jgSZAMb49/g3cfsJ4TJ+keg08Sc6aWkg1i1/d6fi92JttPKAvUPIX9JLGLYAnpL3zqoqo1h+9wSzjiy9z8aIyY2rpgEOrlL0v+Z6tpY6t4aj97F+67Hi+rRjdFu8CLstczPNDcGGKv2OsLps0wYGqsB5kFzLnfi4hhTbn9LeJsTjtbxL3QI+y0F7ZUG6aXEMpw4pqNdgn2zrP5sbJjQBbF/qIlqVWwYS+ZAqq3iXAuwL2Uj2k9cwAOrJqHpN6sxYbdPiJsiSGvEcEkAc4W5RJ8EgsZ6nDEl0K9ns3ai55SFaCQSMo7NPM9z/hjmL1mFN8by+CJDE/DwmCV4Z9EOpOeJhEHgzb9GHhhHbpM8fmSmJuMNOjFp+Hy8MCMFi44W6O5VdpkqNBFjBu2N0WL1kI72qxynB0cvwpvztiLFgqmY14/MrZvRzd5ujBSz4wTg4sksx2lUWrst3o39QnwWsQbtviQWMYxe046y1seghYhhw/THtfjq5fv4iUlVcdM9z+KjmVuRx2PKlNQiRtfFj5zNk/HxM/UQxaw4LfNhACLGQuKYBJADH/XimkDAQcTs3bv3mlC8IitZuYmYcJAlIkYeByacklRahYBCQCGgEFAIKAQUAmR5WbvH93CxqWVsEroz60K3+FkKRoVABUagIHOzdmT0Q3N2S62RdNGJiDFj11Rgla4p0YryZqK1Rtwoi5hrquElylqIGHVqkgShK/BKETFXAHRVpUJAIaAQUAgoBBQClRcBFhtr6Wd47MYq8ER1wILjditcUTVFxIhoqPtKgsClcziYvhn/YDF1hgc7kUgRMRWvVVm8mq2Y0f5eza2qSs12mH+84kmpJCo/BBQRU35Yh1VTTk5OWOkrZ2JlEVM5201JrRBQCCgEFAIKgQqCgN1VytsAcRtyXWLDkMyKiCEk1LXiI0DHW5sxWxbiw9RgsUUUEVOhWpaOweYuTFX+52F8vkEWXalCSa2EKWMEFBFTxgCr4gMhoIiYQOiobwoBhYBCQCGgEFAIBEGAiBgh5pMjBpWjCEXEOCBRLyosAiYRk4Qn49dhqltMH4sGioixwHGlHzQipgqqRdXBs10nYt0PgQLoXGlhVf3lhYCFiGGVqhgx5QV94HpOnToVOIH6qhBQCCgEFAIKAYWAQkAhoBBQCCgEFAIKAYVApUPAQcRUOg2uUoHT09OvUs2UWgoBhYBCQCGgEFAIKAQUAgoBhYBCQCGgELh2EfCcPn0e9J/BcPLkyWsXjQqi+bUTrLeCAK7EUAgoBBQCCgGFgEJAIaAQUAgoBBQCCgGFQDkh4Dl58gzoPyNkmCUGETPqapJU5YnFTz+dVe0gEITlib2q68r0eYW7wl31AdUHVB9QfUD1AdUHVB9QfaC8+kBy8vd4771/qn2v2nNdsT7gOXu2APT/2LGfNAKAiBl1NUmq8sZi585dBkFW3nWr+q5cuyvsFfaqD6g+oPqA6gOqD6g+oPqA6gOqD5RtH5g8eToef7yx2m8JRhmqz5Vtn7Pja4kRc/p0vkbEEDGjriZJpbBQWKg+oPqA6gOqD6g+oPqA6gOqD6g+oPqA6gOVvw/MmDELjRs3MQwSVJtW/jatbG1oIWKYO5QKEltOTmGqGoWAQkAhoBBQCCgEFAIKAYWAQkAhoBAodwQSEhLw5JNPlnu9qkKFACHgIGLog7peWQQUIXZl8Ve1KwQUAgoBhYBCQCGgEFAIKAQUAlcnAoqIuTrbtTJppYiYCtha6tSkMmqUwmNY3Hsw7nv8C8QOTsOpMqpGFasQcEPAnzkNb9xVDb+s3gzDthe4Javg731I/rwhIq+LQO0PFuL45QourhJPIaAQKDMEro45rczgUQWHiUBR3h70GJeEuiO+w5fp58LMrZIrBMJDQBEx4eGlUpc+Ag4iZvv27aVfiyoxLAQUERMWXKEnztmAri16IrphT0S/MANrFBMTOnaylBu7o4bHg/r901FZKQWZWkHfcb09Hg+M//X7Iz0EELLiWyKC5ysWblnxaBnhgadNAvKDClpWCTaiew3SvQ0SrpwgZaWgKlchECICWYhvGWHOA3xst7nCg2Jj9xoOmYo134SAQonntBDqUEmuJAJF2L18CWKGJlj+10/cVyZC+TevNeopqzrKRHBVaMgInE7+GPeI6yd2/+DX2BNyCaWXUBExpYelKql4CFiImIsXL6oYMcXDsdRzKdekwJD60pai69tf4ZkvN4du2XKtWMTQZt3+h87xXB/9Q2EP3JqiIhEx/i3oW6cqPJ4gOm0bgPuqeuB5cjQO+t0UC/K+BERMiX89prYtLSImYx7eb/4H1GyfGAaxU1EsYkRCiIghDyJq3YPG7QZj0d4zKArSlNfW51ys//pVPHpXYwwoybivNKDJSZKIWvUR2y0eaccLS0ETeR1lQsQU5CB1WlfE/qEmqlXR+7uuy2zsPmPt6eVJxJR4TpO0gkx+g/QW/46V1jwokeGqf3XpHHanbET7iQvwECdZHhy9CG/O24qUPHFslC8RUxYWMSK5YyeULM/Dk7Hiqm/4wApKSRJvddRu0g5Dlx8MY53gXo+0DkXEuAOmvlzVCCgipoI276lTylwjUNPkLJmChxr2xGN9wiBiAhV4NX2jzbq4YJXeByEtgmFSkYgY+LGlbx1UDWKhs23AfVqa56YcQ+l41HAyIESLmGCQBv1ObVtaGxAilUqrvKAKlGYCORFjbNi8d6JDYjbELUVp1l75yiLSoITjvtIoTvqaJJ3RN9h8GPUWErJLt3eQdUhpEzH+7O/w/+rdgCrSeTyIVWKFmqdD6zyKiAkNp+KmKjp1EEOmJBmWJxYyYmgCAlmiXD60GS8HSVNcucoqnyJiQkdWSpIY884NaPL1tlIhYwyJTifj43uURYyBh7q55hCwEDFMe2WJcc31gUqpsCJiwmk22rCWshtJBVvg+7f0RR1m7eJKimzDgPuY1cxzmHKsdGgYQBEx4fTE0k0rw74AvqzvMfGte+Fli8fItkhQQWw47ERMXGtEjDDv+fNxNHUi3rrXq7nulLa7TpkQMf49GNn4ek1eb513MDnlIHwXdQuYAl8WtiX0wPujtru7h1awebo4cwDhWtrtVRxZKn2eotOYOzNRI2Hq/nclRqZl4xR3q72Y78P2Ld/jn0v2u6pZGYkYuzKkwwOTt8BdU3uua+OZiJgHvyZHocu4kLsbC3o0QST7m1qrPRYdL0UsFBFTimCqoiojAg4i5sCBA5VRj6tO5pycnEqrU37m9xj16XA82jROi8fyuye/wstxi7Eu64JNp5NY3L0fohuNwdQfzmLvwjlo17oP7mExXJ7oj9cHb0DmeTMLkS9ajBeWxuX/36Zmm5kA7Bk3xJE2qCVNYR62zJ1lytPwc9R/bQIGJO3FKfsefvcCPMOtc3JPpGP8p8Pwp8eYfCzPJExK80mtLwp/ysD8r8eh+TO9cbemc1882WEqJm/KQ3G9ZiyKGw+hEzH+7A2Y0CUWd990nR5jIKIWnmg3GEsPnHe6ebgs8H3pI9Dy5irwuFgk+HPT8M27j+DWalW0OnTz+nnIOG81rwdo48g2Uj6kz+iKP99eTftV2Fv9frQelIwc8QftYO5Je0ai0a888Dw3BRYepiAH6QlD0J656HCZvNWj0bjdaKy3VGAAKtzIyADhs3ZL+Iu/zIewGS7IwrL+r+DRu27CddovUhGo9VvuluCwYPEjP3MNxn/S2pq+fiy6zcuABVrebhbrAOMXL1NG+6aHNkOWfA45bLr7s7FhQhfE3i3o8EQ7DF56wCoTyyb0p3PZKzHglfqIvI7JE4FaT/wTczLsfTAA9v6dGPror+DxePH2AmsQm4KcdCQMaY/mhouHF9WjG6Pd6PXW/sRV0X+d1zfzvvQZ6Bp7N25icnmr4/7Wg5Ds6CMFyElPwJD2zfGHmnp/ZWmjG7fD6PU5VgsdbuHUJsGHzLnvIOaGKvDe+QLG7yiAb9MgxLL+XqJxRGPIbFdL+xntLpAVRhP6kZv2Dd595FbuChOBWrL+xNPr/UPv136t/R7iY9yt/QD4c5E2XXS34XXM3g2bt40hVeg3pLtTt4OTmqMa013Wf8PpszZhaIwEtYhhen/zLh65lfePiFqoH9sN8xx9HMiZ8xpuZLLW/ghrffY50iaA7FEYV+5hrMLos1od4cxpvB3aJMCXORfvxNyg9ekXxu9AgW8TBsXejmpVvLizQyLcDJQIV/ucZKibm4S2v2Zj8iVMt0zulCIDY5swMutxDM+4xF9yHR4ehF3nsrFywCt4iLeHt3oDdJpjmzepKBQga1kcWtKc5ja2jfQV6+bCtmQ0Yq5II1ZjnsUFKTQ5icQIZDUD+OE7tBdjE1eg1WiyvElC029WYODmXFALGDVe/hFjvrHGoIkZmojPthophBvuKsXciC4exdQZC1F/aCKaz9qO/UWnsWrhUjQanoA/jluPFT4hm3BLOrgSMYUH0HsUk+c7jMoUMhq3+UiYxcisBei7gy9CSIcR67Gm6GekrF6LN7judUcsxv+tPIxcI79440f2zs34YMJ81NdcxALgxLOdzdqJL6d9h8YjdMzkLmViHaHfO4kYnven1ej6W/Z35EEYHI1R7GWc3pWIPm88hN+wNZbHA7ZGe6n7DKSdFBdpRgbzJmQi5jLyDyxGr5a1cdMvWB1eVK/dBO1GpyBgFRcyMLl1FH7hvQedFjktZFWMGLMp1N2VQcBBxFwZMVStIgKVN1hvIbJXfIvYpi4kSbP/YtJukYzhREzDIejccyTucxArcWjabxNOcOKj3IiYMxmY9EE/nRwJIpPWbpyI+WOHiWjTUiefLCRRswmY84ONvcnbgt6tezkIorIJJEyLZueGROx3vk390fhGnRxxbNa8DdA/7ayVjJEs8P2Z8XiRkTCeKLyV4PyjZ353bgy9Dfoj7ay40aCN1BN4o20d3cLB2Djqf4ifGp0hLOpM96THh4vvdS33jGyEX3m8eGm61S2JFvkOnVldUZ2x4mdRJhExdh+ADDCSEv6izkGIGF8yusfov9pL5XJsIGV1UH1eWHAqLyLGtwn9G9/o4k7hRYP+abA0N5cr+q9v4mmtD5H8/Opoi0DY+7Hu499oC0Lrppj6lK1s3q+iOq+Avbl1IiYGb3Z7Hfd6nfm8T42GsbdjbU7uY5a+Svmi0HnFz+Y44mlf6vox6gllR3fqjX/9nllv8XyRnbFCOEAk9HEUWF+jfI99bvAjM/5F3MxjkZjpmDySttPU1gNRt+jyqXwecbRfDha0v5WTjIQPXYOMD2NsBboh3e26AUTERHZeAQFWINw+a6ue5hJrn7Ml8mci/sWb5ePCMc+SDs55y1aq+6NknnYkDqfPapll841bm3EdXuqKj+sJc1p0J/T+1+81V1G9f0Wis9jJBSEJV1ciBvlY2SUKVSTzu1YMJ+G9L00XSHiuQ8ybeO8vsvaQ/Q3zIbl7jORvEeu3svSCEhXi9iK+m6tbw7y47GixJCISIyARU7gH3WzBfU33pyS8m5xnrZtIDEueIETMsDX4PHGB4F61GF98t1YnmXg5TRYdtNbDn0gHVyIGl5H23WKtbBlORb4deH9oAh6YuAk7qAbSYdhKfDpXlIsIpiS0WfWjsF5hGS9h+/KlnIChdHSVpQcubN+AZsMpjfUasE1IziDXoERgzxk/AAAgAElEQVTM9U9jgoWcuoDMWX9HtEaO0PxtXq+78x9Y4MawMllCImIuI2/Nv3GftI7rcOc/FriSuPmb4hDD/456Hx+NDJv+ioixAaIeyx0BBxFz5MiRchdCVWhFoNISMXmb0bMVIyL64JUxafjhDLPrKMTZrDSMfF8nNu77YCWyDE6CiBhG3MThj+1nY/4uH/y4hJMpSXiZETqNRmHSQSODARSRMkEtW4wc/EawXpFH4SnE/uljNFLod3+dirk7cnGeVX8pD+nzpnOSaRD6pgi/svMyNRKl0UB8lLgfp/zApZPpGNauN6Ib9kaHeVYLJ0P+XutxIO+CbjFz6Wcc3LASX3yWgHVy4ezahPhMi2bnhsQowL8NA+qzRbIXDbovR6bvorZZLMhJNd08Hh9u3XDaFvj+3NX4VCMP3Bak/FdJbx288+0OnCLz+px0zOykEy1WAoU2Ifof9ajW32D7qYso8udj98QX9E2iLeiu4Z5klxV7MLLRr6S/mGbNeg8vdotHyv5cnOOcC9N7WEu2OPeCWSu4UzGByAADXcuNvrF327SwpDlIbHuLVvedb3yDrSfO6fUX+JC1Og4Ps1+cHERMKvq1eBuDF6Xj2Gm97eDPR+b8D1CHbfDd3LWIlHGUZxHZ+UAbN9d8fmwbUF/bsHgbdMfyTB+05mYBRye+xQkN8ddp0yJG25R5G6D78kPILwIKclbgE61f2TdqAbB3tY7Kwqz3XkS3+BTsz+W4ogA5qcO4FVcbJNisDsR4FVGxvbFw1ylNl4KsBHS8m5ElT2K0GPk5axbee7Eb4lP2I9fsUEgd1lLrs15mGUAdinD0eBD1VgKy8xbjHzfzRaxmAZGJSc2rweN5GIN2XeTtEO44ouaj8RSo71EVY9Hkeg+YK8y3O3R9wXBKn4lOddg8YWs7gYhh7ae70GRp7ccs4IY0ZycL2dqPdK8fh+Ts03r/QAF8GWswvktHjCrx8e6krzDvFfiQsfQzPKYRzrXxyQYxoHMx+ixBy69EGAQiYjLGNsH1Hi/qvPMtdrD5jOVlVnkzO+ljVZy7/Ovw8W9YfyiBO6VtnraJrD+G02clBQSe06gdKC5PHhb/42ZOMtbGR2t9yOQWSg8P2gXq5WI1hKs7EQMYc7/d4pFZxWokfCQ6LjktzOX0d5HhG4F678/S20P8+2KbN/NXdkFUFQ+iYgdi5aF8vSw2z67pj1hGHkd2xJLTNLhFDUK8pzFBBKz0KvTnEIs1kl0+ipET2eZ9MYbZd6RGosA3RGIE3PQX7kXvyeswIS0bx89yi4hL57AreTWaMAIjoEsQBQcOQsRoZMtCfJZ2BseTVxiEzAvfHUZ+5ia8yOqJT4OMiiEdAslxOTsNbVgZ41OxzQJJEfI2rAKz2Gm3ViCUiIjR5EpE82+3IPk4680FOJyyVtM7ZkQyVgjmzpczvkfs0AT8ceJ6LMo6z0maAmTtScMHYxIQM2wFplvcgIhIW4BPvj9uupSdOYnU5I1oH8ClzKJCgAcnEVOI/OzvMf61aPzC40Fk6xk4LBi5XP5xLt6I9MBz3Z14c8o25JxjHwvh27sAPZpEauP8rg9Wuh+qEQoRc2oZOt3mwXVRz2LwuiPQqmB1HFiB/s1ZHXfhg5Uui2ZlEROgtdWnioCAg4hRMWKufLNUViLmaNIE1HMLoHtmO/r/Lc5GrBARE4emPddZ3JCAC9g0ZJCUxGAtZBAZ4QbrDUbEnN+FQa/EIbrpGEzaZ18SFuLQ3PFOHYmIaTQQPVblWtyQji2chD827Ik/D92Js0LXypo7DnUZVl+kGhY/wudSvqUFp/sCjhaYkW0T4AipYcQosG3gxAW+YcERhbdmZ+GCbC3KTyxqMeGI1T2DaUsbDguxYi7gtU2q8MffSG+zFICxAbdtjqW/iAaG2b/uY/wmSPDf0CxirPUE3rQIFhXihoyKoIW6KwFCCel6kG/kXdq+rIiY/JXoEsU2JrIYLX7sGdkY19uxJVkcVgGmBcOTow8KbnsyIkbfyI9oo8eIcVirECyOK1nQ2Pq4xg+xo4C9aNB3E+x7rKBtKdZDfVzc3FF7ep/HlCOsg9NYjUTbhOPaXOKoI+xxRELQeHLqSCnoqge1boEJmkz0Vr/SuLC2BTME0i1iot6ajSzbBEDfLAQFuQrW72OzhLPWV/wn0pcTW+Km1nsnXhizzWqRVZw+axNOqqclDY9T1WICnNBSHxTmLuof9nnOUmaQB3GeDpLU8VnWZx2JmFchGyNu/YrawYvnp+hzv57eA+PvTRAZCddARAxA7kcCfpqsHPPaPfC9aJBrjLUotI7fZ3OV5MS9hWTNRVLbX8MT/RHWSvzmdCsrG9kowSrgK2pvsa867l3m8oAF849kqTJsJb6V+8kELYVIjIBEjFspRAQFPJ0odCLmT7N2ae4+FIy37uhkrGC/kXE93YgW0sHtuy6+6X40YJegUFEepk5lrl1rsEj4PQ4GEZOE/11id0PKx9yZjABbALOsy1g7fz5ihq3CPIkL1fnUNRrZ826y+NEs59PNZwShSu+WiBirFSSbQ69DZMNPsMxi3XIRGaOa4hee6/HY1+kQIgloAl0+sRjv3hYkrkwIRMzxua/hfzy10X2jCLiu8+WscWjm8eC3H67F6WLAoCxiigGaylKqCFiIGHV8daliW6LCMjMttn8lKqt8Mv+Mdf2+QnTDr9Ar+WdJlUSsDMBna+gPCxEx4jszK5Etz43d7whESN9K3SLmwFK8+kRP/K7jMvxgimLeZa1C+2Y9Ed1hCbLoLREx4jv+zVXOnI34SHNjisP9rcdjwOwt2HucW8ZQuaV2pc2d+wJO33g542mQCPovih5YNlK0eO6TiHGaqX0AEsb2i7nzjzzfLImbVCNGjGyB76aT6Z4kbhTd3JJ0/XzYl9QPrzx6lx77w7bwDbz4l5EBhJr8GnjTAuQv76QFxZPWSwt1CRFD8X2MuCQWPVzansgPSXly6fnbAHJoKThZ4H17gfyEBdqEi/UGkEW+EaM+INloM6uMOzsg0bJo5LL79iGpnxh7R8zv7GvB2kuGk29fEvq98ijuolhLYluIfZxwfHU2t5LhOkV/gg18VWuvn7BwHUOsLrEOQ0DaEDt1NJJoN5ROxMV5b++fJJdljrAWbHvKwvRWuksIi8nx9uB5SD3ILadsKYv36KLHr5/C4C2iZQQvvTh91iZYUAyovcX+4LgX2ofSlwMRE3KftenMHu191JqE2uFVzOamYHr6aHxidnLUsBOzQiGEq73PCUm0W0pnsazk7Wp5p6Wm+UM+NzpkNIgb51gQx2Lo/d8ufTk8lyMRU3B0H8bOXYanR+muUKZrUgJiSoWIScSnW/RfZ4iIabmEr9pKhYgBLmxeq7kNNVmQabgUXT6+FX8fmgDxndZyRMQMW4pvHItHk1zq8j13hqT0Fncsq6sRs7p5fZVoTV2EU2nrdOuaoUl4dkYKpu40gy2XRg+SEzG/xH0fLMSRS/YajmPua/8Dz3WPYMQ++zf2nIvF/4hyiSvD0wclYk4j+eN7TDddx3ypj8da7RfBYjwkE0fyThExElDUq3JFQBEx5Qr31VwZkSqjMMlgKKz66kFzRdKF8ojvzDyuJEZZWsQEs5jJ2YCuLUqBiGE/2lgC++ruWfe3/gYTr0Cw3sALafPXbssik2+cazd9Gvcw95eY7thg+FyY7Uh3tEgWF62Oe8sGkhbwwsaECjMWxc5FtGGibljXkCuH0+0ECOTzr/+BD7z4L30ihnCyYE1608ZMJDCYQZERm8dtk+DESSsyAPlBVUqvLnIYaXm5rtjJ8geQhTCxlkcbKVFnPdhr5zFrccRmlaHJZlhuiXnEe2dfCzY2DJ35jS+5O2KEeC8B+7gDB2d/stdPWDjKFReolnFEEgYaT5SGXSmdiIvz3toWLnOEWKzs3q8HSa0fyYODa0EeG6DTrDII1stcTma+rbvFRTyOYXbXp+L0WZtO1DbSsatBG4+WEU4srW0p9EEKQusxSQxblcEfg+kFIKw+K6nR3ketSag/mXOQI30QGQlXe5+z1sMWBnPw2o0eeAxrQk7MS4P40vxhyiWWp8so/vhA6QO3n2vbi4VfqXsKQjtsCcYdLp4QZE0SyCKmIHMzXnGJY6IRMqVExFAwX52IEUiLUiJiUJCBuFEJqDtmA5I1l6IiHFq9TB7El4iVIESMQaxQ+rCIGNZmRTixOw3dJlNwX0beJKHl7C1IKUbwZXsvICJGPzXpMi5kr8IXmouRF/d0XmojO7IxqXkgixciUWQBfnnNioixN4F6vsYQsBAxTPft27dfYxBUTHWZdVLl+peHZT2+LFWLGHLrsZ+CxHAJRNIExC0Y0bJ3EZ5vVA4WMYKQhWdPYOeq5fjinwNxXyMWF2cgeq0lqyEhYbFvaQEpX3CyYlPj7tBikthPmKEqA1rE9E/DHh7Y0xlwl0oozkaNFvDCxsQoLoBOdvekDB7vQozNQeXwbx4tJkmmcSys9jnI5kAvgssh3fhSJdarYxNi/YyjM1rhBo8H0ngJByeheTV7jBgKVOkBi6NjxJTRyiUMXdqe6+iMOWMTyv7oIBBsCVLjcEcVD8rFIiYM7PX4HB5Y4tZw0d3axe29TWP+SO4R1lhL+kdJX3Hg6Exjr582peFv+KgvyMaTqA2lc+kzYlLhvvhyMSYxH0fTl2Bclz/jdu3kMi8aDApwJLNQr/utTI98rO+uB4i1Bm7VJsHw+6yt8qAYONrbVoDjkbvVeOzxTRwJ3V8EncfC7LOSmux91JrE2Q6O9EFkJFyDEjFG0F7ex/nfgsiOSxxuhaYboKyfk5uYOFacY9OqZyk8Uf8QSVXHvUzeEOsmtxp7fJMQs7NkwYkYculJQLM5O7DrtLCWJfKhshAxRtDeJHy2tRAoOolJ8Ql4YNo2OKJpkm5SIuYyti/7TnM1IvLIcGUKiEXghjnnO4q1azai/Tj9ZKq6Y9djtdN7J3Ahtq9WIkb/eDFzEp77HxYH5gH02SI6IP2Iqc/9opwsYgKQOTYdwnlUFjHhoKXSlgUCDiKmLCpRZYaPQGWM1ZM5fRTubdgTTw1Kh8N7lQL5Nh2POcbp0gEsYgqPYvb/9UF0w8DWMo9+ngohXFpwoIMRMb4t6PlCT0Q3HYeZZlRhXq4ZyNcS86U4rklSSQuRvXAyHnKLsyPNE8pLvoB0nIxi5s1Naotfs0BssgWrEcjX5ntvWTz7kD5CD0YaFTsG2yzH4ej1UGwJaR2mKMIdLeDFxTB9DqST6Z703JRj2KsFx3TZyBARYbiGUPl+5M7vgJsDmMvrKcNfnDs2IVTl/2/vTIC0KM883sBMkGMNxy7HFoYYsXABB0qDrEQ3iK4FgglrSVbcym5QjGysrZAUhCQkiIhYGyFBJLiAEoiCG0FFCAi4iIigIMcgTjgGgcAAwijDMcgxA/+t7u97vz6/Y+abE35FUd399Xv+3qeb7j9PP4/ZGhEjKBx5s634PGIMp656anMgQe25rZp8i53GOcnDe9L5m8Ek2ZoXBt84PGXN/+RHBq90g6J6Px8z6aujRKHoF7HKsrf0rwsCAZjLirV4mB1ANGxradfLM2335S7swVBWvFjD7EC8XuEoxDE8p2D/Fb+OzABT2Ikp4mzNS2iSa8ZX1j0wa1Rxgchtw94r2zNH99heI15O/iIZHpn5BmzfMA8GHK6MzQZGkpaBibkSeV0EGnMO3XtZKpE7qmbiN999OvGrZ8fcSzO0WU9Nsxu0UfN7bBteh1D5NGM0XNMLMW7QXrvsmU0TdUOjThrrDw4TH56Zd8A+7LMlK/VYmwaycr1elCbeVjhQtX++WRwlbDOV103EeDPu0nh0vKFuM9cmTe+cqrm0QkxCkIjwujlTqIkzq+7TJCNqVJtHjC08xYP2fnPRTp1z9t/UyI2+XGsxXIl5R3yadH6fJr1gB9/1njuvJQticWMSKbBTgU917tIJLVm42C/0pCqf4lyUECMZzxZL/sC7Z7R1Yg9Z1lXqM2NXKPZfIpDv10dqTbIALmk9Yi5q/6y+SftIMZWMTiHEZISJQtVIACGmGuFWtun6Gqy3fNcKPehkOvpvDZu7NTJrkj+mixFiJmrYvE90yMmyZGcb+osWTpgSy1z0/cXa5hXgDdS450rHvtP13Noixauas8m36YQYlejdpyc5qau7/cerWhyVNSkYyLcSQsyO+XM1atY6bdpbEsvKZH+qVHpUW16Z7QgxPqHHN5sSrR3fSy0bWmqaN1IrDnkj2PoKeg5SPHCaUkcW6d9bx9JO95+0KjJrUiKwoqkTenh2P/MJBde165hgmPEMFVtNNiDTXmhrHuDDL8fuC2/0Q2ni86SBj2tiv6bJs1nERQ+r5RDNK7SzYJTp9MF8vTH2DrVuGHsYTv3wH35xDk0j8EPoJSRw3uXUSY+9+alOXyrT6T0r9OvenlTQPgHkoF4Z1Mz5hrr7uPX63E5PZGeHeXeaftC1WTxNbjQnHXxFg5pZivQICo7Le2xeGHzj8BYwmZ/iGUaisiYFA/kaUSiizegXsYqzj3l+WWo5ZJ4K7ZRMjifGGxp7R+t4GuWwraVdL++0tUHjOtjXUUsNmVcYyxp0+qDy3xirO1rHP7/xCgwhjuE5hfqv8HXkDtDMP+w55Zax90zwbqtpnn706lYdNdmf/MV8R2aNMhZiNkzR/aNnavXHh3UinkHNWY8Nv9PdthCT+LTQ141zULJ2vHrZnzM1zdPIFYdCLwCxGub+EbR91yvGLwpXwmYDQ0vPwPVea5r3I7269WgiU1ugKfdw/3wNiqdzj9VxeZ0r2aV3Xxih4dNTeA+F7tNu07G9CtpssHrGMWLcdQjZdJoxGq6p78VmYHEvopbDNGp4ezVIfKZkzput+XfxNk3aZJj677WdfrFO3ri8CY+6a76jSasCHpSm2Tq+vXRih35lZ+Sxs/XMfEcvflyx7DtphZhLRzRrrt3+Ij2w8q86aX/Sc/aUtm36UP85Mx4vJqUXiBtPxQgtfqTh89UpxMh4EU19W+PfXO75TMk/qoSHy7PL9ORml2np4d2aMT+WztoEF47VvKTP1692YtB0+/1yPbkxg1gvFw9pzmvv6YWN+1To8TQ6U3JA8/7XFmK8wYAD4zu7S38c8jU1tnJ1zfdma3sSz5loIUZKeMVc1UczdrnPnac3TdRNdlrpZjdpxJ+isiZFB/JNjC6tECOd3zVd37b7yL1Gg6as0d6TFxLV0+6YrEkNW6rXL1aG0lwjxKQlSIFqJhASYuqjJ0Y1M6rx5uurECOVasuLz+tG+/OaXuG/13/vVa0+6k1FbYSYcFmnft8ZmlPgS3PgrkX5Xv1xuJ0aOlzX/ylToaY/GC7jqxcIslt+cJ1+PuiJyLY73vq0hs4r9EeHr4QQE4uXk2RcfWfq5V0ed1531kq8OMfdlTN76TEPnO6DsLfJ2H6Z9swbrDZx8cEfsyBJ4NOoh2eP10aUGJMuFoF/PuZFKvxynE6ISWRPyv2KvtIgiaePPfHTH2hcNzsdb/h/INt2zVP7RpaCD/+xl4hwebeNAGcjMET0Yer45+1mFTLnY1s7LfhCjf674KdJ0v75g2LpvIN95N6gvK5XJfeISaTKDs/HP2+zFuFyiTF6BQbHs2GeBrdxY38kytljzL1GwxYV+V+gDadqFGJOfzBO3SLjt7RV17z2apS1R8xpfTCum5O22zdfe85tuyqvfSO/p0dlhJgMYnr47cm92su2/kbdI+cfsNm0sZOC5Svx6aFZ76DNOsdtNWxJLGuUO3qz5wqPDuMIe4mVNDYbHqsSnyTep/mH3X+TyvZU0GbN+kXOIXat+K8jZ/E0xknHnuRaiphPydrH1aOZLfBF1/H3Ye730WXDzCposzbclGsX69e1wfA6VK8QIxnBxJ6r7RXprrCxIWcSGmPfS5MwjfRA8vz7FlkvcA/09laX9s/t2aR/mxYTY3xBdOPxSnzxX4ynR4pYJv7sQ5dUsGqFIzCE2n7uLQ20PUMCQowRd0LlE3164r+ohoUYuYKJPb5EQODggqbhFOmBdOmE3notJtJEzj3AyRV7otfuppc2a3dwXPHjk+vHqHPC1pN/5pNMiJG+0MrH/t7JnnTjU5vcZ+CLn2vNr7qrcaJt7zXVUC3vmqqtPtHH9a6JvIbsdto9rKW+yLtntWvOd50kBtF1ks9Hh17WQFvEccb3dY0MuOYgxCQxGH6uMQI+IYasSTXGPW1H9VcQu6DD7y/ViKHP6MbettAwTl3ueVaP/n69dp4MPg5FCzHX3zVZg8et0IajTnS0pKzKj+/Sa09P1+13+kWTbIUYu0O77cW/m6W7+z3peMd0vG2i+gx7WXOjAulWQogpP75XK2fN1b989yldFxeTMpt3NXnEOJTLVLx5vn7av7PaOHEaLDVt1139Ry9Qgfe/Bc2KxB/G/S8B3heNXN0wYrmCTjupsnO4D+92J+YBvhJCjFyXfts7YfjyiCwp8XmUFa3SEwOujWdMylWrLv00ekGBTu2LBdYMzq/6hRh7YCXKn/OobnKCmOaqVc+hev79Iyo3QYpDL2ux8re0bxLzgGnaTrc99LzWHDirdU5q2YiXUbOO5/Zr5bgBCmZb8s/brIV5oInYRryElBVv1vyf9nfbbtpO3fuP1oKCUwplODcvd6G5uS/5/jGFvUfMlJJvy1S06gkNuParMQ+Y3Fbq0i82nn1O+uWwrYVeGpM3HjtjB6B9YoCujWdMym3VRf2ca2ifXhrQtEqEGLujzK8j74Dta/wPerR3MENYlH2kyiYWLm+8FvzXsLfvwH5ZsQoWBbKVpbIPT/XsPGLshlzPFL9NSRWy2coIMXb3qTJ3Rdi/XcUZ15j79Y9fi9uulatWHW/XQ79dqh2++3NFhRi78QrYrD0Yc61GvnzF7g2uHZh7h2szoWsq2b8ldl+ejHvBtYqfDm9M0N7IIL2meBSnONPnkwT7tquWFWndiyPUv3MbNWkQuA9G3ANNb3Vu++VhLV7+jh6c6QZ9/eb/LNcPl36sfG/Q1zQCgy0g+IUYO57sSa3/v3c0MJ4xqdu0P+v7r2/RB5+f11uv1TchRjJBe7s++5amJ0tomoSTw3RZgXYHvhpO2MOlk8pfu14Pz16imxPCU1xoCQoxkkr37whko1qk3jPf1i/XfKojqR6Zs/SIsceb8EwJCiUXT6twxTN68JYO+qojeuSqVad/0kPT39fhC4mZxncqI8TYVc/qwPsz9V93/oP+tnHgurNSCDHyijjt9LBf4RFCTHB9OK5pAggxNU08w/7qX7DeDCfmK2aEmOg4ML6iHEAAAhCAAAQgAIE0BIznZaexHyqJT62tJsU9YlyBKE2znL5CCZgsUDcvLFCyUCcJbxVfHJgrFFgdm/bF/bPUF4+YOrYqDMcQ8Akx9o/11xPDTIlt/SGAEFN/1oqRQgACEIAABOowATs21opfq/ffNJDVdpiWfBb0wvWOHSHGS4P9CAIXzujT/I/0iB1T57mVmvvXiDLmJ+MRgxBjiNSBbblOF32oFx7oqBzLUsNOI7X6C/+w8Ijx8+Co5gmEhJhjx47V/CjoMURgz55k/o+hovX4B4SYerx4DB0CEIAABCBQ+wSCn0rl9tS4dcVJYsOY4SLEGBJs/QTCMWv+rJEb0uTnRIjxQ6ztIxMEOP75ZMOWd2mqP1iNM0KEmNpeKPoPCTEgqX0C9TdYb0XZIcRUlBjlIQABCEAAAhDwEDBCjCfmUygGlad4bBchJoSEHxwCrhDzpvq89J5eLihRKNRJkBVCTJBI7R47QkxDNW/fXfeNmacN4WA1zvgQYmp3mehdso4dOyXz1wZSWFgIl1omcOUIMbUMmu4hAAEIQAACEIAABCAAgSuOAELMFbfkdW7CPiHm8OHjTowYI8ywdUWqmmTx2WcnWAePQFiT7Omrdmwe7nDHBrABbAAbwAawAWwAG6gpG5g7d76+9a3bEw4JNdUv/WDjxgas8vKLMn8RYuqOYeze/Sk3BsQYbAAbwAawAWwAG8AGsAFsABvABrABbOAyswFfjJgvvzzreGIYYYatK1LBAhbYADaADWAD2AA2gA1gA9gANoANYAPYADaQrQ34hBj7w6nt27fXue+nGBAEIAABCEAAAhCAAAQgAAEIQAACELgcCISEmMthUswBAhCAAAQgAAEIQAACEIAABCAAAQjURQIhIaa0tLQujpMxQQACEIAABCAAAQhAAAIQgAAEIACBek8gJMTk5+fX+0kxAQhAAAIQgAAEIAABCEAAAhCAAAQgUBcJ+ISY8+fPO8F66+JAL/8xHdWyR9rLsnJ0dYeeGvKbldp7Nt2sy3Vo2Qjd8+PFGZRN1xbnIQABCEAAAhCAAAQgAAEIQAACEKhuAggx1U044/aNEGPJsuy/Oer88/dUkrJ+qfKn9lFzu+yo1Sq+mLIwJyEAAQhAAAIQgAAEIAABCEAAAhCoZQI+IcYeC58m1fKKlJ/RwdXj1bu5Jav5YC04nGY85Ye0dHhHNbJa6N7ZO5XWiSZNc5yGAAQgAAEIQAACEIAABCAAAQhAoPoIhIQYgvVWH+zMWz6ptT+7TpZ1p2YfyKBW6RZN7t1EVs6tmvIJUkwGxCgCAQhAAAIQgAAEIAABCEAAAhCoFQIhIaZWRkGnIQI7p96cuRAjqXTjk+rWyFKLBxaoiE+UQjz5AQIQgAAEIAABCEAAAhCAAAQgUBcIhISY7du314VxXfFjqKgQIxXp9SGtZVld9PiGU2n4lSp/2t1q1aix8n75LrFl0tDiNAQgAAEIQAACEIAABCAAAQhAoKoI+IQYsiZVFdbs24kJMXmasLk048aOLntE7S1LeRM2K2Wt4+9oRMd4UODG39G8ooy7oCAEIAABCEAAAhCAAAQgAAEIQAACWRBAiMkCXnVWNaJKi3/+rdYfOauMvjY6skRD21qyek3RX86nGh0eManocGnCCP0AAAQMSURBVA4CEIAABCAAAQhAAAIQgAAEIFBdBBBiqotstu2WH9LbY7+t9rkmnXUmgXt3aurNlqyOP9aqL7IdAPUhAAEIQAACEIAABCAAAQhAAAIQqGoCPiHGbnzHjh1V3QftVYZAebE2PDdY1zdvJMuyxZhMhJgD+tP9LTIsW5lBUQcCEIAABCAAAQhAAAIQgAAEIACBbAiEhJhsGqNu1RE4ufZnus6y9I0fLlTBsQw/TdIRLRnaFiGm6paBliAAAQhAAAIQgAAEIAABCEAAAlVKICTEHDt2rEo7oLHKEahMsF6JT5MqR5taEIAABCAAAQhAAAIQgAAEIACBmiEQEmLy8/Nrpmd6SUmg4umrJZlgvX1maG9G0X1TDoGTEIAABCAAAQhAAAIQgAAEIAABCFQxAZ8QQ/rqKqabRXOVEWKOr/6JOmaSvloma1KO2tzxtNYWo9pksVRUhQAEIAABCEAAAhCAAAQgAAEIZEwAISZjVDVbsOJCTJFeH9JaVs7tmrYjZe5qSbs0/VYTBNhS3oTNKq3Z6dEbBCAAAQhAAAIQgAAEIAABCEDgiiTgE2JsAnyaVDfsoKJCTOmWyerdxFKLBxaoKAMHl9L8qerTPJYa+xsj16ikbkybUUAAAhCAAAQgAAEIQAACEIAABC5rAiEh5rKebb2Z3HGt/knHzLMfleZrap/mslrcq9k7z2Y2y/JPNLlHTIjBIyYzZJSCAAQgAAEIQAACEIAABCAAAQhkSwAhJluCVV3/wkntWzVevW1vlTYPa2m6JFblJfromd5qYrXQvbN3KhMZ5sLJfXpvykC1a2TJyumhCRtPVfUsaA8CEIAABCAAAQhAAAIQgAAEIACBCAIhIWbbtm0Rxfip+gkc1bJH2suyYl4qlpWjHhM2KrVEUqr8qX3U3MpR51GrlT7mbqCPnDa67w+ZiTfVP396gAAEIAABCEAAAhCAAAQgAAEIXP4EfEIMWZNqc8GNSJKjqzv01A9mfaTisnTjKdehpY/pzlFv60jasnZbsT5yru6gnkMmaOHWYmVULd0wOA8BCEAAAhCAAAQgAAEIQAACEIBARgQQYjLCRCEIQAACEIAABCAAAQhAAAIQgAAEIJA9AZ8QYzdH1qTsodICBCAAAQhAAAIQgAAEIAABCEAAAhCIIhASYg4cOBBVjt8gAAEIQAACEIAABCAAAQhAAAIQgAAEsiQQEmKybI/qEIAABCAAAQhAAAIQgAAEIAABCEAAAkkIhISYwsLCJEX5GQIQgAAEIAABCEAAAhCAAAQgAAEIQCAbAiEhhhgx2eCkLgQgAAEIQAACEIAABCAAAQhAAAIQSE7AkmXJ+WNJpK9ODoozEIAABCAAAQhAAAIQgAAEIAABCEAgWwL/D33J8omuPZYeAAAAAElFTkSuQmCC;" parent="1" vertex="1">
          <mxGeometry x="360" y="300" width="267" height="128.98" as="geometry" />
        </mxCell>
        <mxCell id="SDstTrBbTWdrZYUDBMT0-12" value="提供登录页面,颁发令牌&lt;br&gt;" style="ellipse;shape=cloud;whiteSpace=wrap;html=1;" parent="1" vertex="1">
          <mxGeometry x="410" y="150" width="120" height="80" as="geometry" />
        </mxCell>
      </root>
    </mxGraphModel>
  </diagram>
</mxfile>
